{"glyphs":{"0":{"ha":701,"x_min":17,"x_max":683,"o":"m 17 410 q 40 531 17 472 q 94 643 63 590 q 102 652 96 644 q 115 668 108 660 q 128 684 122 676 q 135 693 133 692 q 138 699 136 694 q 142 706 140 703 q 243 774 192 747 q 361 801 294 801 q 413 794 389 801 q 457 776 436 788 q 498 750 478 764 q 542 722 518 736 q 606 644 579 679 q 649 572 632 608 q 672 492 665 535 q 676 394 679 450 q 680 389 678 393 q 683 383 682 385 l 683 381 q 661 271 683 326 q 610 168 639 215 q 597 152 603 158 q 586 135 590 146 q 481 44 539 83 q 350 6 424 6 q 215 44 276 6 q 110 142 154 82 q 42 273 67 201 q 17 410 17 344 m 174 456 q 173 383 174 426 q 176 294 172 340 q 189 200 179 247 q 218 116 199 153 q 270 56 238 79 q 351 32 303 32 q 406 39 379 32 q 456 60 433 46 q 494 95 478 74 q 514 147 510 117 q 516 158 514 150 q 518 168 518 165 q 522 199 519 176 q 525 245 524 221 q 528 292 526 269 q 531 322 529 314 l 531 351 q 526 474 531 413 q 518 592 522 535 q 503 659 514 626 q 474 717 493 692 q 427 758 456 743 q 360 774 399 774 q 247 747 285 774 q 192 675 208 719 q 174 573 175 631 q 174 456 174 515 "},"1":{"ha":560,"x_min":15,"x_max":543,"o":"m 40 15 l 40 31 l 214 31 l 214 551 q 208 571 214 567 q 192 575 203 575 q 161 567 172 575 q 124 551 150 558 q 72 538 100 544 q 15 532 43 532 q 33 551 15 546 q 119 582 78 567 q 197 631 161 597 q 220 652 211 643 q 236 669 229 661 q 250 688 243 678 q 265 715 257 699 q 268 722 265 717 q 274 735 271 728 q 279 747 276 742 q 282 756 282 753 q 292 762 285 760 q 306 765 299 764 q 319 765 314 765 q 326 765 326 765 l 331 765 l 332 765 q 335 763 333 765 q 339 760 336 761 q 342 422 336 590 q 343 83 347 253 q 353 49 346 64 q 383 33 360 33 l 543 33 q 542 23 543 28 q 535 15 540 18 q 519 14 531 15 q 496 12 508 13 q 472 10 483 11 q 457 10 461 10 q 426 10 453 10 q 367 9 400 10 q 301 8 335 8 q 249 8 268 8 q 213 8 236 8 q 165 9 189 8 q 122 10 142 10 q 101 10 104 10 l 40 15 "},"2":{"ha":657,"x_min":17,"x_max":640,"o":"m 150 131 q 103 120 122 131 q 72 93 85 110 q 52 55 60 76 q 40 11 44 33 l 25 11 q 47 112 25 65 q 103 197 68 158 q 182 266 139 235 q 269 322 225 297 q 296 334 283 331 q 319 342 308 338 q 342 351 331 346 q 367 367 353 356 q 439 443 410 399 q 468 543 468 488 q 452 628 468 590 q 408 694 436 667 q 340 736 379 721 q 253 751 300 751 q 197 740 229 751 q 134 710 164 729 q 83 667 104 692 q 61 614 61 642 q 74 599 61 599 q 111 604 92 599 q 150 610 131 610 q 201 583 182 610 q 219 526 219 556 q 192 458 219 482 q 122 435 164 435 q 74 448 94 435 q 42 481 54 461 q 23 526 29 501 q 17 576 17 551 q 35 642 17 613 q 78 694 53 671 q 128 733 104 718 q 176 758 151 749 q 230 770 201 767 q 294 774 258 774 q 452 751 382 774 q 582 660 522 728 q 606 617 597 640 q 626 569 614 593 l 626 536 q 597 426 626 467 q 519 361 567 386 q 413 321 472 336 q 294 286 353 306 q 182 238 235 267 q 94 158 129 210 q 100 152 97 153 q 107 151 103 151 l 114 151 q 174 174 147 165 q 239 182 201 182 q 320 176 281 182 q 400 158 360 171 q 471 131 436 147 q 542 114 506 114 q 597 137 581 114 q 619 188 613 160 q 627 238 625 215 q 640 261 629 261 q 635 191 640 226 q 618 123 631 156 q 585 63 606 90 q 531 17 564 35 q 513 8 528 15 q 492 0 497 0 l 378 0 q 371 3 378 0 q 355 11 364 7 q 337 20 346 15 q 322 28 328 25 q 284 55 306 38 q 240 89 263 72 q 194 118 217 106 q 150 131 171 131 "},"3":{"ha":661,"x_min":17,"x_max":643,"o":"m 17 186 q 46 263 17 231 q 119 294 75 294 q 188 276 161 294 q 215 214 215 258 q 206 171 215 185 q 175 136 196 157 q 161 124 169 132 q 151 117 153 117 l 90 117 q 87 114 89 117 q 85 108 85 111 q 95 92 85 101 q 107 81 106 82 q 206 29 151 40 q 318 18 260 18 q 376 22 351 18 q 419 38 400 26 q 451 70 438 49 q 474 125 464 92 q 481 155 476 136 q 485 176 485 174 l 485 324 q 476 339 485 324 q 461 361 467 354 q 440 380 454 372 q 410 392 426 388 q 377 399 393 397 q 351 401 361 401 q 276 397 314 401 q 231 379 253 392 q 183 367 210 367 q 147 401 147 367 q 163 426 147 418 q 192 435 178 435 l 372 435 q 412 449 396 435 q 438 485 428 464 q 453 529 449 506 q 457 569 457 553 q 422 714 457 664 q 290 764 386 764 q 243 758 275 764 q 178 742 211 753 q 119 714 144 731 q 94 675 94 697 q 107 667 94 667 q 132 670 119 667 q 158 674 144 674 q 213 646 194 674 q 232 586 232 618 q 203 522 232 540 q 131 503 175 503 q 66 532 93 503 q 39 599 39 561 q 64 683 39 647 q 128 741 89 718 q 213 775 167 764 q 299 786 258 786 q 354 787 322 786 q 411 781 386 788 q 479 754 444 772 q 541 711 514 736 q 585 654 568 686 q 603 585 603 622 q 578 512 603 540 q 524 465 553 483 q 469 438 494 447 q 444 422 444 428 l 444 418 q 449 416 447 418 q 451 414 450 414 q 516 384 482 400 q 578 346 550 368 q 625 294 607 324 q 643 225 643 264 q 629 153 643 188 q 592 92 615 119 q 539 44 569 65 q 474 14 508 24 q 462 10 471 13 q 442 4 453 7 q 423 -1 432 1 q 411 -6 414 -4 q 406 -7 410 -6 q 400 -10 401 -8 l 342 -10 q 239 -1 296 -10 q 133 28 182 7 q 50 88 83 50 q 17 186 17 126 "},"4":{"ha":731,"x_min":17,"x_max":715,"o":"m 374 64 q 373 74 374 67 q 372 83 372 82 q 372 126 372 100 q 369 176 371 151 q 367 217 368 200 q 367 235 367 235 l 361 242 l 22 242 q 17 246 18 242 q 17 253 17 250 q 35 287 17 258 q 76 349 53 315 q 122 412 100 382 q 151 450 144 442 q 245 574 201 511 q 339 699 289 638 l 343 710 q 360 730 349 715 q 383 761 371 744 q 408 792 396 778 q 424 811 419 806 q 435 831 426 815 q 444 851 443 846 l 492 851 l 497 828 q 498 798 497 826 q 499 730 499 769 q 501 649 500 690 q 501 581 501 607 q 502 537 501 568 q 503 469 503 506 q 502 403 503 435 q 501 360 501 372 q 504 347 503 356 q 509 331 506 339 q 517 316 513 322 q 531 310 522 310 l 711 310 l 711 258 l 693 250 l 518 250 q 517 247 518 250 q 514 242 515 243 q 510 235 511 239 q 508 231 508 231 l 508 89 q 511 65 508 81 q 525 43 514 50 q 556 42 533 43 q 604 41 579 42 q 651 40 629 40 q 683 39 674 39 l 715 39 q 712 24 715 33 q 700 15 708 14 q 437 10 568 11 q 174 8 306 8 q 182 29 174 19 q 203 39 190 39 l 361 39 q 373 49 372 39 q 374 64 374 58 m 83 318 q 94 307 83 310 q 117 303 104 304 q 141 302 129 301 q 156 303 153 303 l 197 303 q 243 305 215 304 q 297 307 271 306 q 342 309 324 308 q 361 310 361 310 l 367 315 q 367 329 367 317 q 367 357 367 342 q 368 389 368 372 q 368 415 368 406 q 368 532 368 475 q 361 649 368 589 q 358 663 360 651 q 350 676 357 674 q 303 631 326 657 q 269 575 281 606 l 85 319 l 83 318 "},"5":{"ha":628,"x_min":17,"x_max":610,"o":"m 17 175 q 50 255 17 226 q 132 283 83 283 q 189 260 168 283 q 210 201 210 238 q 199 156 210 176 q 169 124 188 136 q 128 107 151 111 q 78 108 104 103 l 74 101 q 122 57 99 74 q 172 32 146 40 q 228 21 197 24 q 297 18 258 18 q 356 35 326 18 q 407 77 385 51 q 443 134 429 103 q 457 193 457 165 l 457 340 q 453 345 456 342 q 451 350 451 349 q 437 400 443 376 q 419 443 431 424 q 390 477 408 463 q 343 503 372 492 q 310 515 328 510 q 274 519 293 519 q 141 480 194 519 q 85 357 88 440 q 79 353 83 356 q 74 350 75 351 l 69 350 q 57 359 58 350 q 56 375 56 368 q 58 401 56 390 q 67 431 60 413 l 67 781 q 74 785 67 785 q 83 785 82 785 q 144 780 111 785 q 203 768 176 775 l 372 768 q 411 779 392 768 q 448 804 431 790 q 479 829 465 818 q 503 840 493 840 q 485 771 503 807 q 438 703 467 735 q 376 651 410 672 q 310 626 342 629 q 277 627 300 626 q 228 628 254 628 q 180 627 203 628 q 147 626 157 626 q 121 625 140 626 q 94 622 101 624 q 85 614 86 618 q 85 603 85 610 l 85 593 q 85 570 85 586 q 87 537 86 554 q 89 503 88 519 q 90 481 90 486 l 99 481 q 143 499 121 481 q 186 525 165 517 q 238 540 211 536 q 293 543 265 543 q 403 528 347 543 q 506 485 460 514 q 581 410 551 456 q 610 301 610 364 q 581 169 610 226 q 502 73 551 111 q 389 15 453 35 q 256 -6 325 -6 q 175 6 217 -6 q 98 41 133 18 q 40 97 63 64 q 17 175 17 131 "},"6":{"ha":661,"x_min":17,"x_max":643,"o":"m 17 376 q 41 526 17 451 q 110 662 65 601 q 220 760 156 722 q 365 797 285 797 q 433 790 399 797 q 496 765 468 782 q 541 722 524 749 q 558 656 558 694 q 531 565 558 593 q 440 536 504 536 q 410 544 425 536 q 383 564 394 551 q 363 592 371 576 q 356 624 356 608 q 365 659 356 643 q 391 685 375 675 q 426 701 407 696 q 461 707 444 707 q 469 706 464 707 q 474 706 474 706 q 485 703 475 706 q 497 700 494 700 q 499 701 497 700 q 501 706 501 703 l 501 708 q 485 738 501 725 q 445 758 468 750 q 399 769 422 765 q 364 774 376 774 q 303 766 333 774 q 249 742 274 758 q 208 701 225 726 q 186 643 190 676 q 180 542 179 597 q 181 442 181 488 l 181 424 l 192 411 q 274 469 224 451 q 372 486 324 486 q 468 472 419 486 q 556 429 517 457 q 619 360 594 401 q 643 267 643 319 q 619 157 643 207 q 554 71 594 107 q 461 15 514 35 q 351 -6 408 -6 q 228 17 282 -6 q 134 81 174 40 q 68 178 94 122 q 28 300 42 233 q 21 338 25 318 q 17 376 17 358 m 181 251 q 185 162 181 204 q 208 87 190 119 q 258 35 225 54 q 347 17 290 17 q 426 34 399 17 q 467 82 454 51 q 483 151 481 113 q 485 235 485 190 q 479 309 485 269 q 458 382 474 349 q 415 437 443 415 q 343 458 388 458 q 255 443 288 458 q 206 401 222 428 q 185 335 189 374 q 181 251 181 297 "},"7":{"ha":560,"x_min":17,"x_max":543,"o":"m 135 133 q 166 260 135 203 q 236 374 197 317 q 297 431 264 406 q 363 481 331 456 q 424 536 394 507 q 474 606 453 565 q 485 631 476 613 q 497 656 494 650 l 497 661 q 490 672 497 669 q 419 626 454 642 q 339 610 383 610 q 298 610 319 610 q 258 622 276 611 q 203 657 233 636 q 142 678 174 678 q 74 653 96 678 q 44 599 53 628 q 34 544 36 569 q 25 519 32 519 l 22 519 q 19 562 19 543 q 17 599 18 581 q 17 635 17 617 q 17 676 17 654 l 17 740 q 19 767 17 750 q 22 785 22 785 l 33 785 l 33 689 l 44 678 q 46 677 44 678 q 49 676 47 676 l 50 678 q 88 717 67 696 q 133 756 110 738 q 183 785 157 774 q 236 797 210 797 q 303 782 275 797 q 355 749 332 767 q 397 715 378 731 q 436 700 415 700 q 490 717 474 700 q 513 753 506 733 q 525 789 521 772 q 543 806 529 806 q 510 638 543 718 q 428 486 476 557 q 382 422 404 453 q 342 358 360 390 q 313 289 324 325 q 303 208 303 253 q 306 152 303 179 q 310 97 310 125 q 286 21 310 53 q 217 -11 263 -11 q 174 3 190 -11 q 149 40 158 18 q 138 87 140 61 q 135 133 135 113 "},"8":{"ha":685,"x_min":17,"x_max":667,"o":"m 85 68 q 37 125 57 93 q 17 197 17 157 q 40 274 17 239 q 93 333 64 308 q 146 370 122 357 q 169 385 169 383 q 150 406 169 390 q 107 444 131 421 q 64 498 83 467 q 44 568 44 529 q 63 665 44 625 q 113 733 81 706 q 188 778 144 761 q 282 803 232 794 q 291 804 283 803 q 307 808 299 806 q 323 812 315 810 q 333 814 331 814 q 337 815 333 814 q 343 815 340 815 q 435 803 388 815 q 524 767 483 792 q 590 705 564 743 q 615 614 615 667 q 606 569 615 590 q 583 529 597 547 q 550 496 568 511 q 514 469 532 481 q 501 466 508 467 q 492 458 494 465 l 501 447 q 562 415 532 432 q 615 374 592 397 q 653 323 639 351 q 667 256 667 294 q 638 128 667 181 q 563 42 610 75 q 453 -7 515 8 q 324 -22 390 -22 q 278 -19 303 -22 q 229 -9 254 -15 q 181 7 204 -3 q 142 28 158 17 q 114 50 126 39 q 85 68 101 61 m 94 197 q 115 116 94 151 q 169 56 136 81 q 244 19 203 32 q 326 7 286 7 q 410 15 365 7 q 494 42 456 22 q 557 93 532 61 q 582 174 582 125 q 556 240 582 213 q 492 288 529 268 q 415 319 456 307 q 344 340 374 332 q 316 341 331 338 q 286 351 301 344 q 256 363 271 357 q 228 368 242 368 q 213 364 221 368 q 197 357 204 360 q 122 292 149 329 q 94 197 94 256 m 135 622 q 140 614 136 619 q 147 606 144 608 q 153 594 149 603 q 158 583 157 585 q 213 535 181 554 q 283 505 246 517 q 357 485 319 493 q 428 469 394 478 q 435 469 431 469 q 442 468 439 468 q 479 483 461 468 q 511 518 497 497 q 533 562 525 539 q 542 601 542 585 q 528 672 542 639 q 492 731 515 706 q 438 772 469 757 q 368 786 406 786 q 295 781 336 786 q 219 760 254 775 q 159 718 183 744 q 135 650 135 692 l 135 622 "},"9":{"ha":657,"x_min":17,"x_max":639,"o":"m 100 150 q 122 214 100 192 q 181 256 144 236 l 189 256 q 268 235 236 256 q 300 165 300 215 q 219 85 300 85 q 194 85 204 85 q 168 92 183 86 l 164 86 q 172 72 161 83 q 186 58 183 60 q 242 27 215 38 q 306 17 269 17 q 322 17 313 17 q 333 18 332 18 q 424 54 393 28 q 467 118 454 81 q 480 202 479 156 q 481 299 481 249 l 481 368 q 476 372 478 369 q 474 374 475 374 l 472 375 q 469 374 469 375 q 468 374 468 374 q 387 324 428 347 q 294 300 346 300 q 196 314 246 300 q 106 356 146 328 q 42 425 67 383 q 17 522 17 467 q 44 647 17 594 q 118 735 72 700 q 224 786 164 769 q 350 803 285 803 q 449 776 404 803 q 530 708 494 750 q 590 617 565 667 q 626 519 614 567 q 638 443 638 482 q 639 364 639 404 q 624 282 639 324 q 593 206 608 240 q 547 124 575 163 q 483 55 519 85 q 403 8 446 25 q 310 -10 360 -10 q 237 0 274 -10 q 169 29 200 10 q 119 79 139 49 q 100 150 100 110 m 178 581 q 181 500 178 539 q 195 428 183 461 q 231 369 207 394 q 299 328 256 343 l 301 328 q 334 331 317 328 q 367 340 351 335 q 431 373 408 354 q 465 417 454 392 q 478 474 476 442 q 481 547 481 507 q 477 617 481 578 q 460 692 474 657 q 422 751 447 728 q 353 775 396 775 q 294 771 324 775 q 240 755 264 767 q 199 721 215 743 q 181 661 182 699 q 180 645 181 657 q 179 621 179 633 q 178 597 179 608 q 178 581 178 585 "}," ":{"ha":501,"x_min":0,"x_max":0,"o":""},"!":{"ha":458,"x_min":15,"x_max":440,"o":"m 15 65 q 43 122 15 103 q 107 142 71 142 q 165 125 143 142 q 186 72 186 108 q 140 0 186 24 l 103 0 q 71 3 86 0 q 43 13 56 6 q 23 32 31 19 q 15 65 15 44 m 33 232 q 34 249 33 236 q 35 276 35 263 q 34 304 35 292 q 33 322 33 317 q 31 333 33 324 q 28 343 28 342 l 28 347 l 28 350 q 29 408 28 368 q 32 497 31 447 q 35 603 33 547 q 38 708 36 658 q 40 798 39 758 q 40 857 40 838 q 67 949 49 906 q 114 1024 85 992 q 184 1074 143 1056 q 278 1093 225 1093 q 394 1052 349 1093 q 440 940 440 1011 q 409 877 440 897 q 340 857 378 857 q 253 950 253 857 q 264 987 253 972 q 292 1010 275 1001 q 328 1022 308 1018 q 367 1025 349 1025 l 367 1032 q 356 1051 367 1044 q 332 1060 346 1057 q 303 1065 318 1064 q 282 1065 289 1065 q 210 1048 235 1065 q 176 1002 186 1031 q 165 937 165 974 q 164 861 164 900 l 164 776 l 164 682 q 165 630 164 667 q 166 552 165 593 q 167 474 167 511 q 168 424 168 438 q 179 399 171 411 q 197 377 188 388 q 213 359 206 367 q 219 347 219 351 l 219 339 q 172 305 192 318 q 136 279 153 292 q 103 249 119 267 q 67 203 88 232 q 61 197 67 200 l 58 197 q 42 212 50 197 q 33 232 35 226 "},"\"":{"ha":435,"x_min":17,"x_max":417,"o":"m 17 765 q 26 785 17 775 q 47 805 36 794 q 68 826 58 815 q 78 850 78 838 q 69 885 78 869 q 52 914 61 901 q 35 937 43 926 q 26 958 26 947 q 38 990 26 971 q 65 1028 49 1010 q 96 1059 81 1046 q 119 1072 111 1072 l 124 1072 q 172 1024 147 1050 q 197 961 197 997 q 194 937 197 949 q 185 915 192 925 q 177 905 183 913 q 163 889 171 897 q 149 873 156 881 q 140 864 142 865 q 119 838 133 856 q 86 802 104 819 q 51 771 68 785 q 25 757 35 757 l 22 757 l 17 761 l 17 765 m 235 769 q 244 790 235 781 q 267 810 254 800 q 289 832 279 821 q 299 857 299 843 q 290 892 299 876 q 273 919 282 907 q 256 943 264 932 q 247 965 247 954 q 258 997 247 978 q 285 1035 269 1017 q 315 1065 300 1053 q 340 1078 331 1078 q 341 1077 340 1078 q 343 1076 342 1076 q 367 1055 354 1067 q 392 1030 381 1043 q 410 1001 403 1017 q 417 968 417 986 q 415 943 417 956 q 406 919 413 931 q 397 910 404 918 q 383 894 390 903 q 368 878 375 886 q 360 869 361 871 q 338 844 353 861 q 306 808 324 826 q 272 775 289 789 q 244 761 254 761 l 242 761 q 238 765 240 764 q 236 768 236 767 l 235 769 "},"'":{"ha":215,"x_min":17,"x_max":197,"o":"m 17 768 q 26 789 17 779 q 47 808 36 799 q 68 829 58 818 q 78 853 78 840 q 69 889 78 874 q 52 917 61 904 q 35 940 43 929 q 26 961 26 950 q 38 994 26 975 q 65 1031 49 1013 q 96 1061 81 1049 q 119 1074 111 1074 l 124 1074 q 147 1052 135 1064 q 171 1026 160 1040 q 190 997 182 1013 q 197 965 197 982 q 194 940 197 953 q 185 917 192 928 q 177 907 183 914 q 163 892 171 900 q 149 876 156 883 q 140 867 142 868 q 118 840 133 858 q 85 805 103 822 q 51 774 68 788 q 25 760 35 760 l 22 760 l 17 765 l 17 768 "},",":{"ha":215,"x_min":17,"x_max":197,"o":"m 17 -156 q 26 -135 17 -144 q 47 -115 36 -125 q 68 -94 58 -106 q 78 -69 78 -83 q 69 -35 78 -50 q 52 -7 61 -19 q 35 17 43 6 q 26 39 26 28 q 38 71 26 51 q 65 108 49 90 q 96 138 81 125 q 119 150 111 150 l 124 150 q 147 128 135 140 q 171 103 160 117 q 190 75 182 90 q 197 42 197 60 q 194 17 197 29 q 185 -7 192 4 q 177 -16 183 -8 q 163 -32 171 -24 q 149 -48 156 -40 q 140 -57 142 -56 q 118 -83 133 -65 q 85 -118 103 -100 q 51 -150 68 -136 q 25 -164 35 -164 l 22 -164 l 17 -158 l 17 -156 "},"-":{"ha":751,"x_min":15,"x_max":733,"o":"m 411 481 l 114 481 q 63 471 86 481 q 15 461 40 461 q 22 479 15 472 q 36 492 28 486 q 52 503 44 497 q 61 519 60 510 q 63 528 63 522 q 63 542 63 535 q 66 553 64 549 q 75 558 68 558 l 78 558 q 104 551 85 557 q 131 542 124 544 q 164 536 140 539 q 215 530 188 533 q 265 524 242 526 q 299 519 289 521 q 321 518 301 518 q 353 518 342 518 q 540 533 447 518 q 726 549 633 549 l 733 549 q 718 530 731 535 q 699 514 706 525 q 694 499 696 510 q 690 478 692 489 q 683 460 688 468 q 674 451 679 451 l 669 451 q 605 457 638 456 q 540 460 572 458 q 474 467 507 463 q 411 481 442 471 "},".":{"ha":203,"x_min":15,"x_max":185,"o":"m 15 64 q 43 122 15 103 q 107 140 71 140 q 164 124 143 140 q 185 72 185 108 q 140 0 185 25 l 103 0 q 71 3 86 0 q 43 13 56 6 q 23 32 31 19 q 15 64 15 44 "},":":{"ha":203,"x_min":15,"x_max":185,"o":"m 15 64 q 43 122 15 103 q 107 140 71 140 q 164 124 143 140 q 185 72 185 108 q 140 0 185 25 l 103 0 q 71 3 86 0 q 43 13 56 6 q 23 32 31 19 q 15 64 15 44 m 15 550 q 43 608 15 589 q 107 626 71 626 q 164 610 143 626 q 185 558 185 594 q 140 486 185 511 l 103 486 q 43 499 71 486 q 15 550 15 511 "},";":{"ha":222,"x_min":17,"x_max":203,"o":"m 17 -160 q 26 -139 17 -149 q 47 -119 36 -129 q 68 -99 58 -110 q 78 -74 78 -87 q 69 -37 78 -53 q 52 -10 61 -22 q 35 13 43 3 q 26 35 26 24 q 38 67 26 47 q 65 104 49 86 q 97 135 81 122 q 122 149 113 149 l 124 147 q 173 100 147 126 q 199 39 199 74 q 185 -10 199 13 q 177 -20 183 -12 q 163 -36 171 -28 q 149 -52 156 -44 q 140 -61 142 -60 q 119 -87 133 -69 q 86 -123 104 -106 q 51 -154 68 -140 q 25 -168 35 -168 l 22 -168 l 17 -164 l 17 -160 m 33 557 q 60 614 33 594 q 124 633 88 633 q 181 617 160 633 q 203 564 203 600 q 158 492 203 517 q 139 491 153 492 q 122 490 125 490 q 60 503 88 490 q 33 557 33 517 "},"?":{"ha":606,"x_min":15,"x_max":586,"o":"m 201 65 q 230 122 201 103 q 293 142 258 142 q 351 125 329 142 q 372 72 372 108 q 326 0 372 22 l 290 0 q 258 3 274 0 q 229 13 242 6 q 209 32 217 19 q 201 65 201 44 m 190 311 q 209 400 190 360 q 256 476 228 440 q 317 544 285 511 q 378 615 350 578 q 426 696 407 653 q 444 794 444 739 q 431 863 444 831 q 395 918 418 894 q 342 956 372 942 q 276 969 311 969 q 250 969 267 969 q 220 967 235 969 q 195 956 206 964 q 185 935 185 949 q 194 903 185 915 q 224 890 204 890 q 244 893 236 890 q 261 899 253 896 q 278 904 269 901 q 301 907 288 907 q 282 858 301 882 q 235 817 263 835 q 179 788 208 799 q 131 776 150 776 q 113 776 126 776 q 94 778 99 776 q 73 799 86 788 q 47 821 60 810 q 25 844 35 832 q 15 872 15 857 q 16 880 15 875 q 17 885 17 885 q 28 890 18 886 q 40 897 38 894 q 94 934 68 914 q 151 969 121 954 q 168 976 156 971 q 195 988 181 982 q 223 1000 210 994 q 242 1008 236 1006 q 250 1010 243 1008 q 265 1014 257 1013 q 278 1017 272 1015 q 286 1019 285 1019 q 317 1035 300 1024 q 350 1060 333 1047 q 383 1081 367 1072 q 411 1090 399 1090 q 419 1090 414 1090 q 428 1089 425 1089 q 487 1033 458 1056 q 538 985 515 1010 q 573 928 560 961 q 586 839 586 894 q 553 717 586 768 q 474 622 521 665 q 375 538 426 578 q 286 451 324 497 q 274 438 282 444 q 265 419 265 431 q 270 402 265 411 q 282 389 275 393 q 376 367 329 389 q 383 344 383 360 q 383 325 383 331 q 367 270 383 289 q 322 236 351 251 l 282 236 q 217 251 243 236 q 190 311 190 265 "},"A":{"ha":1210,"x_min":17,"x_max":1192,"o":"m 17 19 q 42 92 17 61 q 94 147 68 122 q 197 212 143 192 q 310 249 250 232 q 339 287 328 261 q 350 333 350 313 l 350 503 l 343 515 l 343 639 q 353 679 343 657 q 378 724 363 701 q 411 764 393 746 q 444 792 429 782 q 483 814 460 800 q 523 837 507 828 q 542 847 539 846 l 542 858 q 449 853 496 858 q 356 847 403 847 q 258 858 306 847 q 174 892 211 868 q 115 954 138 915 q 93 1050 93 993 l 101 1050 q 129 1009 111 1024 q 170 987 147 994 q 219 978 193 979 q 269 976 244 976 q 368 982 319 976 q 466 994 417 988 q 565 1006 515 1000 q 664 1011 614 1011 q 756 1003 708 1011 q 846 975 803 994 q 924 924 889 956 q 976 847 958 893 q 981 834 978 844 q 988 811 985 824 q 995 788 992 799 q 999 774 999 776 q 1001 769 1000 772 q 1006 764 1003 765 l 1017 272 q 1024 232 1017 254 q 1043 190 1031 210 q 1073 156 1056 169 q 1110 142 1090 142 q 1126 142 1119 142 q 1140 147 1133 142 q 1149 155 1143 149 q 1163 169 1156 161 q 1176 183 1169 176 q 1185 193 1182 190 l 1192 193 l 1192 182 q 1184 172 1192 182 q 1165 150 1176 163 q 1142 124 1154 138 q 1124 101 1131 110 q 1109 88 1121 100 q 1094 74 1097 76 q 1085 64 1092 71 q 1073 49 1079 57 q 1062 35 1067 42 q 1056 28 1057 29 q 1043 7 1049 19 q 1022 -6 1038 -6 q 992 4 1007 -6 q 965 24 978 14 q 887 97 918 57 q 851 199 856 138 q 849 247 851 213 q 846 320 847 282 q 843 393 844 358 q 842 442 842 428 q 806 462 828 460 q 765 464 785 464 q 737 463 754 464 q 704 456 719 461 q 678 440 689 450 q 667 414 667 431 l 667 232 l 492 57 q 485 49 490 57 q 472 31 479 40 q 459 13 465 21 q 451 6 453 6 q 444 7 447 6 q 386 55 415 32 q 326 96 357 78 q 259 125 294 114 q 183 136 224 136 q 132 128 160 136 q 81 104 104 119 q 43 67 58 89 q 28 17 28 44 q 63 -72 28 -36 q 149 -131 99 -108 q 252 -162 199 -153 q 343 -172 306 -172 q 356 -172 347 -172 q 375 -170 365 -171 q 394 -169 385 -169 q 407 -168 403 -168 q 514 -121 471 -149 q 603 -44 557 -93 q 630 -13 618 -31 q 643 24 642 4 l 657 24 q 639 -29 657 -4 q 603 -74 621 -54 q 549 -126 579 -101 q 483 -169 518 -150 q 410 -198 447 -187 q 335 -208 372 -208 q 259 -199 301 -208 q 174 -174 217 -190 q 96 -133 132 -157 q 40 -78 60 -108 q 21 -31 25 -57 q 17 19 17 -6 m 356 247 q 363 238 356 240 q 381 233 371 235 q 399 233 390 232 q 411 232 408 233 q 465 213 446 222 q 514 186 485 204 q 535 171 521 183 q 557 158 550 158 l 558 158 q 575 173 564 163 q 599 194 586 183 q 623 217 611 206 q 639 232 635 228 q 647 244 640 235 q 656 256 653 253 l 656 382 q 653 569 656 476 q 649 757 651 663 q 648 773 649 761 q 647 799 647 785 q 644 824 646 813 q 643 842 643 836 l 632 853 l 631 853 q 583 842 606 853 q 544 815 561 832 q 518 774 528 797 q 508 728 508 751 l 508 424 q 485 358 508 388 q 432 307 461 329 q 379 270 403 285 q 356 247 356 256 m 667 565 q 683 549 672 554 q 708 542 694 543 q 734 541 721 540 q 757 542 747 542 q 779 542 763 542 q 801 543 796 542 q 824 550 807 544 q 842 565 842 556 l 842 718 q 839 727 842 718 q 835 740 836 736 q 832 750 833 743 q 831 757 831 757 q 778 830 807 800 q 697 860 749 860 q 685 859 694 860 q 672 858 675 858 q 663 848 665 856 q 660 830 661 840 q 659 809 658 819 q 660 793 660 799 l 660 764 q 661 724 660 753 q 663 664 663 696 q 665 604 664 632 q 667 565 667 576 "},"C":{"ha":1011,"x_min":17,"x_max":994,"o":"m 107 86 q 116 127 107 108 q 125 165 125 146 q 124 173 125 168 q 124 181 124 178 q 87 233 106 203 q 52 296 68 263 q 26 363 36 329 q 17 428 17 397 l 17 608 q 28 666 17 638 q 57 722 40 694 q 91 776 74 750 q 118 828 108 803 q 180 890 146 858 q 252 947 214 921 q 332 989 290 972 q 418 1006 374 1006 q 418 1001 418 1006 q 417 999 418 999 q 406 986 414 992 q 387 976 397 981 q 366 969 376 972 q 350 964 356 965 q 265 903 300 942 q 207 818 229 865 q 174 718 185 771 q 164 614 164 665 q 169 531 164 575 q 185 445 174 488 q 217 365 197 403 q 269 299 238 326 l 274 299 q 299 306 282 299 q 322 315 315 313 q 377 333 350 326 q 436 339 404 339 q 499 317 472 339 q 553 275 525 294 l 556 275 q 574 289 565 275 q 588 321 582 303 q 596 356 593 339 q 599 381 599 374 q 580 440 599 414 q 534 490 561 465 q 474 538 507 514 q 415 592 442 563 q 369 660 388 622 q 350 747 350 697 q 376 862 350 818 q 444 937 403 906 q 537 991 486 968 q 636 1043 588 1014 q 649 1051 646 1049 q 655 1055 653 1053 q 660 1060 657 1057 q 672 1072 664 1064 q 692 1090 679 1079 q 706 1100 706 1100 l 710 1100 q 727 1065 717 1083 q 751 1032 738 1047 q 783 1007 765 1017 q 819 997 800 997 q 870 1013 850 997 q 903 1045 890 1028 q 922 1078 915 1063 q 933 1093 928 1093 l 936 1093 q 939 1092 936 1093 q 942 1089 942 1090 l 942 1085 q 922 1018 942 1051 q 874 959 903 985 q 809 917 844 933 q 742 901 774 901 q 692 906 714 901 q 652 921 671 911 q 617 946 633 931 q 582 982 600 961 l 572 982 q 531 969 549 982 q 501 938 513 957 q 483 897 489 919 q 478 856 478 875 q 498 791 478 819 q 542 739 518 763 q 568 712 549 731 q 609 672 588 693 q 649 633 631 651 q 676 608 668 615 q 683 599 678 606 q 694 583 689 592 q 703 568 699 575 q 710 558 708 561 q 714 551 711 556 q 717 547 717 547 l 717 444 q 693 379 717 419 q 635 301 669 339 q 564 236 601 264 q 499 208 526 208 l 490 208 q 420 266 456 246 q 332 286 385 286 q 312 285 325 286 q 299 274 299 283 l 299 269 q 366 213 324 238 q 456 173 408 189 q 553 149 504 157 q 640 140 601 140 q 676 141 650 140 q 732 144 703 142 q 784 153 761 147 q 811 168 807 158 q 819 264 819 210 q 818 356 818 318 l 818 478 q 800 492 806 486 q 794 510 794 499 q 806 531 794 524 q 818 553 818 539 q 809 695 818 625 q 800 836 800 765 q 826 864 800 864 q 833 864 828 864 q 840 861 839 864 q 851 832 851 850 q 851 799 851 814 q 846 692 851 744 q 840 586 840 639 l 840 547 q 865 514 865 532 q 860 500 865 506 q 850 490 856 494 q 840 480 844 485 q 835 468 835 475 l 835 185 q 840 181 835 182 q 847 181 844 181 q 876 189 860 181 q 901 208 893 197 q 918 224 907 213 q 942 247 929 235 q 966 271 954 260 q 982 286 978 282 l 994 286 q 990 269 994 278 q 982 253 985 261 q 903 146 944 193 q 815 66 863 99 q 710 16 767 33 q 582 -1 653 -1 q 422 14 506 -1 q 269 67 338 29 q 212 108 240 85 q 151 147 183 131 l 150 147 q 137 139 142 147 q 128 120 132 131 q 124 99 125 110 q 124 82 124 88 q 160 -52 124 1 q 255 -138 197 -106 q 383 -185 313 -171 q 519 -199 453 -199 q 592 -194 556 -199 q 660 -169 628 -190 q 707 -139 678 -158 q 756 -101 736 -119 q 785 -75 775 -83 q 807 -47 796 -67 q 813 -35 813 -37 q 825 -32 814 -32 q 816 -60 825 -44 q 794 -88 807 -75 q 769 -113 782 -101 q 750 -131 757 -125 q 732 -145 744 -135 q 705 -167 719 -156 q 678 -189 690 -179 q 660 -203 665 -199 q 565 -237 614 -231 q 465 -243 517 -243 l 400 -243 q 284 -201 338 -229 q 191 -132 231 -174 q 129 -35 151 -90 q 107 86 107 19 "},"D":{"ha":1136,"x_min":17,"x_max":1118,"o":"m 17 -14 q 17 28 17 1 q 22 67 18 54 q 85 159 42 119 q 181 224 128 199 q 293 263 235 250 q 403 276 351 276 q 506 267 461 276 q 588 240 550 258 q 661 192 626 221 q 733 124 696 164 l 740 124 q 789 138 765 124 q 831 168 813 153 q 931 323 903 236 q 960 510 960 410 q 942 674 960 600 q 882 799 924 747 q 773 880 840 851 q 608 908 706 908 l 569 908 q 522 908 556 908 q 449 906 488 907 q 375 903 410 904 q 326 903 340 903 q 319 900 325 901 q 310 897 313 899 l 306 897 q 208 906 257 897 q 119 938 158 915 q 56 998 81 960 q 32 1094 32 1036 l 44 1094 q 95 1043 64 1060 q 167 1026 126 1026 l 197 1026 q 219 1028 203 1026 q 251 1033 235 1031 q 283 1036 268 1035 q 306 1039 299 1038 q 326 1049 314 1047 q 350 1051 338 1051 q 376 1050 363 1051 q 400 1050 389 1049 q 430 1053 406 1050 q 483 1058 454 1056 q 535 1064 511 1061 q 565 1067 558 1067 l 590 1067 q 646 1065 613 1067 q 715 1060 679 1064 q 783 1049 750 1056 q 842 1033 817 1043 q 963 956 911 1004 q 1050 847 1015 907 q 1100 717 1085 786 q 1111 575 1115 647 q 1115 569 1114 574 q 1118 564 1117 565 l 1118 561 q 1053 329 1118 433 q 881 164 989 225 q 865 155 878 161 q 835 140 851 149 q 803 124 819 132 q 778 111 786 115 q 765 106 775 110 q 750 101 754 103 q 674 56 708 86 q 610 -7 640 25 l 607 -7 q 596 1 603 -7 q 582 18 589 8 q 569 38 575 28 q 558 50 563 47 q 413 139 490 108 q 244 169 335 169 q 166 158 204 169 q 97 125 128 147 q 47 69 65 103 q 28 -10 28 36 q 56 -95 28 -56 q 128 -164 85 -135 q 219 -210 171 -193 q 310 -226 268 -226 l 485 -226 q 557 -210 521 -226 q 626 -171 593 -194 q 689 -119 660 -147 q 740 -68 718 -92 l 751 -68 q 750 -74 751 -74 q 724 -110 743 -92 q 694 -136 704 -128 q 544 -237 622 -201 q 369 -272 467 -272 q 253 -256 315 -272 q 139 -206 192 -239 q 51 -126 86 -174 q 17 -14 17 -78 m 407 314 q 422 325 407 318 q 455 344 438 332 q 488 376 472 357 q 503 425 503 396 q 483 478 503 456 q 438 526 463 501 q 392 582 413 551 q 372 660 372 613 q 385 719 372 685 q 417 787 397 754 q 463 842 438 819 q 515 865 489 865 q 510 851 515 857 q 500 840 506 846 q 490 830 494 835 q 485 818 485 825 l 485 750 q 490 742 485 749 q 497 733 494 736 q 542 688 521 708 q 580 645 564 667 q 606 597 596 624 q 615 535 615 571 q 599 459 615 500 q 553 383 582 418 q 490 326 525 349 q 417 303 454 303 q 407 314 407 303 "},"E":{"ha":1044,"x_min":17,"x_max":1028,"o":"m 101 101 q 110 144 101 125 q 118 185 118 164 l 118 200 q 56 308 85 253 q 22 431 26 364 q 22 450 22 432 q 20 491 21 468 q 18 538 19 514 q 17 576 17 563 l 17 583 q 31 660 17 618 q 66 743 44 703 q 113 819 88 783 q 164 876 139 854 q 206 911 179 890 q 265 951 233 932 q 327 983 296 969 q 383 997 358 997 l 383 983 q 214 831 264 928 q 164 606 164 733 q 169 534 164 576 q 186 448 175 492 q 215 367 197 404 q 258 311 233 329 l 268 311 q 298 322 283 311 q 326 335 313 332 q 357 340 344 339 q 386 340 369 340 q 427 339 406 340 q 468 328 449 338 q 479 323 471 326 q 497 315 488 319 q 513 306 506 311 q 525 300 521 301 q 535 292 526 300 q 547 283 544 285 l 551 283 q 577 294 567 283 q 594 319 588 304 q 605 349 601 333 q 608 376 608 365 q 603 413 608 394 q 586 447 597 432 q 515 513 554 481 q 443 583 476 546 q 388 662 410 619 q 365 757 365 704 q 394 860 365 818 q 465 935 422 903 q 557 994 507 968 q 649 1050 607 1021 q 659 1059 653 1053 q 673 1072 665 1065 q 689 1085 681 1079 q 706 1090 697 1090 l 710 1090 q 726 1069 715 1083 q 751 1042 738 1056 q 776 1017 764 1028 q 794 1006 788 1006 l 868 1006 q 890 1015 882 1006 q 906 1038 899 1025 q 922 1060 914 1050 q 943 1069 931 1069 q 928 1028 943 1053 q 893 981 914 1004 q 851 940 872 958 q 817 915 829 922 q 783 903 797 904 q 747 903 768 903 q 663 924 694 903 q 597 983 632 944 l 581 983 q 570 976 579 982 q 549 959 561 969 q 531 943 536 949 q 496 903 508 925 q 483 851 483 881 q 502 788 483 817 q 548 733 521 758 q 603 684 575 707 q 653 639 632 661 l 669 639 q 690 670 679 658 q 717 694 701 682 q 739 707 724 701 q 770 718 754 713 q 799 728 786 724 q 811 740 811 733 l 811 876 l 817 882 l 819 882 l 824 882 l 835 740 q 850 725 835 733 q 883 705 865 717 q 915 678 900 693 q 931 644 931 663 l 931 572 q 928 565 931 569 q 925 560 926 561 q 900 538 914 546 q 872 523 886 529 q 848 511 858 517 q 835 499 838 506 q 833 479 835 493 q 831 450 832 465 q 828 421 829 435 q 828 401 828 407 l 828 369 l 828 335 q 830 308 829 328 q 832 267 831 289 q 834 226 833 246 q 835 200 835 207 q 844 193 836 193 q 874 201 858 193 q 905 220 890 208 q 932 244 919 232 q 953 267 944 257 q 964 279 957 271 q 978 296 971 288 q 992 310 986 304 q 999 318 997 317 q 1004 331 1003 324 q 1008 344 1006 338 q 1014 356 1010 351 q 1028 361 1018 361 q 1011 289 1028 324 q 975 222 994 254 q 896 124 942 165 q 795 53 850 82 q 678 11 740 25 q 553 -3 617 -3 q 442 7 499 -3 q 333 37 386 17 q 231 88 279 57 q 147 160 183 118 l 140 160 q 128 152 132 160 q 122 135 124 144 q 119 115 119 125 q 118 99 118 104 q 152 -33 118 21 q 240 -121 186 -87 q 360 -169 293 -154 q 493 -185 426 -185 l 569 -185 q 625 -165 597 -174 q 679 -144 653 -156 q 729 -117 706 -133 q 772 -72 753 -100 q 783 -55 776 -67 q 799 -31 790 -43 q 814 -8 807 -18 q 824 7 821 3 q 831 25 831 19 q 847 32 831 32 q 839 2 847 18 q 824 -26 831 -14 q 763 -109 797 -71 q 687 -175 728 -147 q 598 -219 646 -203 q 497 -235 550 -235 q 352 -212 424 -235 q 225 -148 281 -190 q 135 -43 169 -106 q 101 101 101 19 m 282 278 q 351 217 311 243 q 435 172 390 190 q 526 145 479 154 q 617 136 572 136 l 676 136 q 690 140 678 138 q 715 144 701 142 q 744 149 729 147 q 767 153 758 151 q 777 157 769 154 q 792 163 785 160 q 806 169 800 165 q 811 176 811 172 l 811 499 q 769 544 783 524 q 756 601 756 564 q 765 635 756 622 q 787 656 775 647 q 808 669 799 664 q 818 682 818 675 l 817 683 q 807 692 814 689 q 792 695 800 694 q 778 695 785 696 q 772 694 772 694 q 742 687 757 694 q 714 668 726 679 q 694 642 701 657 q 686 614 686 628 q 686 606 686 611 q 689 600 686 600 q 693 589 689 597 q 702 571 697 581 q 711 553 707 561 q 717 543 715 544 q 722 510 721 531 q 722 475 722 490 q 708 406 722 439 q 669 346 693 374 q 617 295 646 318 q 558 256 588 272 q 542 248 551 253 q 524 238 533 243 q 508 230 515 233 q 501 226 501 226 l 485 226 q 421 285 457 258 q 340 311 385 311 q 324 310 333 311 q 305 305 314 308 q 289 296 296 301 q 282 283 282 290 l 282 278 "},"F":{"ha":1147,"x_min":17,"x_max":1128,"o":"m 22 -40 q 63 81 22 28 q 163 169 103 133 q 292 224 224 206 q 419 242 361 242 l 424 242 q 444 240 429 242 q 476 237 460 239 q 508 233 493 235 q 531 232 524 232 q 615 190 576 215 q 689 131 653 164 l 690 131 q 723 144 708 131 q 747 176 738 157 q 762 214 757 194 q 767 247 767 233 q 748 310 767 283 q 701 360 729 338 q 639 406 672 383 q 577 455 606 428 q 530 516 549 482 q 511 597 511 550 q 532 680 511 642 q 581 750 553 718 q 601 767 589 760 q 626 783 614 775 q 647 800 638 792 q 656 819 656 808 q 655 828 656 824 q 649 835 654 833 q 567 878 611 853 q 478 928 524 904 q 386 969 432 953 q 299 986 340 986 q 208 975 256 986 q 122 941 161 964 q 58 883 83 918 q 33 797 33 847 q 50 721 33 754 q 95 665 67 688 q 161 631 124 643 q 239 619 199 619 q 343 638 292 619 q 428 700 394 656 q 453 742 446 724 q 474 783 460 760 l 476 785 l 478 783 q 485 778 485 783 l 485 775 q 476 749 485 767 q 461 722 467 731 q 363 618 422 656 q 225 581 303 581 q 141 599 179 581 q 75 647 103 617 q 32 717 47 678 q 17 800 17 757 q 60 922 17 872 q 169 1003 104 972 q 305 1047 233 1033 q 433 1060 376 1060 l 514 1060 q 634 1026 575 1049 q 750 975 693 1004 q 799 948 772 964 q 853 917 825 932 q 911 892 882 903 q 968 881 940 881 q 1001 885 983 881 q 1035 897 1019 889 q 1062 919 1051 906 q 1072 953 1072 933 q 1064 973 1072 967 q 1046 983 1056 979 q 1028 992 1036 988 q 1019 1010 1019 997 q 1040 1032 1019 1032 q 1080 1012 1067 1032 q 1093 967 1093 992 q 1082 919 1093 944 q 1053 871 1071 894 q 1014 828 1035 847 q 975 800 993 810 q 922 785 947 786 q 865 783 896 783 q 781 795 821 783 q 699 807 742 807 q 672 797 683 807 q 652 774 660 788 q 640 744 644 760 q 636 715 636 728 q 649 656 636 681 q 683 613 663 632 q 731 578 704 593 q 783 547 757 563 q 792 541 786 546 q 803 531 797 536 q 816 522 810 526 q 826 518 822 518 q 834 530 829 518 q 844 557 839 542 q 856 587 850 572 q 868 608 861 601 q 875 616 869 611 q 885 626 881 621 q 895 637 890 632 q 901 643 900 642 q 946 664 921 660 q 992 672 971 668 q 999 676 994 672 q 1003 684 1000 679 q 1007 689 1007 689 l 1007 808 q 1014 807 1010 808 q 1019 800 1018 806 q 1021 742 1018 771 q 1026 682 1024 713 q 1028 679 1026 682 q 1032 676 1031 676 q 1065 655 1047 667 q 1096 628 1082 643 q 1119 597 1110 614 q 1128 558 1128 579 q 1119 517 1128 533 q 1098 488 1111 500 q 1067 465 1085 475 q 1032 444 1050 456 q 1028 442 1031 444 q 1026 440 1026 440 l 1026 333 l 1032 322 q 1042 188 1035 260 q 1049 50 1049 117 q 1047 22 1049 39 q 1028 6 1046 6 q 1010 19 1015 6 q 1003 52 1004 33 q 1002 90 1001 71 q 1003 117 1003 108 q 1006 203 1003 161 q 1010 290 1010 246 q 1008 363 1010 331 q 1003 444 1007 394 q 947 478 969 451 q 924 536 924 504 q 935 589 924 571 q 975 632 947 607 q 967 639 974 639 q 957 639 960 639 q 913 627 932 639 q 882 597 894 615 q 863 556 869 578 q 857 511 857 533 q 869 449 857 478 q 881 383 881 419 q 849 262 881 314 q 769 167 817 210 q 669 84 722 124 q 575 0 617 44 l 564 0 q 441 92 514 58 q 290 125 368 125 q 203 117 247 125 q 122 90 158 110 q 62 38 85 71 q 39 -47 39 4 q 62 -123 39 -89 q 118 -181 85 -157 q 185 -217 150 -204 q 258 -235 221 -229 q 335 -242 296 -240 q 411 -243 374 -243 l 490 -243 q 563 -219 526 -233 q 632 -186 600 -206 q 704 -110 676 -144 q 761 -28 732 -76 q 772 -22 765 -22 l 772 -33 q 768 -44 772 -36 q 759 -63 764 -53 q 749 -85 754 -74 q 739 -101 743 -96 q 676 -176 714 -142 q 594 -237 639 -211 q 501 -278 550 -264 q 406 -293 453 -293 q 283 -279 350 -293 q 158 -235 217 -265 q 61 -158 100 -206 q 22 -40 22 -110 "},"G":{"ha":1169,"x_min":17,"x_max":1151,"o":"m 94 14 q 96 62 94 36 q 107 107 97 88 q 119 126 111 115 q 134 148 126 136 q 147 172 142 160 q 153 192 153 183 q 140 216 153 197 q 112 256 128 235 q 80 299 96 278 q 57 333 64 321 q 23 425 29 376 q 17 522 17 474 q 24 619 17 581 q 48 690 32 657 q 87 758 64 724 q 140 840 110 792 l 236 925 q 282 949 260 933 q 326 981 304 965 q 372 1007 347 996 q 424 1018 396 1018 l 424 1006 q 309 933 356 978 q 234 831 263 888 q 193 708 206 774 q 181 574 181 642 l 181 518 q 184 484 181 508 q 191 431 188 460 q 198 378 194 403 q 203 343 201 353 q 210 320 207 335 q 219 292 214 306 q 232 268 224 278 q 253 258 240 258 q 303 267 278 258 q 358 276 329 276 q 447 261 411 276 q 525 215 482 246 l 531 214 q 573 227 554 214 q 605 260 592 240 q 625 302 618 279 q 632 344 632 325 q 613 429 632 393 q 567 496 594 465 q 508 553 540 526 q 448 611 475 581 q 402 679 421 642 q 383 767 383 717 q 406 879 383 829 q 469 964 429 929 q 562 1019 508 999 q 676 1043 615 1039 l 683 1050 q 715 1110 700 1088 q 749 1146 729 1133 q 797 1162 768 1158 q 869 1165 825 1165 q 860 1149 869 1153 q 840 1140 851 1144 q 820 1131 829 1136 q 811 1111 811 1125 q 828 1082 811 1093 q 865 1059 844 1071 q 903 1031 886 1047 q 919 985 919 1014 q 902 926 919 958 q 858 866 885 894 q 801 819 832 838 q 742 800 769 800 q 753 821 742 813 q 778 839 764 829 q 803 861 792 849 q 814 893 814 874 q 802 919 814 908 q 774 938 790 929 q 742 953 758 946 q 717 969 726 960 q 706 984 711 975 q 696 1001 701 993 q 684 1016 690 1010 q 669 1022 678 1022 q 610 1012 640 1022 q 556 983 581 1001 q 517 937 532 964 q 501 878 501 910 q 518 815 501 844 q 558 761 535 785 q 599 720 574 744 q 647 672 624 696 q 687 632 669 649 q 706 615 704 615 l 717 615 q 799 669 761 650 q 894 689 838 689 q 1001 669 953 689 q 1082 615 1049 650 q 1133 533 1115 581 q 1151 426 1151 485 q 1151 374 1151 399 q 1144 322 1151 349 q 1074 188 1129 247 q 944 86 1018 128 q 789 22 869 44 q 643 0 708 0 q 583 4 613 0 q 525 6 554 8 q 397 44 454 22 q 276 101 339 67 q 253 118 265 107 q 226 141 240 129 q 200 161 213 153 q 176 169 188 169 l 175 169 q 128 101 139 140 q 118 17 118 61 q 163 -122 118 -67 q 282 -215 208 -176 q 300 -215 296 -212 q 315 -219 304 -217 q 397 -237 358 -231 q 481 -243 436 -243 q 543 -240 510 -243 q 610 -227 576 -236 q 674 -204 643 -218 q 728 -169 704 -190 q 737 -160 729 -168 q 754 -144 744 -153 q 772 -126 764 -135 q 785 -114 781 -118 q 794 -101 789 -108 q 806 -85 800 -93 q 819 -72 813 -78 q 836 -67 826 -67 q 810 -120 836 -90 q 749 -178 783 -150 q 680 -227 714 -206 q 632 -253 646 -249 q 620 -257 629 -254 q 601 -262 611 -260 q 583 -268 592 -265 q 569 -272 574 -271 q 556 -273 560 -274 q 548 -272 551 -272 q 542 -272 544 -271 q 531 -276 539 -272 l 485 -276 q 422 -276 449 -276 q 356 -272 394 -275 q 259 -240 306 -267 q 176 -173 213 -212 q 117 -85 139 -133 q 94 14 94 -36 m 253 219 q 259 201 251 213 q 269 186 267 189 q 353 109 313 140 q 439 58 394 78 q 534 31 483 39 q 647 22 585 22 q 756 39 703 22 q 855 88 810 56 q 933 164 900 119 q 982 265 967 208 q 993 349 993 306 q 993 433 993 392 q 985 510 993 471 q 960 583 978 550 q 913 635 943 615 q 839 656 883 656 q 780 640 803 656 q 733 599 757 625 l 733 592 q 738 566 733 579 q 749 537 743 553 q 761 503 756 521 q 767 464 767 485 q 738 344 767 390 q 663 263 708 297 q 566 201 618 229 q 468 135 514 172 l 460 135 q 440 151 453 135 q 408 185 428 167 q 361 220 389 204 q 299 236 333 236 q 272 234 289 236 q 253 219 256 232 "},"H":{"ha":1276,"x_min":17,"x_max":1258,"o":"m 17 18 q 21 39 17 26 q 30 63 25 51 q 40 85 35 75 q 50 103 46 96 q 163 200 92 167 q 308 233 235 233 q 397 215 353 233 q 468 160 440 196 l 474 160 q 498 169 488 160 q 515 192 508 178 q 526 221 522 206 q 531 247 531 236 q 511 317 531 288 q 463 373 492 347 q 400 424 433 399 q 338 479 367 449 q 289 548 308 510 q 269 640 269 586 q 301 760 269 710 q 383 849 333 811 q 490 915 432 886 q 599 972 547 944 q 649 1012 624 986 q 693 1057 675 1038 l 700 1057 q 713 1040 700 1057 q 747 1003 725 1024 q 799 965 769 982 q 860 949 828 949 q 901 963 885 949 q 931 995 918 978 q 953 1027 943 1013 q 976 1042 964 1042 q 967 999 976 1014 q 942 960 958 983 q 856 870 903 904 q 736 836 808 836 q 694 847 715 836 q 654 872 674 857 q 617 904 635 888 q 586 932 600 921 q 583 933 585 932 q 581 933 582 933 q 526 915 556 933 q 472 868 497 896 q 428 808 446 840 q 411 750 411 776 q 424 681 411 710 q 458 631 438 653 q 507 590 479 608 q 564 549 535 571 q 588 527 578 539 q 615 510 599 515 q 628 523 618 514 q 648 542 638 532 q 668 560 658 551 q 682 572 678 569 q 713 590 694 582 q 746 606 731 597 q 772 626 761 614 q 783 657 783 638 q 781 717 783 688 q 778 776 778 746 q 793 792 778 792 q 808 778 804 792 q 811 757 811 765 q 813 736 813 751 q 813 704 813 721 q 813 671 813 688 q 811 650 813 656 l 818 639 q 835 638 819 639 q 858 636 851 636 q 926 639 899 636 q 973 652 953 642 q 1010 682 993 663 q 1049 735 1028 701 l 1051 735 q 1059 730 1058 735 q 1060 722 1060 725 q 1054 694 1060 707 q 1049 667 1049 682 q 1065 614 1049 635 q 1105 576 1082 593 q 1153 546 1128 560 q 1194 515 1178 532 q 1244 435 1231 479 q 1258 343 1258 392 q 1258 294 1258 324 q 1251 243 1257 265 q 1206 158 1240 200 q 1125 82 1171 115 q 1028 28 1079 49 q 935 7 978 7 q 856 17 897 7 q 782 47 815 26 q 727 99 749 67 q 706 175 706 131 q 713 226 706 208 q 731 253 719 243 q 757 273 743 264 q 783 300 771 282 q 788 341 786 324 q 790 378 790 358 q 787 396 790 388 q 778 411 783 404 q 770 426 774 418 q 767 443 767 433 q 778 470 767 461 q 790 493 790 479 l 790 503 q 789 520 790 508 q 787 546 788 532 q 785 572 786 560 q 783 589 783 583 q 772 594 782 594 q 737 582 760 594 q 692 551 714 569 q 653 512 669 532 q 636 476 636 492 q 642 436 636 456 q 649 394 649 417 q 638 324 649 354 q 608 256 628 294 q 564 198 592 224 q 505 149 536 172 q 442 101 474 125 q 389 51 411 78 q 384 43 388 50 q 376 28 381 36 q 368 13 372 19 q 364 7 364 7 q 351 15 357 7 q 340 35 346 24 q 330 56 335 46 q 322 69 325 65 q 183 132 268 132 q 81 94 122 132 q 39 -3 39 57 q 67 -100 39 -61 q 138 -161 94 -139 q 233 -192 182 -183 q 333 -201 285 -201 q 440 -188 394 -201 q 522 -148 486 -175 q 583 -80 557 -121 q 632 18 610 -39 l 635 18 q 643 7 643 18 q 638 -15 643 -1 q 627 -43 633 -29 q 614 -69 621 -57 q 603 -89 607 -82 q 481 -212 549 -178 q 314 -247 414 -247 l 249 -247 q 159 -214 201 -239 q 85 -153 117 -189 q 35 -74 54 -118 q 17 18 17 -31 m 732 149 q 752 96 732 118 q 801 59 772 74 q 861 38 829 44 q 917 31 893 31 q 993 46 956 31 q 1060 87 1031 61 q 1109 149 1090 113 q 1128 226 1128 185 q 1106 300 1128 264 q 1085 326 1100 307 q 1054 365 1071 344 q 1023 404 1038 386 q 1003 431 1008 422 q 978 478 988 450 q 969 532 969 507 q 976 578 969 556 q 983 624 983 600 q 965 623 979 624 q 947 622 951 622 q 931 619 944 622 q 914 617 917 617 q 859 613 881 613 q 826 609 838 614 q 811 589 815 604 q 807 536 807 574 q 811 508 807 521 q 821 485 815 496 q 831 465 826 475 q 835 443 835 456 q 831 423 835 431 q 821 408 826 415 q 811 392 815 401 q 807 365 807 382 l 807 364 q 809 338 807 357 q 811 311 811 318 q 834 297 815 301 q 873 285 853 293 q 909 260 893 276 q 925 210 925 243 q 901 147 925 169 q 836 125 878 125 q 810 131 822 125 q 788 145 799 138 q 765 159 776 153 q 742 165 754 165 q 733 160 735 165 q 732 149 732 154 "},"I":{"ha":865,"x_min":17,"x_max":847,"o":"m 186 -208 q 124 -178 154 -196 q 69 -135 93 -160 q 31 -81 46 -111 q 17 -14 17 -51 q 49 92 17 47 q 129 165 81 136 q 235 210 178 194 q 343 232 293 226 l 350 239 l 350 424 q 333 440 339 432 q 326 464 326 449 q 338 489 326 481 q 350 514 350 497 l 350 628 q 360 622 357 628 q 361 604 360 617 q 363 577 363 592 q 365 549 364 563 q 367 532 367 536 q 373 511 368 519 q 384 495 378 503 q 395 479 390 488 q 400 460 400 471 q 396 444 400 450 q 385 432 392 438 q 374 421 379 426 q 367 407 368 415 l 367 344 l 367 283 q 369 251 367 264 q 389 226 372 238 q 426 217 406 217 q 468 210 449 217 q 500 190 481 203 q 540 164 519 178 q 578 140 560 150 q 607 131 596 131 l 619 131 q 677 192 654 158 q 700 272 700 225 q 690 342 700 307 q 665 411 679 378 q 633 477 650 444 q 603 542 617 510 q 592 592 593 565 q 592 644 592 619 q 607 731 592 692 q 648 805 622 771 q 706 868 674 839 q 774 926 739 897 q 792 942 785 936 q 814 947 799 947 q 801 918 814 932 q 774 888 789 904 q 746 849 758 871 q 733 799 733 828 q 751 698 733 744 q 790 608 769 651 q 829 522 811 565 q 847 431 847 479 q 831 328 847 374 q 785 244 814 282 q 717 174 756 206 q 632 114 678 142 q 590 88 610 100 q 552 64 569 76 q 518 36 535 51 q 485 0 501 21 q 474 -6 481 -6 q 454 5 467 -6 q 426 29 442 15 q 397 56 411 43 q 372 74 382 69 q 299 103 336 93 q 222 114 263 114 q 157 106 190 114 q 97 82 124 99 q 51 39 69 65 q 33 -25 33 13 q 42 -60 33 -42 q 61 -90 51 -78 q 179 -164 114 -147 q 322 -181 244 -181 q 511 -138 435 -181 q 649 0 588 -96 l 657 0 q 634 -63 657 -31 q 578 -125 611 -96 q 508 -176 544 -154 q 444 -208 471 -199 q 389 -222 418 -219 q 332 -225 360 -225 l 306 -225 q 281 -222 299 -225 q 245 -217 264 -219 q 209 -212 226 -214 q 186 -208 192 -210 m 90 835 q 98 894 90 868 q 119 942 106 919 q 151 984 132 964 q 192 1028 169 1004 q 251 1055 218 1043 q 315 1067 283 1067 q 398 1066 356 1067 q 481 1050 440 1065 q 528 1021 506 1040 q 574 981 551 1001 q 619 947 596 961 q 668 932 642 932 q 697 940 682 932 q 726 958 713 949 q 753 975 740 967 q 778 983 767 983 q 786 981 782 983 q 790 974 790 979 q 783 960 790 967 q 767 947 776 953 q 748 935 757 940 q 733 926 739 931 q 692 894 711 910 q 653 867 672 879 q 611 847 633 854 q 561 840 589 840 q 477 860 515 840 q 401 903 439 879 q 325 947 364 928 q 240 967 286 967 q 192 956 217 967 q 149 928 168 946 q 119 887 131 910 q 107 839 107 864 q 128 767 107 794 q 183 723 150 739 q 255 701 215 707 q 331 694 294 694 q 432 722 394 694 q 501 801 469 749 l 515 801 q 507 769 515 785 q 486 738 499 753 q 460 711 474 724 q 435 689 446 699 q 375 660 408 665 q 310 656 342 656 q 230 667 269 656 q 159 701 190 678 q 109 757 128 724 q 90 835 90 790 "},"J":{"ha":860,"x_min":17,"x_max":842,"o":"m 339 239 q 349 248 349 242 q 350 261 350 254 q 346 344 350 306 q 343 431 342 382 q 328 450 335 438 q 322 475 322 463 q 329 494 322 486 q 343 510 336 503 l 343 633 l 356 633 q 356 615 356 628 q 358 586 357 601 q 360 557 358 571 q 361 539 361 543 q 368 518 363 526 q 379 503 374 510 q 390 488 385 496 q 394 467 394 479 q 389 451 394 457 q 377 439 383 444 q 366 428 371 433 q 361 414 361 422 l 361 294 q 367 281 367 289 q 365 264 367 272 q 366 248 364 256 q 378 239 368 240 q 398 231 383 236 q 429 222 413 226 q 460 212 446 217 q 481 206 475 207 q 511 188 494 200 q 544 165 528 176 q 576 145 561 154 q 601 136 590 136 q 615 138 611 136 q 626 149 618 139 q 676 203 658 176 q 694 275 694 231 q 678 371 694 325 q 640 462 661 417 q 603 553 619 507 q 586 649 586 599 q 597 726 586 693 q 627 787 608 760 q 672 839 646 814 q 728 893 697 864 q 744 909 735 899 q 763 929 753 919 q 783 946 772 939 q 807 953 794 953 l 807 939 q 752 874 776 911 q 728 794 728 838 l 728 786 q 731 769 729 782 q 736 744 733 757 q 741 718 739 731 q 744 701 743 706 q 776 635 760 667 q 808 571 793 603 q 832 505 822 539 q 842 433 842 471 q 795 269 842 340 q 672 149 749 197 q 615 114 642 129 q 563 82 588 99 q 515 44 538 65 q 474 -6 493 24 l 468 -6 q 351 87 415 54 q 206 119 288 119 q 138 113 169 119 q 84 90 107 106 q 47 47 61 74 q 33 -17 33 21 q 61 -94 33 -64 q 129 -143 89 -125 q 216 -168 169 -161 q 299 -175 263 -175 q 401 -172 347 -175 q 497 -140 454 -168 q 510 -131 501 -137 q 528 -117 518 -125 q 547 -103 538 -110 q 558 -94 556 -97 q 579 -72 565 -89 q 608 -37 593 -54 q 636 -6 622 -19 q 658 8 650 8 q 634 -49 658 -17 q 576 -111 610 -81 q 506 -165 543 -142 q 444 -197 469 -189 q 372 -212 408 -210 q 297 -214 336 -214 l 232 -214 q 167 -193 204 -208 q 97 -156 131 -178 q 40 -105 64 -133 q 17 -43 17 -76 l 17 51 q 26 72 17 57 q 40 92 36 86 q 99 152 65 126 q 172 196 133 178 q 254 224 211 214 q 339 239 297 235 m 83 843 q 106 939 83 896 q 167 1012 129 982 q 252 1058 204 1042 q 350 1075 300 1075 q 429 1066 393 1075 q 497 1040 465 1057 q 558 1001 529 1024 q 619 950 588 978 q 644 941 635 943 q 667 939 653 939 q 701 947 685 939 q 730 965 717 956 q 755 982 743 974 q 776 990 767 990 l 778 990 q 782 987 781 989 q 785 983 783 985 l 785 982 l 785 978 q 740 933 767 956 q 681 891 713 910 q 617 860 650 872 q 553 849 583 849 q 473 868 507 849 q 407 911 439 888 q 342 954 375 935 q 265 974 308 974 q 207 966 236 974 q 154 942 178 958 q 116 901 131 925 q 101 843 101 876 q 124 769 101 797 q 180 726 146 740 q 253 706 214 711 q 328 701 293 701 q 372 706 349 701 q 417 719 396 710 q 456 744 439 729 q 485 781 474 760 q 490 796 485 781 q 501 815 494 811 l 506 815 l 508 815 q 511 812 508 814 q 514 808 514 810 l 514 807 q 490 745 514 772 q 431 699 465 718 q 358 671 396 681 q 293 661 319 661 l 243 661 q 183 687 211 669 q 132 728 154 704 q 97 781 110 751 q 83 843 83 810 "},"K":{"ha":1324,"x_min":17,"x_max":1306,"o":"m 17 -6 q 35 81 17 42 q 86 151 54 121 q 158 201 118 181 q 243 232 199 222 l 308 232 q 331 232 317 232 q 361 232 346 232 q 392 231 378 232 q 418 226 407 229 q 440 216 426 224 q 467 201 453 208 q 494 187 481 193 q 517 181 507 181 q 538 191 529 181 q 550 215 546 201 q 556 243 554 229 q 558 265 558 257 q 553 291 558 283 q 542 311 549 299 q 507 360 522 339 q 468 407 492 381 q 415 461 443 435 q 363 516 386 488 q 325 577 340 544 q 310 651 310 610 q 319 712 310 683 q 339 768 328 740 q 390 849 357 815 q 461 908 422 882 q 543 955 500 933 q 626 1000 586 976 q 635 1006 628 1000 q 651 1017 642 1011 q 669 1030 660 1024 q 683 1040 678 1036 q 693 1052 689 1044 q 701 1067 697 1060 q 711 1079 706 1074 q 726 1085 717 1085 q 745 1070 732 1085 q 777 1039 758 1056 q 820 1008 796 1022 q 874 993 844 993 q 893 997 881 993 q 918 1007 906 1001 q 941 1019 931 1013 q 956 1033 951 1026 q 963 1051 957 1036 q 972 1068 969 1065 q 974 1071 972 1068 q 976 1074 975 1074 l 981 1074 l 982 1074 q 985 1066 983 1072 q 989 1057 986 1060 l 989 1053 l 989 1050 q 960 991 976 1021 q 921 937 943 961 q 870 897 899 913 q 807 882 842 882 q 689 915 740 882 q 676 926 685 918 q 658 944 667 935 q 639 960 649 953 q 622 967 629 967 q 574 950 603 967 q 517 908 544 933 q 471 856 490 883 q 451 806 451 828 q 488 678 451 732 q 575 576 524 625 q 578 576 576 576 q 582 575 581 575 q 603 585 590 575 q 628 607 615 594 q 652 632 640 619 q 672 650 664 644 q 681 656 674 651 q 698 665 689 660 q 715 676 707 671 q 728 683 724 681 q 757 697 740 690 q 774 724 774 704 l 774 847 q 778 853 774 849 l 782 853 l 785 853 l 797 728 q 799 726 797 728 q 801 724 800 724 l 806 724 q 864 738 832 724 q 926 772 896 751 q 984 816 957 793 q 1028 858 1011 839 l 1047 858 q 1037 831 1047 842 q 1026 801 1026 819 q 1041 751 1026 772 q 1072 711 1056 731 q 1103 670 1089 692 q 1118 618 1118 649 q 1106 558 1118 583 q 1075 512 1094 532 q 1030 476 1056 492 q 976 447 1004 461 q 965 443 971 444 q 956 435 958 442 q 976 418 960 426 q 1010 401 992 410 q 1048 381 1029 392 q 1078 357 1067 369 q 1103 323 1093 338 q 1124 289 1114 308 q 1139 249 1131 271 q 1158 209 1147 228 q 1185 177 1169 190 q 1224 164 1201 164 q 1260 170 1250 164 q 1286 199 1269 176 l 1306 199 l 1306 186 q 1292 170 1306 185 q 1269 147 1278 156 q 1256 133 1267 144 q 1231 108 1244 121 q 1206 83 1218 94 q 1192 68 1194 71 q 1183 58 1189 67 q 1169 40 1176 50 q 1155 22 1161 31 q 1147 11 1149 13 q 1139 2 1140 4 q 1131 0 1138 0 q 1102 7 1115 0 q 1078 24 1089 14 q 1067 32 1074 26 q 1051 44 1060 38 q 1036 55 1043 50 q 1028 61 1029 60 q 993 115 1004 81 q 975 188 982 149 q 963 267 968 226 q 949 340 958 307 q 922 393 939 372 q 875 414 906 414 q 837 410 857 414 q 801 394 817 406 q 799 392 800 394 q 797 390 797 390 l 797 317 l 801 306 q 803 288 801 304 q 805 249 804 272 q 806 203 806 226 q 807 164 807 179 q 807 154 807 163 q 808 135 807 146 q 808 114 808 125 q 808 97 808 103 q 808 83 808 93 q 808 63 808 74 q 807 42 807 51 q 807 28 807 32 q 797 24 803 24 l 793 24 q 780 31 785 24 q 772 47 775 38 q 769 65 769 56 q 768 81 768 75 q 771 194 768 139 q 774 308 774 250 l 774 390 q 759 399 771 399 q 734 401 747 400 q 710 408 721 403 q 700 431 700 413 q 708 449 700 443 q 726 458 715 456 q 748 459 736 460 q 768 458 760 458 q 778 468 775 460 q 781 487 781 476 q 781 508 782 497 q 781 524 781 518 q 780 542 781 533 q 774 560 779 550 l 774 656 q 769 666 774 658 q 760 674 764 674 q 735 667 749 674 q 706 651 721 660 q 679 632 692 642 q 660 617 667 622 q 646 603 654 611 q 629 586 638 594 q 615 572 621 578 q 610 565 610 565 l 610 549 q 635 512 624 528 q 653 479 646 496 q 663 444 660 463 q 667 400 667 425 q 653 315 667 351 q 617 249 640 279 q 565 190 594 218 q 501 131 535 161 q 457 87 479 108 q 424 33 435 65 l 418 33 q 406 35 410 33 q 394 44 403 38 q 299 110 346 85 q 185 136 251 136 q 76 97 119 136 q 33 -10 33 57 q 67 -95 33 -62 q 147 -146 100 -128 q 247 -169 194 -164 q 339 -175 300 -175 l 400 -175 q 415 -168 406 -171 q 433 -163 424 -165 q 449 -160 442 -161 q 457 -158 456 -158 q 569 -87 522 -139 q 643 24 615 -36 l 656 24 q 638 -22 653 -1 q 610 -61 624 -42 q 487 -174 561 -129 q 326 -219 413 -219 q 225 -208 279 -219 q 124 -170 171 -196 q 47 -103 78 -144 q 17 -6 17 -62 m 797 468 q 813 453 803 458 q 837 444 824 447 q 863 441 850 442 q 886 440 876 440 q 917 446 901 440 q 947 462 933 451 q 968 485 960 472 q 976 515 976 499 q 965 554 976 538 q 940 588 953 571 q 915 625 926 604 q 903 678 903 646 q 906 708 903 694 q 910 736 910 721 q 880 731 897 736 q 845 717 863 725 q 813 698 828 708 q 790 678 797 688 l 790 618 q 790 579 790 597 q 791 545 790 563 q 793 510 792 528 q 797 468 794 492 "},"L":{"ha":1131,"x_min":17,"x_max":1114,"o":"m 17 0 q 54 117 17 67 q 148 199 92 167 q 269 249 204 232 q 392 265 335 265 q 482 261 435 265 q 569 242 529 257 q 706 181 640 215 q 847 128 772 146 q 869 124 854 126 q 885 124 885 122 l 897 135 l 897 428 q 876 448 885 439 q 868 474 868 457 q 872 489 868 483 q 880 500 875 494 q 888 511 885 506 q 892 526 892 517 q 886 670 892 599 q 881 814 881 742 q 885 826 881 824 q 900 828 889 828 q 917 820 911 828 q 924 802 922 813 q 926 780 926 792 q 925 761 925 768 q 919 663 925 711 q 914 565 914 615 q 918 534 914 546 q 928 513 922 522 q 938 494 933 503 q 942 474 942 486 q 928 441 942 454 q 914 410 914 428 l 914 140 q 924 131 914 133 q 939 128 935 128 q 999 147 972 128 q 1048 188 1026 165 q 1085 230 1069 211 q 1114 249 1101 249 q 1101 209 1114 226 q 1076 174 1088 192 q 951 43 1025 88 q 775 -1 876 -1 q 644 24 707 -1 q 519 81 581 50 q 395 138 457 113 q 268 164 333 164 q 188 156 229 164 q 112 128 146 147 q 56 78 78 110 q 33 0 33 47 q 58 -76 33 -43 q 118 -132 82 -110 q 197 -165 154 -154 q 275 -176 239 -176 l 286 -176 q 317 -175 297 -176 q 358 -172 338 -174 q 393 -170 378 -171 q 411 -169 408 -169 q 519 -124 475 -165 q 592 -31 563 -82 q 593 -28 592 -28 q 594 -28 594 -28 q 596 -28 594 -28 q 599 -31 599 -28 q 601 -32 599 -31 q 603 -35 603 -33 l 603 -39 l 603 -40 q 549 -130 582 -94 q 476 -187 517 -165 q 386 -217 435 -208 q 285 -226 338 -226 q 192 -210 239 -226 q 106 -162 144 -193 q 42 -90 67 -132 q 17 0 17 -49 m 700 286 l 700 326 q 683 399 700 368 q 638 455 665 429 q 581 504 611 481 q 523 555 550 528 q 478 615 496 582 q 461 694 461 649 q 499 832 461 768 q 599 935 538 896 q 669 975 632 958 q 739 1019 707 992 q 747 1028 740 1021 q 760 1044 753 1036 q 773 1060 767 1053 q 783 1069 779 1068 q 785 1072 783 1072 q 786 1072 786 1072 q 788 1072 786 1072 q 790 1069 790 1072 q 792 1068 790 1069 q 794 1065 794 1067 q 817 1031 806 1049 q 843 998 829 1013 q 875 974 857 983 q 917 964 893 964 q 960 977 942 964 q 992 1007 978 990 q 1015 1037 1006 1024 q 1033 1050 1025 1050 q 1014 978 1033 1015 q 965 912 994 942 q 898 863 935 882 q 826 844 861 844 q 765 860 792 844 q 719 896 739 876 q 688 931 700 915 q 672 947 676 947 q 642 934 657 947 q 617 902 628 921 q 599 864 606 883 q 592 832 592 844 q 622 746 592 785 q 690 671 651 707 q 765 598 729 635 q 811 518 800 561 q 813 497 811 513 q 814 475 814 481 q 813 451 814 468 q 811 433 811 435 q 788 358 808 397 q 744 292 768 318 q 728 274 738 285 q 708 254 718 264 q 691 238 699 244 q 682 231 683 231 l 674 231 q 683 259 674 247 q 700 286 693 271 "},"M":{"ha":1731,"x_min":15,"x_max":1714,"o":"m 157 -40 q 190 70 157 18 q 272 163 222 122 q 382 226 322 203 q 497 250 442 250 q 609 236 556 250 q 717 199 663 222 q 735 187 725 194 q 754 172 744 179 q 774 158 764 164 q 793 153 783 153 l 797 153 q 805 160 799 156 q 814 165 811 164 q 824 174 817 168 q 840 188 832 181 q 854 201 847 194 q 864 210 861 207 l 872 210 q 862 184 872 197 q 838 159 851 171 q 811 138 825 147 q 790 119 797 128 q 778 107 786 115 q 764 90 771 99 q 751 76 757 82 q 744 68 746 69 q 734 54 742 64 q 719 33 726 44 q 704 10 711 21 q 694 -6 697 -1 l 683 -6 q 616 51 649 28 q 549 89 583 75 q 476 109 515 103 q 386 115 436 115 q 369 115 382 115 q 346 115 358 115 q 322 115 333 115 q 306 114 310 114 q 210 61 251 99 q 168 -39 168 24 q 201 -131 168 -93 q 283 -190 235 -168 q 386 -222 332 -212 q 483 -232 440 -232 q 536 -231 508 -232 q 592 -227 564 -231 q 646 -215 619 -224 q 694 -192 672 -207 q 763 -134 735 -164 q 818 -67 790 -104 q 827 -51 822 -61 q 837 -31 832 -40 q 849 -14 842 -21 q 865 -7 856 -7 q 848 -54 865 -29 q 818 -94 831 -79 q 766 -156 793 -129 q 706 -214 739 -183 q 653 -246 682 -235 q 592 -262 624 -257 q 528 -268 560 -267 q 468 -269 496 -269 q 365 -255 419 -269 q 265 -211 311 -240 q 188 -140 218 -182 q 157 -40 157 -97 m 1315 328 q 1315 376 1315 342 q 1313 448 1314 410 q 1311 519 1313 486 q 1310 567 1310 553 l 1310 568 q 1325 654 1310 611 q 1367 735 1340 697 q 1427 803 1393 772 q 1497 853 1461 833 q 1519 864 1506 857 q 1546 877 1532 871 q 1570 888 1560 883 q 1582 893 1581 893 l 1597 893 q 1585 874 1597 883 q 1559 856 1574 865 q 1529 838 1544 847 q 1508 819 1514 829 q 1490 781 1497 807 q 1481 742 1482 756 q 1478 720 1479 738 q 1474 681 1476 703 q 1470 638 1472 658 q 1468 606 1468 617 l 1468 589 l 1468 572 q 1471 558 1468 569 q 1474 543 1474 546 q 1474 518 1474 539 q 1474 475 1474 499 q 1474 433 1474 453 q 1474 408 1474 414 q 1483 336 1475 376 q 1509 260 1492 296 q 1554 200 1526 225 q 1622 175 1582 175 q 1666 194 1650 175 q 1700 233 1682 213 l 1714 233 q 1693 202 1714 231 q 1645 138 1672 174 q 1592 67 1618 101 q 1558 18 1567 32 q 1553 8 1557 15 q 1547 1 1549 1 l 1544 0 q 1542 1 1543 0 q 1542 1 1542 1 q 1413 90 1461 33 q 1339 226 1364 146 q 1328 278 1331 251 q 1315 328 1326 304 m 835 400 q 842 441 835 418 q 860 485 849 464 q 883 527 871 507 q 908 560 896 547 q 932 585 917 569 q 949 600 947 600 l 961 600 q 956 576 961 588 q 943 553 950 564 q 931 528 936 542 q 925 501 925 515 q 931 467 925 483 q 949 436 938 451 q 1019 361 981 394 q 1090 289 1058 328 q 1101 275 1094 285 q 1117 256 1108 265 q 1131 238 1125 246 q 1140 226 1138 229 q 1148 214 1143 224 q 1158 194 1153 204 q 1170 177 1164 185 q 1183 169 1176 169 l 1185 169 q 1205 192 1193 178 q 1229 222 1217 207 q 1253 247 1242 236 q 1274 257 1265 257 q 1270 240 1274 246 q 1260 226 1267 233 q 1238 200 1253 218 q 1206 162 1222 182 q 1176 125 1190 142 q 1158 103 1163 108 q 1142 83 1154 99 q 1118 50 1131 67 q 1095 20 1106 33 q 1082 7 1085 7 l 1078 7 q 1075 9 1076 7 q 1074 11 1074 11 q 1065 29 1072 14 q 1057 47 1058 44 q 992 128 1029 89 q 919 210 954 168 q 859 298 883 251 q 835 400 835 344 m 231 526 q 258 606 231 578 q 339 633 286 633 l 372 633 q 415 592 399 614 q 431 535 431 571 q 401 474 431 494 q 335 453 372 453 q 313 456 324 453 q 290 458 301 458 q 283 453 283 458 q 282 443 282 449 q 299 403 282 424 q 340 368 315 383 q 390 343 364 353 q 433 333 415 333 q 610 402 554 333 q 667 589 667 471 q 659 687 667 636 q 630 780 651 738 q 571 849 608 822 q 474 876 533 876 q 376 871 425 876 q 276 865 326 865 q 170 875 218 865 q 88 909 122 885 q 35 975 54 933 q 15 1081 15 1017 l 22 1081 q 42 1032 24 1053 q 85 1000 61 1011 l 115 1000 q 158 999 135 1000 q 197 1011 182 999 q 332 1041 264 1031 q 469 1051 400 1051 q 613 1025 550 1051 q 720 951 676 999 q 786 838 764 904 q 808 694 808 772 q 710 415 808 514 q 431 317 611 317 q 351 334 388 317 q 288 381 314 351 q 246 447 261 410 q 231 526 231 485 m 1044 385 q 1077 426 1064 403 q 1090 478 1090 450 q 1081 516 1090 499 q 1059 549 1072 533 q 1031 578 1046 564 q 1006 606 1017 592 q 965 652 983 629 q 932 699 946 675 q 910 751 918 724 q 903 811 903 778 l 903 815 q 907 841 906 824 q 908 860 908 858 q 935 919 917 883 q 972 978 953 954 q 997 1008 981 989 q 1026 1042 1014 1028 q 1039 1057 1038 1056 l 1057 1057 l 1057 1047 q 1013 991 1032 1018 q 993 926 993 964 q 1023 853 993 888 q 1089 787 1053 819 q 1155 719 1125 754 q 1185 644 1185 685 l 1185 539 q 1167 495 1185 524 q 1127 440 1150 467 q 1081 392 1104 413 q 1044 372 1057 372 l 1044 385 m 1168 974 q 1121 964 1139 974 q 1090 942 1103 954 q 1066 919 1076 929 q 1043 910 1056 910 q 1065 953 1043 926 q 1117 1005 1088 979 q 1178 1049 1147 1031 q 1225 1068 1208 1068 l 1350 1068 q 1401 1049 1381 1057 q 1457 1024 1422 1042 q 1506 992 1483 1008 q 1561 976 1528 976 q 1609 991 1592 976 q 1638 1022 1626 1006 q 1657 1053 1649 1039 q 1681 1068 1665 1068 q 1667 1020 1681 1044 q 1639 978 1654 996 q 1550 906 1596 929 q 1439 882 1504 882 q 1366 889 1397 882 q 1299 917 1335 896 q 1238 955 1267 936 q 1168 974 1208 974 "},"N":{"ha":1442,"x_min":17,"x_max":1426,"o":"m 201 -18 q 217 56 201 21 q 256 119 232 90 q 313 172 281 149 q 378 210 344 194 q 426 228 401 219 q 474 249 451 236 q 486 249 478 249 q 505 249 494 249 q 524 250 515 250 q 536 250 532 250 q 684 225 619 250 q 814 147 749 200 l 831 147 q 840 153 831 147 q 860 169 849 160 q 883 187 871 178 q 903 203 896 196 q 919 218 908 208 q 932 239 929 228 l 932 276 q 928 590 932 435 q 925 903 924 746 l 919 939 l 907 939 q 875 933 893 939 q 840 916 857 926 q 813 891 824 906 q 801 861 801 876 l 801 858 q 822 788 813 821 q 831 714 831 754 q 806 554 831 626 q 735 431 782 482 q 617 351 688 379 q 456 322 547 322 q 380 336 417 322 q 315 374 343 350 q 270 432 288 399 q 253 506 253 465 q 263 568 253 546 q 310 610 274 590 q 317 614 313 611 q 322 617 322 617 l 394 617 q 415 608 403 617 q 438 585 428 599 q 456 558 449 572 q 464 536 464 544 q 449 483 464 503 q 413 453 435 464 q 363 439 390 443 q 310 435 335 435 l 306 431 q 308 420 303 428 q 317 407 313 413 q 376 357 340 375 q 450 339 411 339 q 552 359 507 339 q 629 414 597 379 q 678 497 661 449 q 694 600 694 544 q 685 698 694 647 q 651 789 675 749 q 588 856 628 829 q 490 882 549 882 q 342 867 417 882 q 193 853 268 853 q 124 869 156 853 q 68 913 92 886 q 31 973 44 939 q 17 1042 17 1007 l 17 1061 q 20 1059 18 1061 q 22 1057 22 1057 q 63 1004 42 1025 q 126 983 83 983 q 175 985 146 983 q 219 1000 204 988 q 279 1017 246 1007 q 347 1035 313 1026 q 415 1051 381 1044 q 478 1057 449 1057 q 608 1038 546 1057 q 724 976 669 1018 q 740 958 732 969 q 757 933 749 946 q 774 912 765 921 q 790 903 782 903 q 807 912 797 903 q 826 933 817 921 q 844 956 836 944 q 858 972 853 968 q 940 1031 896 1006 q 1036 1057 983 1057 q 1137 1035 1089 1057 q 1231 989 1185 1013 q 1273 967 1254 978 q 1319 956 1292 956 q 1369 969 1353 956 q 1400 1011 1385 983 q 1410 1029 1404 1018 q 1417 1040 1417 1040 l 1426 1040 q 1403 969 1426 1004 q 1347 908 1381 935 q 1273 864 1313 881 q 1200 847 1233 847 q 1122 863 1160 847 q 1050 899 1083 879 q 1011 924 1032 908 q 968 939 990 939 q 953 936 961 939 q 943 926 946 933 q 943 878 943 913 q 942 804 943 843 q 942 731 942 765 q 942 682 942 696 q 945 485 942 582 q 949 290 949 388 q 948 253 949 275 q 943 219 947 231 q 933 210 942 219 q 919 199 925 201 q 810 106 860 147 q 711 7 761 64 q 706 1 707 1 q 700 0 706 0 l 694 0 q 585 103 650 71 q 436 136 521 136 q 356 130 394 136 q 287 106 317 124 q 238 58 257 89 q 219 -24 219 26 q 242 -93 219 -64 q 293 -147 265 -122 q 340 -174 314 -164 q 395 -187 367 -183 q 452 -192 424 -192 q 506 -193 481 -193 q 558 -192 531 -193 q 614 -187 586 -192 q 668 -175 642 -183 q 717 -151 694 -167 q 728 -144 721 -149 q 742 -134 735 -139 q 754 -124 749 -129 q 761 -118 760 -119 q 790 -91 778 -104 q 813 -64 803 -78 q 834 -37 824 -50 q 858 -10 844 -24 l 864 -8 l 864 -22 q 853 -41 864 -24 q 835 -67 842 -58 q 789 -124 818 -94 q 725 -179 760 -154 q 653 -220 690 -204 q 582 -236 615 -236 l 435 -236 q 410 -230 432 -236 q 378 -219 389 -224 q 313 -188 344 -207 q 257 -144 282 -169 q 217 -87 232 -118 q 201 -18 201 -56 m 1050 322 l 1050 599 q 1058 638 1050 617 q 1079 681 1067 660 q 1106 719 1092 701 q 1135 747 1121 736 q 1163 767 1144 754 q 1201 794 1182 781 q 1235 817 1219 807 q 1253 831 1250 828 q 1269 840 1258 835 q 1292 851 1281 846 q 1311 861 1303 857 q 1322 865 1319 865 l 1339 865 l 1339 853 q 1299 829 1321 843 q 1258 797 1276 815 q 1226 758 1239 779 q 1214 711 1214 736 l 1214 328 q 1217 317 1214 326 q 1223 294 1219 307 q 1230 269 1226 282 q 1236 249 1233 256 q 1274 189 1247 214 q 1339 164 1301 164 q 1365 172 1354 164 q 1386 189 1376 179 q 1404 206 1396 199 q 1424 214 1413 214 l 1424 199 q 1337 109 1382 158 q 1258 11 1292 60 l 1249 11 q 1218 18 1232 11 q 1192 35 1204 25 q 1137 82 1160 60 q 1099 129 1114 104 q 1073 185 1083 154 q 1056 256 1063 215 q 1056 269 1056 257 q 1056 283 1057 281 q 1053 303 1056 288 q 1050 322 1051 318 "},"O":{"ha":1085,"x_min":17,"x_max":1067,"o":"m 225 42 q 231 65 225 54 q 236 89 236 76 l 236 93 q 229 101 235 96 q 217 113 224 107 q 205 125 211 119 q 197 133 199 131 q 114 216 149 178 q 58 296 79 254 q 26 388 36 338 q 17 506 17 438 l 17 567 q 44 654 24 611 q 92 735 64 697 q 157 806 121 774 q 232 860 193 838 q 247 869 236 863 q 269 881 257 875 q 294 890 282 886 q 314 894 306 894 l 315 894 q 322 892 318 893 q 326 889 326 890 l 326 886 q 316 876 326 885 q 292 858 306 868 q 267 838 279 847 q 253 826 256 829 q 237 804 250 821 q 219 782 224 788 q 218 763 221 774 q 211 742 215 753 q 203 723 207 732 q 197 708 199 714 q 183 642 186 675 q 181 574 181 608 l 181 528 q 183 491 181 517 q 188 438 185 465 q 193 385 190 410 q 197 353 196 361 q 199 342 197 350 q 204 324 201 335 q 210 305 207 314 q 214 292 213 296 q 219 280 215 289 q 226 260 222 271 q 235 240 231 250 q 242 224 239 229 q 247 210 243 221 q 258 189 251 200 q 271 169 264 178 q 285 160 278 160 l 286 161 q 317 180 303 169 q 347 199 332 190 q 378 213 361 207 q 414 218 394 218 q 458 213 435 218 q 501 200 482 208 q 514 192 506 199 q 531 178 522 186 q 549 165 540 171 q 564 160 558 160 q 585 169 575 160 q 601 190 594 178 q 612 217 608 203 q 615 240 615 231 q 599 287 615 264 q 558 334 582 310 q 505 385 533 358 q 452 441 476 411 q 411 504 428 471 q 394 578 394 538 q 431 705 394 649 q 518 806 468 761 q 539 817 524 808 q 564 826 554 826 q 575 818 575 826 l 575 815 q 525 763 549 792 q 501 697 501 735 q 510 662 501 678 q 531 633 518 646 q 559 608 544 619 q 586 585 574 596 q 601 569 590 581 q 625 546 613 558 q 649 522 638 533 q 665 506 661 510 q 700 375 700 446 l 700 365 q 697 342 699 357 q 691 313 694 328 q 685 288 688 299 q 682 274 683 276 q 657 224 676 253 q 613 169 638 196 q 561 124 588 143 q 514 106 535 106 l 501 106 q 444 152 479 138 q 372 167 410 167 q 352 164 364 167 q 329 156 340 161 q 310 143 318 150 q 303 126 303 136 q 303 125 303 126 q 306 122 303 124 q 354 76 325 94 q 417 47 383 58 q 486 30 451 35 q 553 25 521 25 q 722 64 651 25 q 838 167 793 103 q 904 313 883 231 q 925 485 925 396 q 915 567 925 526 q 892 647 906 607 q 817 763 867 713 q 700 833 768 813 q 686 837 696 835 q 666 842 676 839 q 647 847 656 844 q 636 850 639 850 q 602 856 629 851 q 544 867 575 861 q 485 877 513 872 q 451 883 458 882 q 348 928 390 894 q 306 1031 306 963 q 319 1073 306 1054 q 354 1106 333 1092 q 399 1126 375 1119 q 443 1133 424 1133 q 430 1108 443 1117 q 417 1083 417 1100 q 438 1056 417 1064 q 474 1047 458 1049 q 583 1031 529 1036 q 693 1014 638 1026 q 974 843 882 968 q 1067 525 1067 718 q 1064 462 1067 490 q 1055 406 1061 433 q 1040 351 1049 379 q 1022 292 1032 324 q 951 176 1001 229 q 837 84 901 122 q 701 24 772 46 q 565 3 629 3 q 473 11 518 3 q 383 32 428 19 q 327 56 356 39 q 269 72 299 72 q 253 65 258 72 q 247 49 249 58 q 247 28 246 39 q 247 10 247 18 q 272 -87 247 -47 q 335 -150 296 -126 q 424 -184 375 -174 q 522 -194 472 -194 l 575 -194 q 638 -172 610 -182 q 692 -149 667 -161 q 742 -117 718 -136 q 794 -69 767 -99 q 812 -45 801 -62 q 831 -10 822 -28 q 849 22 840 8 q 860 36 857 36 l 864 36 q 866 35 864 36 q 868 32 868 33 l 868 28 l 868 25 q 822 -76 856 -28 q 744 -162 789 -125 q 644 -222 699 -200 q 535 -244 590 -244 q 413 -226 469 -244 q 314 -170 356 -207 q 249 -81 272 -133 q 225 42 225 -28 "},"P":{"ha":1344,"x_min":17,"x_max":1326,"o":"m 258 7 q 259 29 258 13 q 260 51 260 46 q 332 154 286 111 q 434 224 378 197 q 553 264 490 251 q 676 276 615 276 l 744 276 q 860 231 811 257 q 965 164 910 206 l 968 164 q 978 174 975 164 q 982 186 981 183 q 982 196 982 189 q 983 211 982 203 q 983 226 983 219 q 983 236 983 233 q 982 288 983 265 q 969 339 981 311 q 961 349 965 346 q 953 356 957 353 q 949 364 950 358 q 947 381 947 369 q 948 389 947 383 q 949 394 949 394 q 960 413 950 400 q 976 431 971 426 l 976 525 q 962 534 976 525 q 931 559 947 543 q 899 595 914 575 q 885 639 885 615 q 899 685 885 668 q 931 716 914 703 q 962 742 947 729 q 976 778 976 756 q 969 790 976 786 l 969 953 l 965 953 q 958 949 965 953 q 942 938 951 944 q 924 926 933 932 q 908 915 914 919 q 862 874 888 899 q 818 831 836 850 l 818 818 q 831 778 818 799 l 831 708 q 808 546 831 618 q 738 423 785 474 q 622 344 692 372 q 460 317 553 317 q 391 331 425 317 q 330 369 357 344 q 286 424 303 393 q 269 492 269 456 q 297 578 269 547 q 381 610 324 610 q 453 585 426 610 q 481 514 481 561 q 476 489 481 503 q 462 463 471 475 q 441 443 453 451 q 417 435 429 435 l 324 435 q 336 398 324 415 q 368 367 349 381 q 409 347 388 354 q 450 339 431 339 q 631 397 568 339 q 694 574 694 456 q 669 728 694 661 q 575 851 643 794 q 531 874 557 867 q 482 882 504 882 q 469 881 475 882 q 457 875 463 881 q 331 871 393 878 q 203 864 269 864 q 127 880 161 864 q 68 923 93 896 q 30 985 43 950 q 17 1061 17 1021 l 17 1090 l 22 1094 l 25 1094 l 28 1094 q 44 1040 31 1067 q 90 1010 58 1014 l 135 1010 q 188 1017 167 1010 q 236 1026 208 1024 q 366 1047 301 1038 q 497 1057 431 1057 q 553 1052 524 1057 q 613 1038 583 1047 q 669 1015 642 1029 q 717 982 696 1000 q 738 957 722 976 q 768 917 753 938 q 796 880 783 896 q 811 864 808 864 l 818 864 q 968 983 892 931 q 1133 1074 1044 1036 q 1179 1092 1157 1082 q 1225 1103 1201 1103 q 1217 1082 1225 1089 q 1201 1068 1210 1075 q 1185 1052 1193 1061 q 1178 1025 1178 1043 q 1196 980 1178 993 q 1235 949 1214 967 q 1301 872 1275 914 q 1326 776 1326 831 q 1306 694 1326 738 q 1253 614 1285 651 q 1180 550 1221 576 q 1100 519 1139 524 q 1081 519 1094 519 q 1053 518 1068 518 q 1024 519 1038 518 q 1006 519 1010 519 l 999 514 l 999 431 q 1020 412 1017 422 q 1024 386 1024 401 q 1019 367 1024 375 q 1008 350 1014 358 q 998 333 1003 342 q 993 314 993 325 l 993 293 q 994 268 993 286 q 996 229 994 250 q 998 190 997 208 q 999 164 999 171 q 1001 161 1000 164 q 1006 158 1003 158 l 1007 158 l 1010 158 q 1036 176 1021 164 q 1067 201 1051 189 q 1100 222 1083 213 q 1131 231 1117 231 q 1110 203 1131 219 q 1065 167 1090 186 q 1013 131 1039 149 q 976 101 988 113 q 956 81 969 96 q 926 51 942 67 q 895 20 910 35 q 875 0 881 6 l 868 0 q 849 16 865 0 q 812 52 833 32 q 767 92 790 72 q 728 118 744 111 q 628 155 678 140 q 524 169 579 169 q 458 163 494 169 q 386 141 421 156 q 323 104 351 126 q 282 51 294 82 q 276 20 276 38 q 275 -11 275 3 q 290 -76 275 -47 q 330 -126 306 -104 q 384 -165 354 -149 q 444 -192 414 -182 q 469 -195 451 -193 q 505 -200 486 -197 q 540 -206 524 -203 q 564 -208 557 -208 q 574 -208 565 -208 q 594 -209 583 -208 q 617 -210 606 -210 q 636 -210 629 -210 q 651 -210 640 -210 q 674 -209 663 -210 q 696 -208 686 -208 q 711 -208 707 -208 q 768 -192 739 -197 q 824 -175 797 -186 q 913 -118 875 -151 q 986 -44 950 -85 q 1010 -21 996 -36 q 1026 -6 1025 -6 l 1033 -6 q 1015 -46 1033 -29 q 982 -78 996 -62 q 910 -151 949 -117 q 828 -210 872 -185 q 736 -251 785 -236 q 636 -265 688 -265 q 507 -250 574 -265 q 385 -201 440 -235 q 294 -117 329 -168 q 258 7 258 -65 m 999 558 q 1024 542 1007 543 q 1056 542 1040 542 q 1104 548 1079 542 q 1150 567 1129 554 q 1184 599 1171 579 q 1197 649 1197 619 q 1178 714 1197 686 q 1137 769 1160 742 q 1095 828 1114 796 q 1076 907 1076 860 q 1090 972 1076 939 q 1117 1033 1103 1004 l 1107 1033 q 1083 1025 1101 1033 q 1045 1006 1065 1017 q 1009 986 1025 996 q 993 972 993 976 l 993 761 q 1006 747 993 754 q 1035 730 1019 740 q 1065 702 1051 719 q 1078 658 1078 685 q 1069 615 1078 628 q 1049 594 1061 601 q 1022 580 1036 586 q 999 558 1008 574 "},"Q":{"ha":1136,"x_min":17,"x_max":1118,"o":"m 253 3 q 256 39 253 22 q 260 75 260 56 q 253 91 260 83 q 237 105 246 99 q 219 115 228 111 q 208 122 211 119 q 186 143 201 128 q 154 176 171 158 q 122 208 138 193 q 101 231 107 224 q 39 346 61 283 q 17 478 17 408 q 70 707 17 608 q 236 878 124 806 q 281 902 254 889 q 328 915 307 915 q 320 897 328 906 q 303 880 313 888 q 282 865 293 872 q 265 850 271 857 q 206 741 226 804 q 185 618 185 678 q 199 419 185 519 q 265 231 214 318 q 272 219 267 228 q 284 199 278 210 q 297 180 290 189 q 306 167 303 171 q 317 161 308 161 q 342 177 324 161 q 386 213 361 193 q 439 248 411 232 q 492 264 467 264 l 639 264 q 675 252 656 256 q 711 240 694 249 q 785 201 743 225 q 858 157 828 176 q 911 224 892 185 q 940 306 931 263 q 953 393 950 349 q 956 478 956 438 q 947 576 956 525 q 920 675 939 628 q 871 763 901 722 q 797 828 840 803 q 713 867 757 850 q 626 890 669 883 q 569 897 603 894 q 497 904 535 900 q 422 917 460 908 q 354 940 385 925 q 305 978 324 956 q 286 1035 286 1000 q 302 1103 286 1079 q 350 1156 318 1128 q 371 1173 361 1165 q 397 1181 381 1181 q 388 1157 397 1165 q 378 1135 378 1149 q 396 1108 378 1119 q 428 1093 414 1096 q 463 1086 439 1090 q 511 1078 486 1082 q 558 1070 536 1074 q 586 1065 579 1067 q 796 1012 703 1047 q 955 915 889 976 q 1056 764 1021 854 q 1090 547 1090 674 q 1075 413 1090 481 q 1022 292 1060 346 q 1008 272 1018 285 q 987 244 997 258 q 967 217 976 229 q 953 201 957 206 q 945 193 951 200 q 931 178 939 186 q 917 165 924 171 q 908 157 910 158 q 901 147 906 153 q 897 139 897 140 q 910 126 897 132 q 939 116 922 121 q 972 108 956 111 q 997 106 989 106 q 1044 121 1025 106 q 1076 153 1063 136 q 1099 186 1090 171 q 1118 201 1108 201 l 1118 183 q 1115 176 1118 183 q 1107 160 1111 169 q 1098 142 1103 151 q 1090 128 1093 133 q 995 31 1054 64 q 864 -3 936 -3 q 824 3 843 -3 q 789 18 806 10 q 758 33 772 26 q 733 39 743 39 l 728 36 q 665 22 700 29 q 603 3 631 15 l 557 3 q 457 13 504 3 q 361 36 410 22 q 324 54 342 42 q 289 67 306 67 q 274 58 279 67 q 269 43 269 50 l 269 -42 q 278 -60 269 -43 q 293 -86 288 -78 q 342 -142 311 -121 q 410 -174 374 -162 q 485 -190 446 -186 q 560 -194 524 -194 q 704 -160 636 -194 q 807 -53 772 -125 l 810 -53 l 814 -53 l 818 -58 l 818 -61 q 808 -88 818 -72 q 790 -115 797 -104 q 686 -210 746 -175 q 550 -244 626 -244 q 441 -228 494 -244 q 346 -180 388 -211 q 278 -103 304 -149 q 253 3 253 -57 m 333 133 q 384 88 354 108 q 447 54 414 68 q 515 33 481 40 q 582 25 550 25 q 611 27 592 25 q 650 33 631 29 q 685 43 669 38 q 700 57 700 49 q 691 69 700 61 q 672 86 682 78 q 651 101 661 94 q 639 110 640 108 q 619 124 632 115 q 594 140 607 132 q 572 153 582 147 q 558 161 561 160 q 542 169 553 164 q 519 178 531 174 q 498 186 508 182 q 485 190 488 190 q 467 191 483 190 q 443 192 450 192 q 422 191 438 192 q 400 190 406 190 q 382 182 393 188 q 360 169 371 176 q 340 155 349 163 q 332 139 332 147 l 333 133 m 569 319 q 571 335 569 324 q 572 350 572 347 q 558 404 572 381 q 524 449 544 428 q 478 492 503 471 q 432 536 453 513 q 397 588 411 560 q 383 653 383 617 q 393 714 383 686 q 419 766 403 742 q 457 813 436 790 q 501 857 478 835 q 528 872 513 860 q 557 885 544 885 q 564 881 563 885 q 565 874 565 876 q 556 859 565 867 q 537 842 547 851 q 517 823 526 833 q 508 800 508 813 l 508 719 l 649 581 q 673 530 668 561 q 678 475 678 499 q 668 425 678 457 q 642 363 658 393 q 603 309 625 332 q 557 286 582 286 q 569 319 557 307 "},"R":{"ha":1543,"x_min":14,"x_max":1525,"o":"m 208 -10 q 251 97 213 50 q 344 176 289 144 q 462 226 399 208 q 578 243 525 243 q 674 235 625 243 q 768 210 724 228 q 794 193 778 206 q 827 168 810 181 q 860 145 844 156 q 883 135 875 135 q 897 141 886 135 q 922 156 908 147 q 946 172 935 164 q 960 182 957 179 q 980 201 967 189 q 993 215 993 214 l 993 507 l 919 507 q 899 526 907 507 q 892 556 892 544 q 901 570 892 565 q 919 576 911 575 l 976 576 q 985 585 981 579 q 989 593 989 590 l 993 785 q 987 813 985 794 q 989 836 989 832 q 987 853 988 842 q 985 874 986 864 q 983 891 983 883 q 982 899 982 899 l 976 903 q 966 897 976 906 q 949 882 956 888 l 864 797 q 856 782 861 789 q 847 768 851 775 q 847 739 847 760 q 845 695 846 718 q 843 651 844 672 q 842 622 842 631 q 803 493 835 553 q 721 389 771 433 q 608 319 671 344 q 476 293 544 293 q 397 307 436 293 q 325 346 357 321 q 273 406 293 371 q 253 485 253 442 q 278 575 253 540 q 361 610 303 610 q 425 582 399 610 q 451 515 451 554 q 428 454 451 478 q 367 431 406 431 q 337 436 351 431 q 307 442 322 442 q 300 438 301 442 q 299 431 299 433 q 318 378 299 400 q 365 340 338 356 q 422 317 392 325 q 476 310 453 310 q 492 310 481 310 q 508 311 504 311 q 535 322 519 318 q 558 328 551 325 q 649 400 617 350 q 689 508 682 450 l 689 585 q 683 675 689 631 q 660 758 676 719 q 613 826 643 796 q 536 875 583 857 q 508 876 529 876 q 481 876 488 876 q 443 876 460 876 q 410 876 426 876 q 378 874 394 875 q 339 869 361 872 q 324 868 335 869 q 300 865 313 867 q 276 861 288 863 q 260 858 264 860 q 251 856 258 858 q 243 853 244 853 l 236 853 q 147 869 188 853 q 76 915 106 886 q 31 985 47 944 q 14 1075 14 1026 q 30 1064 22 1075 q 50 1040 38 1053 q 81 1017 63 1028 q 132 1006 100 1006 q 208 1014 172 1006 q 282 1033 243 1022 q 313 1039 290 1035 q 358 1047 335 1043 q 404 1053 382 1050 q 435 1057 426 1057 l 478 1057 q 563 1048 524 1057 q 635 1022 601 1039 q 699 981 668 1006 q 761 926 729 957 q 783 896 775 914 q 797 859 790 878 q 813 824 804 840 q 835 797 821 807 q 917 879 878 836 q 1006 956 957 922 q 1016 961 1007 956 q 1038 974 1025 967 q 1063 989 1050 982 q 1083 1000 1076 996 q 1126 1023 1099 1008 q 1183 1051 1153 1038 q 1240 1074 1213 1064 q 1285 1083 1268 1083 q 1278 1062 1285 1071 q 1263 1042 1271 1053 q 1247 1019 1254 1032 q 1240 989 1240 1007 q 1241 975 1240 983 q 1242 967 1242 967 l 1315 875 q 1338 827 1331 857 q 1344 772 1344 797 q 1342 735 1344 749 q 1326 694 1339 722 q 1291 653 1306 678 q 1253 610 1276 629 q 1228 595 1244 603 q 1194 580 1211 588 q 1164 565 1176 572 q 1151 551 1151 557 l 1151 549 q 1218 516 1183 535 q 1276 469 1253 497 q 1302 419 1293 450 q 1318 352 1311 388 q 1333 281 1325 317 q 1353 217 1340 246 q 1384 169 1365 188 q 1433 151 1403 151 q 1478 172 1458 151 q 1514 210 1497 192 l 1525 210 l 1525 199 q 1515 185 1525 197 q 1497 165 1504 172 q 1481 149 1494 161 q 1453 122 1468 136 q 1426 96 1439 108 q 1411 81 1414 83 q 1402 67 1410 78 q 1386 46 1394 57 q 1369 24 1378 35 q 1360 11 1361 14 q 1351 1 1353 3 q 1342 0 1350 0 q 1332 1 1335 0 q 1322 7 1329 1 q 1276 37 1299 22 q 1235 68 1254 51 q 1200 105 1215 85 q 1175 153 1185 125 q 1162 206 1164 181 q 1157 260 1160 232 q 1152 304 1156 274 q 1146 368 1149 335 q 1140 430 1143 401 q 1135 469 1136 458 q 1123 513 1132 493 q 1086 532 1114 532 q 1056 529 1069 532 q 1022 519 1043 526 q 1018 517 1019 519 q 1017 515 1017 515 q 1013 494 1015 510 q 1010 475 1010 479 l 1010 219 q 1007 204 1010 215 q 1000 186 1004 193 q 972 169 992 182 q 931 142 953 156 q 890 115 910 128 q 864 97 871 101 q 813 58 835 76 q 768 11 792 39 q 763 2 761 4 q 757 0 764 0 l 750 0 q 451 131 632 131 q 378 124 418 131 q 305 101 339 118 q 248 56 271 85 q 225 -17 225 28 q 251 -83 225 -51 q 316 -139 278 -115 q 396 -177 354 -162 q 468 -192 438 -192 l 667 -192 q 740 -176 704 -192 q 810 -135 776 -160 q 871 -80 843 -110 q 919 -22 899 -50 l 932 -22 l 932 -28 q 928 -36 931 -31 q 925 -44 926 -42 q 872 -106 903 -72 q 805 -168 842 -139 q 728 -217 768 -197 q 649 -236 689 -236 l 481 -236 q 394 -217 442 -236 q 303 -167 346 -199 q 233 -95 261 -136 q 208 -10 206 -54 m 1006 578 l 1026 569 l 1111 569 q 1147 578 1129 569 q 1178 602 1164 588 q 1200 635 1192 617 q 1208 669 1208 653 q 1195 711 1208 693 q 1166 747 1182 729 q 1137 783 1150 764 q 1124 826 1124 801 q 1138 901 1124 868 q 1175 967 1151 933 q 1183 976 1176 969 q 1197 993 1190 983 q 1210 1013 1204 1003 q 1215 1031 1215 1022 q 1167 1017 1201 1031 q 1097 986 1132 1004 q 1033 950 1061 968 q 1006 922 1006 932 l 1006 578 "},"S":{"ha":1068,"x_min":17,"x_max":1050,"o":"m 203 -256 q 137 -220 169 -242 q 77 -171 104 -199 q 33 -109 50 -143 q 17 -36 17 -75 q 33 47 17 11 q 78 109 50 82 q 142 158 107 136 q 215 203 178 181 q 296 235 253 226 q 383 243 339 243 q 481 231 435 243 q 487 228 482 231 q 497 224 492 226 q 508 221 503 222 q 514 219 513 219 l 517 219 l 518 219 q 522 222 519 219 q 525 225 524 224 l 525 269 q 525 301 525 281 q 522 343 525 322 q 508 381 518 364 q 481 400 499 397 q 460 398 474 401 q 440 406 446 394 l 440 408 q 446 417 440 414 q 459 423 451 421 q 474 428 467 425 q 485 433 481 431 q 519 481 513 458 q 525 540 525 503 q 525 551 525 544 q 524 567 525 560 q 519 581 522 575 q 508 586 515 586 q 476 572 489 586 q 444 551 463 558 q 431 548 440 550 q 411 543 421 546 q 393 538 401 540 q 383 535 385 535 l 332 535 q 237 544 283 535 q 153 576 190 553 q 94 636 117 599 q 72 732 72 674 q 108 865 72 815 q 200 944 144 915 q 322 990 256 974 q 451 1026 389 1007 q 463 1031 453 1026 q 488 1040 474 1035 q 515 1051 501 1046 q 535 1060 528 1057 q 552 1070 543 1063 q 570 1086 561 1078 q 588 1101 579 1094 q 603 1107 596 1107 q 620 1091 611 1107 q 644 1055 629 1075 q 684 1019 660 1035 q 749 1003 708 1003 q 799 1017 778 1003 q 837 1049 821 1032 q 864 1080 853 1065 q 886 1094 875 1094 q 863 1038 886 1068 q 808 981 840 1007 q 738 937 775 954 q 675 919 701 919 q 616 926 642 919 q 568 944 590 932 q 526 974 546 956 q 485 1015 507 992 l 481 1015 l 474 1015 q 395 992 436 1006 q 320 957 354 979 q 264 901 286 935 q 242 819 242 868 q 247 739 242 783 q 269 656 253 694 q 316 590 286 617 q 394 564 346 564 q 428 570 407 564 q 469 586 449 576 q 503 609 489 596 q 518 635 518 622 q 516 744 518 689 q 514 851 514 799 l 514 885 q 519 890 515 886 q 525 897 524 894 l 526 897 l 531 897 q 533 894 532 897 q 535 892 535 892 q 540 832 539 864 q 542 767 542 800 q 542 704 543 735 q 542 649 542 674 q 544 645 542 647 q 547 643 547 643 l 550 643 l 553 643 q 635 669 593 656 q 717 700 676 683 l 767 700 q 875 686 824 700 q 965 642 926 672 q 1027 567 1004 613 q 1050 457 1050 521 q 1037 364 1050 408 q 993 282 1024 319 q 981 269 986 274 q 974 262 976 265 q 967 254 971 258 q 958 242 964 250 q 851 182 914 207 q 726 132 789 157 q 609 76 664 107 q 525 0 554 46 l 518 0 q 465 47 496 25 q 401 85 435 69 q 330 109 367 100 q 260 118 293 118 q 183 112 222 118 q 110 89 143 106 q 55 42 76 72 q 33 -35 33 13 q 55 -112 33 -79 q 111 -169 76 -144 q 190 -208 146 -193 q 278 -233 233 -224 q 366 -247 324 -243 q 440 -250 408 -250 q 567 -228 504 -250 q 683 -169 631 -206 q 722 -133 697 -160 q 770 -80 746 -107 q 813 -31 794 -53 q 835 -10 831 -10 l 835 -24 q 830 -31 835 -24 q 819 -49 825 -39 q 806 -69 813 -58 q 794 -85 799 -79 q 692 -196 750 -146 q 558 -265 633 -246 q 539 -270 551 -268 q 513 -274 526 -272 q 487 -280 499 -276 q 468 -289 475 -283 l 425 -289 q 314 -280 367 -289 q 203 -256 261 -271 m 547 203 l 553 197 q 571 183 558 193 q 598 160 583 172 q 626 138 613 149 q 643 124 639 128 l 656 124 q 716 142 682 124 q 781 190 750 161 q 836 249 813 218 q 868 306 860 281 q 876 331 874 319 q 879 352 878 342 q 881 374 881 363 q 881 400 881 385 q 862 527 881 471 q 790 632 843 583 q 760 652 776 644 q 725 660 744 660 l 722 660 q 703 659 715 660 q 679 657 690 658 q 659 655 668 656 q 649 653 650 654 q 618 647 636 651 q 583 635 600 643 q 553 617 565 628 q 542 590 542 606 l 542 569 q 542 547 542 563 q 544 513 543 531 q 547 478 546 494 q 547 457 547 463 q 576 428 561 433 q 619 417 592 424 l 619 406 q 565 388 588 401 q 542 336 542 374 l 542 322 q 542 298 542 315 q 544 262 543 281 q 547 226 546 243 q 547 203 547 208 "},"T":{"ha":1186,"x_min":17,"x_max":1169,"o":"m 258 26 q 259 67 258 46 q 265 106 260 88 q 268 113 265 107 q 274 126 271 119 q 279 138 276 132 q 282 144 282 143 l 282 150 l 282 157 q 216 256 246 201 q 175 369 186 311 q 175 385 175 374 q 174 408 175 396 q 174 432 174 421 q 174 447 174 443 q 187 577 174 524 q 228 672 200 631 q 298 751 256 714 q 400 833 340 789 q 441 867 419 849 q 490 886 463 886 l 490 874 q 360 747 404 825 q 315 572 315 668 q 329 433 315 497 q 389 308 343 369 q 403 290 399 294 q 419 285 407 285 q 489 300 454 285 q 561 315 524 315 q 617 307 589 315 q 672 292 644 299 q 695 276 685 288 q 718 264 706 264 q 741 283 738 264 q 744 315 744 301 q 731 372 744 347 q 698 419 718 397 q 654 461 678 440 q 610 506 631 482 q 577 559 590 531 q 564 626 564 588 q 576 690 564 660 q 606 746 588 719 q 646 797 624 772 q 689 844 668 821 q 699 856 690 847 q 710 867 708 865 l 711 869 q 701 883 711 876 q 689 890 690 889 l 428 1025 q 343 1051 393 1044 q 253 1058 293 1058 q 141 1031 188 1058 q 50 957 94 1004 q 40 927 42 940 q 39 897 39 914 q 77 814 39 839 q 168 789 115 789 q 204 789 192 789 q 242 800 218 789 q 275 824 260 807 q 308 840 290 840 q 291 803 308 819 q 250 775 274 786 q 200 758 226 764 q 157 753 174 753 q 106 763 132 753 q 61 791 81 774 q 29 832 42 808 q 17 883 17 856 q 59 1010 17 960 q 165 1090 101 1060 q 300 1131 228 1119 q 432 1143 372 1143 q 507 1135 468 1143 q 582 1115 546 1128 q 621 1097 607 1106 q 660 1086 635 1089 q 742 1041 700 1067 q 828 993 785 1015 q 918 956 872 971 q 1011 940 964 940 q 1104 976 1068 940 q 1161 1058 1140 1013 l 1169 1058 q 1156 998 1169 1028 q 1121 943 1142 968 q 1074 898 1100 918 q 1022 867 1047 878 q 942 847 982 850 q 861 844 901 844 q 808 851 833 844 q 756 857 783 857 q 722 847 738 857 q 694 820 706 836 q 676 785 683 804 q 669 750 669 767 q 697 681 669 708 q 758 623 725 653 q 819 555 792 593 q 847 456 847 517 q 835 376 847 413 q 800 310 822 340 q 749 252 778 279 q 689 201 721 225 q 674 191 683 199 q 657 183 664 183 q 644 199 656 183 q 615 233 633 214 q 569 267 596 251 q 510 282 543 282 q 496 281 507 282 q 474 278 485 281 q 453 272 463 276 q 444 260 444 268 l 444 258 q 508 203 475 222 q 578 174 542 183 q 654 158 615 164 q 733 144 693 153 l 903 144 q 924 151 911 151 q 942 161 938 151 q 943 192 942 169 q 946 238 944 214 q 948 285 947 263 q 949 315 949 307 q 948 340 949 322 q 946 379 947 358 q 943 418 944 400 q 942 443 942 436 q 926 460 933 450 q 918 481 918 469 q 930 508 918 496 q 942 536 942 521 q 938 658 942 594 q 931 776 933 721 q 934 801 932 790 q 950 811 936 811 q 959 810 953 811 q 965 806 965 810 l 965 528 q 981 508 979 519 q 983 483 983 497 q 981 456 983 467 q 958 433 978 444 l 958 393 l 958 353 q 960 317 958 343 q 962 263 961 292 q 964 209 963 235 q 965 174 965 183 q 971 167 967 168 q 978 167 975 167 q 1035 189 1007 167 q 1089 238 1064 211 q 1135 288 1114 265 q 1168 310 1156 310 q 1149 260 1168 290 q 1102 197 1129 229 q 1047 138 1075 165 q 1003 100 1019 111 q 926 52 961 71 q 856 22 890 33 q 781 7 821 11 q 692 3 742 3 q 542 22 611 3 q 400 72 474 40 q 378 85 392 76 q 349 103 364 94 q 322 120 335 113 q 301 128 310 128 q 285 115 290 128 q 278 84 281 101 q 275 50 275 67 q 275 28 275 33 q 305 -78 275 -33 q 381 -151 335 -122 q 484 -192 428 -179 q 594 -206 540 -206 l 656 -206 q 693 -194 671 -197 q 728 -189 715 -192 q 826 -144 776 -174 q 908 -75 876 -115 q 919 -60 913 -71 q 933 -36 925 -49 q 949 -15 940 -24 q 965 -6 957 -6 l 965 -14 q 911 -110 947 -67 q 828 -185 875 -154 q 726 -233 781 -217 q 618 -250 672 -250 q 492 -233 556 -250 q 376 -183 428 -217 q 291 -97 324 -149 q 258 26 258 -44 "},"U":{"ha":1442,"x_min":15,"x_max":1424,"o":"m 219 -33 q 255 88 219 36 q 344 172 290 139 q 463 222 399 206 q 586 239 528 239 l 593 239 q 610 235 597 236 q 626 232 624 233 q 651 226 636 229 q 682 219 667 222 q 709 213 697 215 q 724 210 721 210 q 776 181 749 200 q 831 153 803 161 q 833 152 831 153 q 839 151 836 151 q 842 152 840 151 q 847 153 844 153 q 890 180 875 169 q 925 210 904 190 q 929 213 926 210 q 932 215 932 215 l 932 1074 l 949 1074 l 949 283 l 953 243 l 957 243 q 981 250 967 243 q 1010 268 996 257 q 1034 292 1024 279 q 1044 317 1044 306 l 1044 740 q 1049 824 1044 779 q 1074 903 1054 868 q 1115 963 1086 929 q 1181 1026 1144 996 q 1256 1078 1218 1057 q 1326 1099 1294 1099 l 1326 1085 q 1271 1036 1293 1060 q 1235 986 1249 1013 q 1215 928 1221 960 q 1208 853 1210 896 q 1208 826 1208 847 q 1206 781 1207 806 q 1203 734 1204 756 q 1201 707 1201 713 l 1201 536 l 1201 368 q 1203 353 1201 364 q 1208 331 1206 343 q 1211 308 1210 319 q 1214 293 1213 297 q 1224 255 1217 278 q 1244 210 1232 232 q 1272 174 1256 189 q 1311 158 1289 158 l 1315 158 q 1335 165 1322 161 q 1350 169 1347 168 q 1363 178 1354 172 q 1383 192 1372 185 q 1403 206 1394 199 q 1417 215 1413 213 l 1424 215 q 1409 196 1424 211 q 1373 159 1394 181 q 1325 113 1351 138 q 1274 69 1299 89 q 1231 35 1250 49 q 1206 22 1213 22 q 1184 28 1190 22 q 1164 44 1178 35 q 1107 93 1136 65 q 1067 153 1078 121 q 1055 207 1060 176 q 1039 260 1050 238 q 1037 263 1039 261 q 1033 267 1035 265 l 1031 267 l 1026 267 q 861 139 946 201 q 706 0 776 76 l 700 0 q 606 74 658 44 q 490 103 554 103 q 413 99 457 103 q 330 81 369 94 q 263 40 290 67 q 236 -33 236 13 q 269 -117 236 -86 q 351 -165 303 -149 q 451 -187 399 -182 q 540 -192 503 -192 q 731 -147 649 -192 q 875 -10 813 -103 l 889 -10 q 885 -26 889 -21 q 875 -39 881 -31 q 731 -181 811 -126 q 540 -236 651 -236 q 439 -226 494 -236 q 334 -193 383 -217 q 252 -131 285 -169 q 219 -33 219 -92 m 219 489 q 255 578 219 546 q 343 611 290 611 q 420 589 393 611 q 447 515 447 567 q 447 497 447 511 q 444 481 447 483 q 404 428 436 444 q 339 411 372 411 q 311 415 324 411 q 285 418 299 418 l 282 418 q 278 415 281 417 q 276 414 276 414 q 291 376 276 393 q 326 348 306 360 q 369 328 347 336 q 407 317 392 321 l 451 317 q 523 319 483 317 q 593 340 563 321 q 646 390 624 360 q 683 454 668 419 q 704 526 697 489 q 711 600 711 564 q 697 700 711 647 q 656 797 683 753 q 585 870 628 842 q 485 899 543 899 l 181 899 q 113 922 143 899 q 60 978 82 944 q 27 1051 39 1013 q 15 1119 15 1089 q 28 1113 24 1119 q 38 1097 33 1106 q 47 1081 43 1089 q 57 1068 51 1072 q 110 1044 82 1049 q 169 1039 138 1039 q 192 1038 181 1039 q 215 1044 204 1038 q 262 1049 228 1046 q 333 1057 296 1053 q 405 1064 371 1061 q 451 1068 439 1067 l 468 1068 q 619 1044 550 1068 q 737 973 688 1019 q 814 860 786 926 q 842 708 842 793 q 837 642 842 678 q 822 572 832 607 q 797 503 811 536 q 761 447 782 471 q 751 435 761 446 q 729 409 742 424 q 703 380 717 394 q 683 357 690 365 q 635 322 664 335 q 572 303 606 310 q 506 295 539 297 q 449 293 474 293 q 367 308 408 293 q 294 348 326 322 q 240 410 261 374 q 219 489 219 446 "},"V":{"ha":1385,"x_min":15,"x_max":1367,"o":"m 185 -8 q 208 71 185 33 q 265 140 231 108 q 338 194 299 171 q 411 232 378 218 q 506 255 456 250 q 601 260 556 260 q 656 256 626 260 q 715 247 685 253 q 774 233 746 242 q 824 215 801 225 q 851 198 836 208 q 880 176 865 188 q 908 155 894 164 q 932 142 921 146 q 940 142 933 140 q 949 143 946 143 l 949 481 q 943 499 949 492 q 931 513 938 507 q 919 527 925 519 q 914 547 914 535 q 943 603 914 583 q 944 620 943 608 q 946 646 944 632 q 948 672 947 660 q 949 689 949 683 l 949 703 l 949 722 q 947 772 949 736 q 945 847 946 807 q 944 921 944 886 q 943 969 943 956 q 934 982 940 981 q 919 983 928 983 q 888 974 906 983 q 855 949 871 964 q 828 916 839 933 q 818 883 818 899 q 823 840 818 861 q 833 797 828 818 q 842 753 838 775 q 847 708 847 731 q 821 565 847 636 q 748 437 794 493 q 636 345 701 381 q 494 310 571 310 q 408 322 451 310 q 331 358 365 333 q 274 418 296 382 q 253 503 253 454 q 289 589 253 556 q 375 622 325 622 q 428 607 404 622 q 464 565 453 592 l 464 533 q 444 468 464 492 q 383 444 425 444 q 344 447 364 444 q 303 450 324 450 q 301 439 303 447 q 299 428 299 431 q 328 386 308 404 q 371 356 347 368 q 421 338 394 344 q 472 332 447 332 q 544 343 515 332 q 610 383 574 354 q 653 430 638 404 q 677 484 669 456 q 687 543 685 513 q 689 607 689 574 q 676 713 689 663 q 635 802 664 764 q 563 863 607 840 q 456 886 518 886 q 350 875 401 886 q 244 864 299 864 q 167 870 194 864 q 121 890 140 876 q 83 922 101 903 q 33 969 65 942 q 22 1010 28 986 q 15 1053 15 1033 q 31 1044 22 1053 q 51 1026 39 1036 q 79 1007 63 1015 q 119 999 96 999 q 250 1015 186 999 q 378 1044 314 1032 q 442 1050 407 1050 q 508 1050 478 1050 l 575 1050 q 694 1003 638 1038 q 790 919 750 968 l 794 919 q 807 925 803 919 q 861 992 836 963 q 915 1042 886 1022 q 981 1073 944 1063 q 1068 1083 1018 1083 q 1124 1071 1099 1083 q 1176 1044 1150 1058 q 1227 1017 1201 1029 q 1283 1006 1253 1006 q 1323 1027 1304 1006 q 1349 1067 1342 1049 l 1367 1067 q 1352 1019 1367 1044 q 1317 970 1338 993 q 1271 931 1296 947 q 1225 908 1246 914 l 1181 908 q 1137 911 1156 908 q 1100 919 1118 914 q 1063 933 1082 925 q 1022 953 1044 942 q 1003 966 1010 960 q 982 972 996 972 q 972 972 981 972 q 965 965 965 972 l 965 610 q 971 603 967 608 q 980 591 975 597 q 988 578 985 585 q 993 569 992 572 l 993 558 q 987 526 993 539 q 965 497 981 513 q 963 372 967 435 q 960 247 960 310 q 960 240 960 242 q 965 232 961 238 l 965 147 q 969 138 965 143 q 976 131 974 132 q 1042 159 1014 139 q 1091 208 1071 179 q 1121 272 1111 238 q 1131 342 1131 306 q 1119 417 1131 382 q 1093 488 1107 453 q 1067 558 1079 522 q 1056 635 1056 594 q 1065 688 1056 661 q 1078 740 1075 714 q 1113 788 1092 760 q 1161 842 1135 817 q 1216 887 1188 868 q 1272 906 1244 906 q 1258 878 1272 892 q 1226 851 1243 865 q 1195 820 1210 836 q 1181 785 1181 804 q 1183 751 1181 772 q 1197 722 1185 731 q 1232 649 1215 683 q 1261 579 1249 614 q 1281 509 1274 544 q 1289 432 1289 474 q 1272 344 1289 383 q 1225 265 1254 304 q 1131 180 1185 211 q 1018 123 1076 149 q 901 70 960 97 q 794 0 842 43 l 790 0 q 730 74 769 44 q 642 122 690 104 q 543 146 594 139 q 449 153 492 153 q 381 151 417 153 q 317 135 346 150 q 308 126 314 133 q 299 118 301 119 q 265 92 282 106 q 235 64 249 79 q 212 30 221 49 q 203 -11 203 11 q 206 -37 203 -29 q 219 -68 210 -46 q 271 -140 238 -111 q 345 -185 304 -168 q 431 -208 386 -201 q 519 -215 476 -215 q 643 -210 582 -215 q 761 -175 704 -204 q 815 -136 782 -165 q 877 -76 847 -107 q 929 -22 907 -46 q 953 1 951 1 q 935 -49 953 -26 q 897 -90 917 -71 q 817 -168 856 -136 q 735 -220 778 -200 q 642 -250 692 -240 q 528 -260 592 -260 q 416 -244 476 -260 q 304 -197 356 -228 q 219 -118 253 -165 q 185 -8 185 -71 "},"W":{"ha":1543,"x_min":11,"x_max":1525,"o":"m 140 -35 q 176 71 140 21 q 266 158 213 121 q 381 217 319 196 q 494 239 443 239 q 601 227 547 239 q 700 186 656 215 q 708 181 701 186 q 723 171 715 176 q 737 160 731 165 q 744 153 743 154 q 758 144 756 146 q 769 142 760 142 q 792 147 781 142 q 813 161 803 153 q 833 178 824 169 q 847 193 842 188 l 850 193 l 851 193 q 855 190 853 192 q 858 186 857 189 l 858 185 l 858 182 q 759 94 808 143 q 667 1 710 46 q 658 -3 664 0 q 649 -6 651 -6 q 633 5 642 -6 q 622 18 624 15 q 527 81 581 54 q 415 108 474 108 q 338 103 382 108 q 253 82 293 97 q 185 39 213 67 q 157 -35 157 11 q 194 -139 157 -100 q 285 -199 231 -178 q 399 -226 339 -219 q 507 -232 460 -232 q 576 -230 542 -232 q 643 -214 610 -228 q 739 -153 692 -194 q 814 -67 786 -111 q 817 -58 814 -65 q 824 -44 821 -51 q 831 -30 828 -36 q 835 -22 835 -24 q 843 -12 839 -17 q 856 -8 847 -8 q 840 -58 856 -31 q 800 -115 825 -86 q 743 -172 775 -144 q 679 -222 711 -200 q 617 -256 647 -243 q 565 -269 588 -269 l 394 -269 q 385 -268 393 -269 q 372 -265 376 -267 q 291 -233 332 -253 q 217 -185 250 -214 q 162 -119 183 -157 q 140 -35 140 -82 m 903 199 q 874 253 883 226 q 864 315 864 279 q 872 365 864 331 q 894 433 881 399 q 926 492 907 467 q 965 518 944 518 l 965 510 q 949 488 960 504 q 936 464 939 471 l 936 435 q 948 372 936 394 q 993 324 960 350 q 1022 301 1001 317 q 1067 269 1043 286 q 1111 237 1090 253 q 1140 215 1132 221 q 1172 196 1156 208 q 1202 169 1188 183 q 1231 146 1217 156 q 1257 136 1244 136 q 1278 142 1271 136 q 1299 158 1286 147 q 1352 227 1338 190 q 1367 311 1367 264 q 1353 387 1367 351 q 1324 457 1340 422 q 1295 528 1308 492 q 1282 608 1282 565 q 1310 733 1282 679 q 1383 836 1339 786 q 1389 845 1385 839 q 1394 853 1393 851 q 1408 864 1400 857 q 1424 877 1417 871 q 1438 888 1432 883 q 1444 893 1444 893 l 1461 893 l 1461 882 q 1413 830 1432 854 q 1393 765 1393 806 q 1400 723 1393 743 q 1417 684 1407 703 q 1440 647 1428 665 q 1461 611 1451 629 q 1492 528 1483 572 q 1501 440 1501 485 q 1482 349 1501 393 q 1432 266 1463 306 q 1365 192 1401 226 q 1293 132 1328 158 q 1222 73 1256 101 q 1157 7 1189 44 q 1152 1 1153 1 q 1147 0 1151 0 q 1143 1 1144 0 q 1140 1 1142 1 q 1130 13 1138 4 q 1113 30 1122 21 q 1096 47 1104 39 q 1083 58 1088 56 q 1048 87 1074 67 q 994 129 1022 107 q 940 171 965 151 q 903 199 914 190 m 232 499 q 264 578 232 544 q 343 611 296 611 q 414 592 381 611 q 447 531 447 574 q 432 478 447 494 q 390 436 417 461 q 383 430 388 433 q 378 426 378 426 l 306 426 l 299 418 q 303 409 299 418 q 310 397 307 400 q 380 342 342 357 q 467 328 418 328 q 567 349 526 328 q 632 406 607 369 q 667 491 657 443 q 678 593 678 539 q 667 679 678 636 q 633 758 656 722 q 576 821 610 794 q 497 860 542 847 l 443 860 q 339 851 390 860 q 233 842 288 842 q 149 856 189 842 q 78 898 110 871 q 29 962 47 925 q 11 1044 11 999 l 28 1044 q 58 998 33 1013 q 110 983 82 983 l 135 983 q 175 992 146 986 q 237 1003 204 997 q 299 1015 269 1010 q 339 1024 328 1021 q 353 1025 340 1024 q 384 1028 367 1026 q 420 1032 401 1031 q 451 1035 439 1033 l 456 1035 q 598 1011 528 1035 q 724 939 668 988 q 733 926 728 935 q 745 908 739 917 q 758 893 751 900 q 769 886 764 886 q 774 889 774 886 q 836 952 804 922 q 904 1003 868 982 q 981 1038 940 1025 q 1069 1051 1021 1051 q 1144 1044 1107 1051 q 1214 1017 1181 1036 q 1251 994 1232 1007 q 1291 970 1271 982 q 1332 951 1311 958 q 1375 943 1353 943 q 1437 958 1413 943 q 1478 992 1461 974 q 1505 1026 1494 1011 q 1525 1042 1515 1042 l 1525 1028 q 1522 1021 1525 1028 q 1514 1005 1518 1014 q 1505 987 1510 996 q 1497 972 1500 978 q 1403 882 1463 915 q 1278 849 1344 849 q 1194 859 1238 849 q 1111 882 1151 869 q 1063 903 1086 890 q 1017 928 1040 917 q 970 949 994 940 q 917 957 946 957 q 881 947 903 957 q 840 921 860 936 q 805 888 819 906 q 790 856 790 869 l 790 842 q 808 760 799 800 q 818 675 818 719 q 792 545 818 606 q 728 431 765 485 q 614 340 678 369 q 475 311 550 311 q 447 311 458 311 q 426 311 436 311 q 408 313 418 311 q 383 317 397 314 q 328 341 356 322 q 280 385 301 360 q 245 440 258 411 q 232 499 232 469 m 1094 403 q 1080 451 1094 429 q 1045 492 1065 472 q 1004 532 1025 513 q 972 572 983 551 q 943 643 950 608 q 936 719 936 678 q 949 779 936 750 q 982 832 963 808 q 996 846 988 838 q 1013 863 1004 854 q 1027 876 1021 871 q 1033 882 1033 882 l 1051 882 q 1042 849 1051 864 q 1033 814 1033 833 q 1058 749 1033 775 q 1113 697 1083 724 q 1167 635 1142 671 q 1192 540 1192 600 q 1162 428 1192 478 q 1094 335 1132 378 q 1083 319 1092 329 q 1065 310 1075 310 q 1070 333 1065 322 q 1080 356 1075 344 q 1090 378 1085 367 q 1094 403 1094 389 "},"X":{"ha":1289,"x_min":15,"x_max":1215,"o":"m 67 -90 q 56 -51 61 -72 q 50 -11 50 -29 q 84 91 50 44 q 168 172 118 138 q 276 224 218 206 q 381 243 333 243 q 469 229 425 243 q 553 192 514 215 q 567 180 554 190 q 582 169 579 169 q 586 168 582 168 q 593 168 590 168 q 630 193 614 168 q 657 251 646 218 q 674 317 668 285 q 683 367 681 350 q 684 379 683 367 q 685 409 685 392 q 687 444 686 426 q 689 474 688 463 l 689 476 l 689 481 q 685 508 686 490 q 683 525 683 525 l 676 531 q 663 532 674 532 q 647 532 651 532 q 592 527 619 532 q 543 510 565 522 q 506 478 521 499 q 485 428 490 458 l 481 428 q 475 465 476 450 q 474 500 474 481 q 490 572 474 539 q 535 626 507 604 q 598 659 563 649 q 672 665 633 669 l 676 672 q 677 681 676 672 q 678 693 678 690 q 675 749 678 718 q 663 810 672 781 q 635 862 653 839 q 586 892 617 885 q 569 894 582 892 q 542 897 556 896 q 515 901 528 899 q 497 903 501 903 l 451 903 q 329 894 389 903 q 207 885 269 885 q 133 900 168 885 q 72 942 99 915 q 31 1003 46 968 q 15 1078 15 1039 q 31 1070 24 1078 q 47 1053 39 1063 q 61 1035 54 1044 q 74 1022 68 1026 q 92 1021 76 1022 q 110 1019 107 1019 q 214 1027 163 1019 q 317 1043 265 1035 q 420 1059 368 1051 q 525 1067 472 1067 l 599 1067 q 707 1024 657 1050 q 794 949 757 999 q 805 930 800 940 q 815 909 810 919 q 825 890 819 899 q 840 875 831 881 q 847 881 842 875 q 921 983 881 933 q 993 1089 961 1033 q 996 1090 993 1090 q 999 1090 999 1090 q 1010 1079 1003 1090 q 1028 1055 1018 1068 q 1053 1031 1039 1042 q 1085 1019 1067 1019 q 1130 1030 1115 1019 q 1153 1052 1144 1040 q 1167 1074 1161 1064 q 1186 1085 1172 1085 q 1174 1020 1186 1056 q 1140 955 1161 985 q 1091 905 1119 925 q 1031 885 1063 885 q 970 903 996 885 q 919 942 944 922 q 917 942 918 942 q 917 943 917 943 q 888 915 900 943 q 867 852 875 888 q 856 784 860 817 q 851 742 851 751 l 851 733 q 854 708 851 728 q 857 683 857 689 q 874 672 864 672 q 893 672 883 672 q 928 672 907 672 q 971 674 950 671 q 1009 688 992 678 q 1032 717 1026 697 q 1031 726 1032 718 q 1031 743 1031 733 q 1034 760 1032 753 q 1043 768 1036 768 q 1050 767 1049 768 q 1055 741 1054 751 q 1056 717 1056 731 q 1008 567 1056 611 q 857 525 960 524 q 851 515 850 524 q 851 503 851 506 q 856 413 851 457 q 875 331 861 369 q 915 259 889 292 q 982 203 940 226 q 1022 182 1006 189 q 1065 175 1038 175 q 1147 200 1115 175 q 1201 269 1179 225 l 1215 269 q 1200 226 1215 250 q 1174 186 1185 201 q 1110 101 1136 136 q 1056 17 1083 65 q 1048 3 1049 6 q 1039 0 1047 0 l 1032 0 q 951 29 996 8 q 875 68 907 50 q 803 119 829 92 q 750 192 776 147 q 734 228 743 206 q 710 260 725 250 q 687 231 696 250 q 665 197 678 211 q 580 108 617 149 q 501 17 543 68 l 490 6 l 489 6 l 485 6 q 429 59 453 38 q 381 94 406 81 q 324 113 356 107 q 244 118 293 118 q 185 113 217 118 q 128 93 154 107 q 84 56 101 79 q 67 -6 67 32 q 90 -89 67 -54 q 149 -147 113 -124 q 229 -181 185 -169 q 315 -192 274 -192 q 414 -187 369 -192 q 497 -169 458 -182 q 572 -131 536 -156 q 643 -68 607 -107 q 656 -47 649 -61 q 670 -17 663 -32 q 685 8 678 -3 q 700 19 693 19 q 687 -30 700 -6 q 660 -74 674 -54 q 592 -147 631 -117 q 510 -197 554 -178 q 419 -224 467 -215 q 319 -232 371 -232 q 247 -222 285 -232 q 176 -192 210 -211 q 113 -148 142 -174 q 67 -90 85 -122 "},"Y":{"ha":1361,"x_min":14,"x_max":1343,"o":"m 556 -118 q 480 -129 515 -118 q 413 -159 444 -140 q 351 -202 381 -178 q 293 -253 322 -226 l 282 -253 l 282 -242 q 294 -228 282 -240 q 322 -201 306 -217 q 355 -171 338 -186 q 383 -147 372 -156 q 506 -74 436 -104 q 643 -33 575 -44 l 700 -33 q 783 -40 747 -33 q 849 -62 819 -47 q 906 -100 879 -76 q 965 -158 933 -124 l 982 -158 q 1033 -147 999 -158 q 1103 -117 1068 -135 q 1164 -76 1138 -99 q 1190 -33 1190 -54 l 1190 57 q 1176 82 1190 64 q 1145 122 1163 100 q 1110 165 1128 143 q 1083 199 1092 186 l 1072 199 q 1064 192 1071 197 q 1047 177 1057 186 q 1032 164 1038 168 q 931 85 983 121 q 835 0 879 50 l 824 0 l 778 44 l 619 153 q 586 178 601 157 q 558 223 571 199 q 538 267 546 247 q 525 289 529 286 q 439 309 482 293 q 362 351 396 325 q 307 415 328 378 q 286 500 286 453 q 297 542 286 522 q 324 577 307 563 q 361 601 340 592 q 403 610 382 610 q 470 587 443 610 q 497 524 497 564 q 487 465 497 486 q 457 434 476 444 q 410 422 438 424 q 350 424 383 421 q 346 422 349 424 q 343 418 343 419 q 360 378 343 397 q 401 346 376 360 q 451 324 425 332 q 493 315 476 315 q 506 316 496 315 q 518 317 515 317 q 529 356 525 332 q 535 390 533 379 q 551 435 540 410 q 579 481 563 460 q 617 517 596 503 q 661 532 638 532 q 656 517 661 524 q 642 503 650 510 q 627 492 635 497 q 615 481 619 486 q 592 401 592 444 q 592 385 592 394 q 594 366 592 375 q 601 350 596 357 q 615 343 606 343 q 660 361 642 343 q 689 404 678 379 q 705 456 700 429 q 710 501 710 483 q 710 513 710 503 q 711 535 711 522 q 711 560 711 547 q 711 581 711 572 q 703 675 711 628 q 677 763 696 722 q 625 835 658 803 q 542 886 592 867 q 465 899 506 899 q 389 899 425 899 q 372 899 383 899 q 361 897 361 899 l 350 892 l 175 892 q 108 911 138 892 q 57 960 78 931 q 25 1024 36 989 q 14 1090 14 1058 q 36 1080 28 1090 q 53 1056 44 1069 q 72 1033 61 1043 q 99 1022 82 1022 l 101 1022 l 339 1050 q 392 1061 363 1061 q 449 1061 422 1061 q 619 1042 543 1061 q 750 978 696 1022 q 834 862 804 933 q 864 686 864 790 q 813 465 864 563 q 643 317 763 367 l 643 310 q 651 294 643 301 q 672 280 660 286 q 696 268 683 274 q 717 260 708 263 q 748 246 725 256 q 796 226 771 236 q 843 206 821 215 q 875 192 865 196 q 908 167 889 179 q 942 147 926 156 l 949 147 q 955 148 951 147 q 958 153 958 149 l 957 475 l 957 514 l 953 1067 q 958 1072 953 1072 l 961 1074 l 965 1072 l 969 976 l 969 243 l 976 232 l 976 169 q 980 161 976 167 q 986 153 983 156 q 1017 173 1001 160 q 1044 202 1032 186 q 1065 236 1057 218 q 1072 272 1072 254 l 1072 842 q 1101 923 1072 879 q 1170 1004 1129 967 q 1258 1066 1211 1042 q 1340 1090 1304 1090 q 1328 1068 1340 1081 q 1301 1043 1317 1056 q 1272 1017 1286 1031 q 1251 993 1257 1004 q 1239 947 1243 974 q 1235 903 1235 921 l 1235 367 q 1242 322 1235 340 q 1262 290 1250 304 q 1289 260 1274 275 q 1319 226 1304 246 q 1341 178 1339 204 q 1343 125 1343 151 l 1343 81 q 1281 -35 1322 10 q 1178 -114 1240 -79 q 1141 -127 1161 -122 q 1106 -147 1121 -132 l 892 -208 q 866 -222 879 -212 q 840 -240 853 -231 q 813 -258 826 -250 q 790 -265 800 -265 q 777 -251 788 -265 q 753 -217 767 -236 q 726 -181 739 -199 q 706 -158 713 -164 q 635 -125 669 -132 q 556 -118 600 -118 "},"Z":{"ha":961,"x_min":17,"x_max":943,"o":"m 17 10 q 37 83 17 47 q 88 150 57 119 q 155 203 118 181 q 225 236 192 225 q 349 262 288 257 q 474 265 411 267 l 481 269 l 481 372 q 456 390 463 381 q 450 414 450 399 q 456 438 450 429 q 481 457 463 447 l 481 575 q 473 581 481 582 q 464 581 465 581 q 406 566 436 581 q 348 531 376 551 q 294 486 319 510 q 253 444 269 463 l 236 444 l 236 450 q 279 513 247 482 q 339 564 311 543 q 347 569 340 565 q 361 579 353 574 q 378 590 369 585 q 390 597 386 594 q 400 602 393 600 q 407 611 407 604 q 383 623 407 617 q 330 643 358 629 q 277 683 301 657 q 253 753 253 708 l 253 783 q 286 819 269 804 q 332 835 303 835 q 366 830 349 835 q 398 815 383 825 q 422 791 413 806 q 431 758 431 776 q 422 726 431 740 q 404 701 414 711 q 386 684 394 690 q 378 674 378 678 q 388 659 378 664 q 413 652 399 654 q 440 649 426 650 q 458 649 453 649 q 467 649 463 649 q 474 653 472 649 q 474 681 474 660 q 475 707 475 701 q 472 771 475 739 q 468 835 468 803 l 468 857 q 477 867 472 865 q 489 869 482 869 q 499 867 496 869 q 501 857 501 865 l 501 653 l 508 649 q 517 648 508 649 q 531 647 526 647 q 603 658 569 647 q 663 691 638 669 q 702 744 688 713 q 717 817 717 776 q 688 905 717 875 q 603 942 660 935 l 533 942 q 465 942 500 942 q 400 931 432 942 l 249 931 q 238 933 247 931 q 225 936 229 935 q 165 962 196 946 q 106 1001 133 978 q 62 1052 79 1024 q 44 1117 44 1081 q 53 1128 44 1128 q 65 1115 57 1128 q 85 1085 72 1101 q 117 1056 99 1069 q 164 1043 136 1043 q 261 1051 213 1043 q 359 1069 310 1060 q 458 1086 408 1078 q 557 1094 507 1094 q 620 1094 588 1094 q 683 1089 653 1093 q 758 1063 722 1083 q 819 1014 793 1043 q 860 949 844 985 q 875 874 875 913 q 867 815 875 846 q 842 761 860 785 q 786 709 814 726 q 722 669 758 692 q 719 668 722 669 q 717 665 717 667 l 717 661 q 726 653 717 657 q 746 645 735 649 q 767 640 757 642 q 778 636 776 638 q 899 547 856 604 q 943 408 943 490 q 907 265 943 331 q 797 168 871 200 q 742 144 767 156 q 694 122 717 133 q 649 97 671 111 q 603 61 628 82 l 575 33 q 569 17 574 31 q 556 3 564 3 q 540 15 553 3 q 510 41 526 26 q 476 70 493 56 q 444 89 458 85 q 338 122 393 108 q 225 135 282 135 q 172 128 200 135 q 116 110 143 122 q 67 81 89 99 q 33 39 46 63 l 33 7 q 67 -97 33 -58 q 152 -156 101 -136 q 262 -183 203 -176 q 369 -189 321 -189 l 424 -189 q 450 -178 432 -179 q 474 -176 468 -178 q 592 -136 539 -162 q 683 -51 644 -110 q 703 -23 690 -42 q 724 8 715 -4 q 733 22 732 21 l 742 22 q 728 -18 742 3 q 576 -179 663 -119 q 365 -239 489 -239 q 247 -225 308 -239 q 135 -181 186 -211 q 50 -104 83 -151 q 17 10 17 -57 m 497 297 q 508 259 497 274 q 537 233 519 244 q 574 212 554 221 q 610 190 593 203 q 622 179 614 188 q 640 163 631 171 q 658 147 649 154 q 674 140 668 140 q 704 153 688 140 q 735 185 721 167 q 758 224 749 204 q 768 258 768 244 l 768 406 q 766 415 768 407 q 761 435 764 424 q 755 456 758 446 q 750 474 751 467 q 719 531 740 508 q 672 568 699 554 q 613 588 644 582 q 547 593 581 593 q 528 592 540 593 q 514 592 515 592 l 497 575 l 497 556 q 496 504 497 532 q 508 457 494 476 q 526 436 519 440 q 532 411 532 432 q 531 404 532 408 q 531 400 531 400 q 515 386 528 397 q 501 372 503 375 q 498 338 499 363 q 497 297 497 313 "},"a":{"ha":792,"x_min":17,"x_max":774,"o":"m 490 208 q 457 192 482 208 q 403 156 432 176 q 349 114 375 135 q 310 85 322 93 q 290 70 304 81 q 261 49 276 60 q 233 26 246 38 q 214 11 219 15 q 210 10 214 11 q 206 10 207 10 q 176 24 190 10 q 151 44 163 38 q 120 63 138 56 q 90 85 103 71 q 31 194 42 133 q 22 322 19 256 q 17 331 18 326 q 17 342 17 335 q 35 415 17 376 q 83 488 54 453 q 143 550 111 522 q 203 592 175 578 q 223 599 207 593 q 257 613 239 606 q 290 625 275 619 q 310 632 306 631 q 376 665 347 647 q 440 706 404 682 q 449 710 447 708 q 457 711 451 711 l 461 711 q 469 705 464 710 q 474 700 474 700 q 514 662 492 682 q 560 625 536 642 q 611 597 585 608 q 665 586 638 586 q 685 590 676 586 q 706 593 694 593 q 717 583 717 593 l 717 582 l 632 497 q 631 485 632 496 q 629 458 631 474 q 627 426 628 443 q 626 400 626 410 q 626 388 626 400 q 625 369 625 376 q 627 278 625 321 q 632 181 629 235 q 658 140 639 157 q 701 124 678 124 q 723 129 714 124 q 740 142 732 135 q 756 154 747 149 q 774 160 764 160 l 774 147 q 769 140 774 146 q 758 128 764 135 q 744 113 751 121 q 733 101 738 106 q 705 73 722 90 q 672 40 688 56 q 644 12 656 24 q 632 0 632 0 l 619 0 q 601 10 618 0 q 575 28 583 21 q 527 72 550 47 q 501 131 504 96 q 501 153 500 144 q 502 169 501 161 q 502 184 503 176 q 497 203 501 192 q 490 208 492 208 m 131 340 q 140 267 131 306 q 169 197 150 229 q 219 144 189 165 q 290 124 249 124 q 340 135 315 124 q 387 161 364 146 q 431 192 410 176 q 468 219 451 208 q 489 233 479 226 q 501 253 499 240 l 501 293 l 501 333 q 501 369 501 343 q 499 426 500 396 q 498 482 499 456 q 497 518 497 508 q 416 583 463 556 q 318 610 369 610 l 310 610 q 291 605 303 608 q 268 597 279 601 q 247 590 257 593 q 236 586 238 588 q 179 540 200 567 q 148 481 158 513 q 134 413 138 449 q 131 340 131 378 "},"b":{"ha":701,"x_min":15,"x_max":683,"o":"m 17 135 q 16 138 17 135 q 15 143 15 142 q 31 153 15 147 q 67 173 47 160 q 102 208 86 186 q 118 264 118 231 l 118 789 q 122 806 119 792 q 124 824 124 819 q 151 911 128 871 q 208 981 174 951 q 288 1026 243 1010 q 381 1043 332 1043 q 437 1035 407 1043 q 492 1010 467 1026 q 533 971 517 994 q 549 915 549 947 q 531 851 549 879 q 472 822 513 822 q 410 842 436 822 q 383 899 383 863 q 415 954 383 938 q 481 975 446 971 l 481 981 q 468 1003 481 994 q 438 1017 456 1011 q 403 1024 421 1022 q 378 1026 386 1026 q 281 985 319 1026 q 242 885 242 944 l 242 592 q 244 570 242 583 q 260 557 247 557 l 265 557 q 279 569 269 561 q 301 587 289 578 q 324 603 313 596 q 339 614 335 611 q 353 619 342 615 q 367 625 364 624 q 428 664 404 643 q 485 710 453 685 l 489 710 q 499 696 492 710 q 508 682 507 682 q 548 649 528 658 q 592 619 568 639 q 658 542 633 585 q 683 443 683 499 q 653 308 683 364 q 576 205 622 251 q 477 116 531 158 q 378 22 424 74 q 374 10 381 13 q 364 8 368 8 q 334 20 353 8 q 306 39 315 32 q 235 74 269 57 q 167 105 201 92 q 95 126 132 118 q 17 135 58 135 m 249 225 q 285 197 257 214 q 344 163 313 179 q 404 134 376 146 q 443 122 432 122 q 456 124 454 122 q 468 135 458 126 q 544 216 513 169 q 575 324 575 263 q 575 333 575 331 q 569 343 575 338 q 557 431 569 386 q 520 511 544 475 q 459 569 496 547 q 374 592 422 592 q 303 565 333 592 q 249 511 274 539 q 247 495 249 507 q 245 470 246 483 q 243 444 244 457 q 242 428 242 432 l 242 425 l 242 422 q 243 406 242 419 q 246 378 244 393 q 248 351 247 364 q 249 336 249 339 l 249 225 "},"c":{"ha":503,"x_min":17,"x_max":485,"o":"m 17 358 q 34 436 17 399 q 78 506 51 474 q 136 565 104 538 q 197 614 168 593 q 257 654 231 638 q 310 703 283 671 q 313 707 311 706 q 315 710 315 708 l 318 710 q 329 701 324 710 q 344 684 335 693 q 367 667 353 675 q 403 658 381 658 l 428 658 q 438 670 433 663 q 449 686 443 678 q 460 700 454 694 q 474 706 467 706 q 464 661 474 686 q 438 615 454 636 q 401 578 422 593 q 358 564 381 564 q 296 576 319 564 q 242 608 272 589 l 236 608 q 206 596 221 608 q 176 565 190 583 q 153 528 163 547 q 140 494 143 508 q 135 446 136 475 q 135 393 135 417 l 135 356 q 146 318 146 340 q 151 282 146 297 q 174 231 160 257 q 209 184 189 206 q 254 149 229 163 q 308 135 279 135 q 359 138 338 135 q 399 147 381 140 q 437 164 418 153 q 478 192 456 175 l 485 192 l 485 181 q 480 174 485 179 q 469 163 475 169 q 456 151 463 157 q 444 140 449 144 q 374 81 408 110 q 315 10 340 53 q 303 6 311 6 l 299 6 q 169 55 222 28 q 81 123 115 82 q 32 221 47 164 q 17 358 17 278 "},"d":{"ha":650,"x_min":17,"x_max":632,"o":"m 17 317 q 21 391 17 356 q 44 461 25 426 q 99 527 67 497 q 168 581 132 557 q 189 591 174 583 q 208 601 204 599 q 247 622 228 613 q 286 642 267 631 q 293 647 290 642 l 293 650 q 278 663 293 653 q 242 688 264 672 q 194 726 219 704 q 146 773 168 747 q 109 829 124 799 q 94 894 94 860 q 143 1025 94 981 q 274 1069 192 1069 q 315 1051 296 1069 q 333 1010 333 1032 q 331 994 333 997 q 315 990 328 990 l 303 990 q 269 1028 283 1014 q 224 1042 254 1042 q 163 1019 186 1042 q 140 958 140 996 q 176 878 140 913 q 267 810 213 843 q 386 743 322 778 q 505 663 450 708 q 596 558 560 618 q 632 415 632 499 q 624 337 632 376 q 600 262 617 297 q 557 196 583 226 q 494 144 531 165 q 423 108 463 125 q 356 67 383 92 q 346 56 353 64 q 330 40 339 49 q 313 24 321 32 q 303 15 306 17 q 299 13 303 15 q 293 10 294 10 l 290 10 q 265 15 279 10 q 235 26 250 19 q 206 40 219 33 q 185 50 193 46 q 58 156 100 88 q 17 317 17 224 m 118 385 q 133 283 118 331 q 177 199 147 235 q 251 144 207 164 q 356 124 296 124 q 439 140 406 124 q 493 185 472 157 q 522 253 514 214 q 531 339 531 293 q 481 512 531 442 q 343 631 431 582 q 335 635 336 633 q 326 636 333 636 q 292 626 311 636 q 258 607 272 615 q 194 563 221 583 q 150 519 167 543 q 126 463 133 494 q 118 385 118 431 "},"e":{"ha":508,"x_min":17,"x_max":490,"o":"m 17 365 q 38 463 17 421 q 93 540 60 506 q 169 603 126 575 q 253 658 211 631 q 265 672 258 663 q 277 690 271 681 q 290 708 283 700 q 303 715 296 715 q 310 714 308 715 q 400 661 358 690 q 461 578 442 632 l 461 544 q 447 477 461 508 q 408 420 432 446 q 354 375 385 394 q 292 343 324 356 q 257 336 281 339 q 210 330 233 333 q 169 320 186 326 q 151 301 151 314 q 167 238 151 267 q 209 189 183 210 q 266 156 235 168 q 328 144 297 144 q 369 145 351 144 q 410 157 388 146 q 430 169 421 161 q 449 186 439 178 q 468 201 458 194 q 490 207 478 207 q 488 192 490 197 q 478 181 485 188 q 383 95 429 139 q 292 6 336 51 l 286 6 q 161 63 213 38 q 78 125 110 89 q 31 217 46 161 q 17 365 17 272 m 231 601 q 163 572 190 601 q 135 500 135 542 l 135 360 q 143 349 135 357 q 157 336 151 340 l 161 336 q 225 347 192 336 q 285 376 258 357 q 331 424 313 396 q 349 486 349 451 q 315 569 349 536 q 231 601 281 601 "},"f":{"ha":536,"x_min":17,"x_max":519,"o":"m 135 107 q 131 117 131 111 l 131 119 l 131 124 q 131 163 131 132 q 133 230 132 194 q 134 297 133 265 q 135 336 135 328 l 135 347 q 134 357 135 354 q 131 365 133 360 l 131 607 q 128 626 131 610 q 124 647 125 642 q 118 651 124 651 q 91 652 108 653 q 57 653 74 651 q 28 660 40 654 q 17 683 17 667 q 20 699 17 688 q 28 711 24 711 l 111 711 q 117 734 114 722 q 131 753 121 746 q 136 844 128 810 q 163 901 144 879 q 205 935 181 922 q 257 961 229 947 q 315 994 285 975 q 372 1047 344 1013 l 374 1047 q 385 1038 379 1047 q 401 1015 392 1028 q 423 993 410 1003 q 458 983 436 983 q 469 983 463 983 q 478 985 478 983 q 496 999 483 986 q 511 1018 508 1013 l 519 1018 q 505 969 519 993 q 469 928 490 946 q 421 899 447 910 q 372 889 394 889 q 320 907 343 889 q 282 944 297 925 l 278 944 q 266 937 274 944 q 258 922 258 929 l 258 732 q 261 726 258 731 q 265 719 264 722 q 267 714 265 717 q 269 711 269 711 l 383 711 q 385 704 383 711 q 389 692 386 697 l 389 689 l 389 686 q 385 669 386 679 q 383 660 383 660 l 269 660 l 258 647 l 258 264 q 265 217 264 239 q 269 176 265 194 q 285 142 274 157 q 326 117 297 126 l 326 115 q 314 107 326 114 q 285 92 301 100 q 253 75 269 83 q 231 61 238 67 q 177 -12 194 29 q 153 -98 160 -53 q 148 -190 147 -143 q 149 -281 149 -237 q 139 -274 143 -281 q 135 -265 135 -268 l 135 107 "},"g":{"ha":747,"x_min":17,"x_max":728,"o":"m 61 -114 q 72 -80 61 -93 q 97 -59 82 -67 q 131 -48 113 -51 q 164 -44 149 -44 q 228 -70 204 -44 q 253 -136 253 -96 q 235 -178 253 -164 q 197 -199 218 -192 q 159 -208 176 -206 q 140 -215 142 -210 q 199 -260 161 -246 q 269 -282 236 -275 q 283 -283 274 -282 q 301 -283 292 -283 q 321 -283 313 -283 q 333 -283 329 -283 q 405 -281 372 -283 q 467 -269 438 -278 q 522 -244 496 -261 q 575 -199 549 -228 q 598 -167 586 -186 q 610 -131 610 -147 q 608 -83 610 -104 q 601 -44 606 -62 q 587 -9 596 -26 q 564 28 578 8 q 562 31 564 28 q 558 33 560 33 q 503 124 514 69 q 497 232 493 178 l 490 236 q 483 233 490 236 q 474 225 476 229 q 396 166 436 193 q 315 107 356 139 l 265 57 q 251 36 260 50 q 232 22 242 22 l 225 22 q 74 118 131 50 q 17 286 17 186 q 33 415 17 361 q 81 508 49 468 q 162 577 113 547 q 276 636 211 607 q 298 657 281 643 q 336 684 315 671 q 376 708 357 697 q 400 718 394 718 q 406 717 401 718 q 411 717 410 717 q 510 644 451 668 q 631 619 568 619 q 657 623 646 619 q 677 631 668 626 q 694 640 686 636 q 710 643 701 643 l 710 619 l 632 535 l 626 518 q 626 496 626 517 q 625 464 625 475 q 625 399 625 429 q 626 339 625 369 q 628 277 628 308 q 632 208 629 246 q 640 181 633 193 q 654 160 646 169 q 672 140 663 150 q 689 118 681 131 q 717 56 706 90 q 728 -14 728 21 q 694 -147 728 -92 q 608 -238 661 -203 q 487 -290 554 -274 q 351 -306 419 -306 l 269 -306 q 196 -282 233 -297 q 128 -244 158 -267 q 80 -189 99 -221 q 61 -114 61 -157 m 135 406 q 140 328 135 372 q 160 243 144 283 q 203 175 175 203 q 276 147 231 147 q 365 167 325 147 q 440 219 404 188 q 454 233 446 225 q 471 249 463 242 q 485 263 479 257 q 490 269 490 269 l 497 289 l 497 322 l 497 372 q 495 409 496 386 q 493 454 494 432 q 491 492 492 476 q 490 508 490 508 l 481 518 q 464 528 479 519 q 429 549 449 538 q 389 573 410 561 q 356 592 368 585 q 331 605 349 596 q 310 615 314 614 l 306 615 q 237 594 268 615 q 183 540 206 572 q 147 472 160 508 q 135 406 135 436 "},"h":{"ha":724,"x_min":17,"x_max":706,"o":"m 389 -249 q 388 -230 389 -244 q 386 -211 386 -215 q 395 -143 386 -174 q 419 -84 404 -112 q 453 -28 435 -56 q 490 28 471 -1 q 558 160 531 93 q 586 306 586 226 q 572 393 586 347 q 531 477 558 439 q 466 540 504 515 q 381 564 428 564 q 345 559 365 564 q 306 545 325 554 q 270 523 286 536 q 249 494 254 510 q 245 475 247 494 q 242 444 243 456 l 242 440 l 242 433 q 243 423 242 431 q 246 406 244 415 q 248 388 247 396 q 249 376 249 379 l 249 203 q 269 185 253 194 q 305 166 285 175 q 344 151 325 157 q 374 144 363 144 q 398 152 386 144 q 420 170 410 160 q 440 193 431 181 q 457 214 449 206 l 468 214 q 458 190 468 207 q 431 150 447 172 q 396 104 415 128 q 359 61 376 81 q 328 29 342 42 q 311 17 315 17 q 293 24 307 17 q 262 40 279 31 q 229 56 244 49 q 208 67 214 64 q 117 97 160 86 q 22 111 74 107 q 17 124 17 115 l 17 131 q 78 158 57 144 q 108 193 99 172 q 117 243 117 214 q 118 315 118 272 l 118 376 q 117 411 118 386 q 115 465 117 436 q 113 517 114 493 q 111 551 113 542 q 108 557 110 553 q 107 564 107 561 q 109 569 107 565 q 111 575 111 574 q 116 583 114 576 q 118 592 118 590 l 118 593 q 115 645 118 619 q 111 699 111 671 q 116 789 111 749 q 135 863 121 829 q 172 928 149 897 q 232 992 194 960 q 368 1043 288 1043 q 499 1001 447 1043 q 551 875 551 958 q 542 847 551 860 q 519 824 533 833 q 490 810 506 815 q 461 806 475 806 q 398 827 424 806 q 372 890 372 849 q 386 927 372 914 q 420 947 400 940 q 463 953 440 953 q 501 951 485 953 q 505 954 503 951 q 507 958 507 957 q 505 963 507 960 q 501 969 503 967 q 450 1013 476 999 q 385 1026 424 1026 q 283 986 315 1026 q 242 885 250 946 l 242 758 q 242 653 242 707 q 249 547 242 599 q 253 540 249 544 l 257 540 l 258 540 q 342 578 299 560 q 424 619 385 596 q 442 636 431 624 q 466 661 454 649 q 488 683 478 674 q 501 693 499 693 q 508 688 504 693 q 517 675 513 682 q 527 662 522 668 q 535 653 532 656 q 599 597 568 625 q 653 535 629 568 q 692 463 678 501 q 706 378 706 424 q 676 237 706 308 q 603 111 647 165 q 543 47 576 79 q 481 -22 510 14 q 431 -97 451 -57 q 411 -183 411 -136 q 425 -234 411 -219 q 456 -256 439 -249 q 488 -268 474 -262 q 501 -293 501 -274 q 498 -314 501 -306 q 481 -322 494 -322 q 424 -299 446 -322 q 389 -249 401 -276 "},"i":{"ha":435,"x_min":14,"x_max":417,"o":"m 157 157 q 152 356 154 253 q 151 557 150 458 q 130 587 149 572 q 93 601 111 601 q 53 589 71 601 q 14 576 36 576 q 21 594 14 585 q 36 610 28 603 q 53 624 44 618 q 67 635 63 631 q 79 643 69 636 q 101 658 89 650 q 122 672 113 665 q 135 681 132 678 q 145 688 138 682 q 160 699 153 693 q 175 711 168 706 q 185 719 182 717 l 189 719 q 210 706 197 719 q 239 676 222 693 q 276 647 256 660 q 319 633 296 633 q 349 641 339 633 q 376 649 358 649 l 376 635 l 292 550 l 286 540 l 286 482 q 287 410 286 444 q 288 342 288 376 q 290 273 289 308 q 292 197 290 238 q 317 149 299 169 q 364 128 335 128 q 380 133 374 128 q 391 144 386 138 q 402 155 396 150 q 417 160 408 160 q 413 144 417 151 q 406 128 410 138 q 385 106 400 121 q 354 72 371 90 q 323 38 338 54 q 303 17 308 22 q 295 8 296 10 q 286 6 294 6 q 241 22 263 6 q 203 60 219 38 q 174 110 186 83 q 157 157 163 136 m 151 953 q 173 1008 151 993 q 233 1024 194 1024 l 265 1024 q 297 995 283 1017 q 310 953 310 974 q 285 901 310 925 q 233 876 261 876 q 174 897 197 876 q 151 953 151 918 "},"j":{"ha":475,"x_min":17,"x_max":457,"o":"m 83 -189 q 107 -123 83 -151 q 172 -94 131 -94 q 228 -112 204 -94 q 253 -165 253 -129 q 244 -210 253 -194 q 219 -232 235 -225 q 183 -240 204 -239 q 139 -240 163 -240 q 147 -265 139 -256 q 168 -281 156 -275 q 196 -290 181 -287 q 225 -293 211 -293 q 328 -251 290 -293 q 367 -147 367 -210 l 367 -107 q 340 -56 350 -82 q 310 -6 329 -29 q 270 27 292 15 q 230 52 249 39 q 198 86 211 65 q 185 147 185 107 l 183 378 l 182 394 l 182 535 q 178 539 182 535 q 168 549 174 543 q 157 560 163 554 q 147 569 151 565 q 101 586 126 586 q 74 579 85 586 q 54 563 63 572 q 38 547 46 554 q 17 540 29 540 l 17 551 q 21 558 17 553 q 30 572 25 564 q 40 587 35 579 q 50 599 46 594 q 82 631 63 611 q 122 669 101 650 q 157 701 142 688 q 175 715 172 715 l 185 722 q 217 690 200 707 q 254 659 235 674 q 295 635 274 644 q 340 625 317 625 q 358 628 351 625 q 369 635 364 631 q 378 644 374 639 q 393 653 383 649 q 397 654 394 653 q 400 656 399 656 q 411 642 411 656 l 411 636 l 315 542 q 312 523 314 540 q 310 497 310 506 l 310 450 q 311 319 310 381 q 315 181 313 258 q 333 155 318 164 q 360 135 349 146 q 415 76 396 103 q 450 7 433 50 q 451 -16 450 0 q 453 -50 453 -32 q 456 -85 454 -68 q 457 -107 457 -101 l 457 -114 q 436 -183 457 -147 q 383 -247 415 -218 q 313 -296 351 -276 q 242 -315 275 -315 q 185 -308 213 -315 q 134 -284 157 -300 q 97 -244 111 -268 q 83 -189 83 -221 m 133 950 q 161 1007 133 988 q 225 1026 189 1026 q 283 1010 261 1026 q 306 957 306 993 q 258 885 306 908 l 222 885 q 190 888 206 885 q 161 897 174 890 q 141 917 149 904 q 133 950 133 931 "},"k":{"ha":740,"x_min":17,"x_max":722,"o":"m 17 117 l 17 119 q 30 135 17 126 q 58 154 43 143 q 88 180 74 165 q 101 214 101 194 l 107 389 q 99 401 100 394 q 99 417 99 408 q 100 433 100 425 q 94 450 100 443 q 81 466 88 461 q 74 486 74 471 q 85 508 74 497 q 101 524 96 519 l 101 799 q 125 888 101 846 q 186 963 149 931 q 269 1013 224 994 q 360 1031 315 1031 q 422 1022 390 1031 q 478 995 453 1013 q 520 952 504 978 q 536 893 536 926 q 512 837 536 858 q 453 815 488 815 q 386 836 413 815 q 360 900 360 857 q 370 931 360 918 q 395 950 381 943 q 427 961 410 957 q 457 968 444 965 l 457 969 q 447 988 457 981 q 423 1000 436 996 q 396 1006 410 1004 q 375 1008 382 1008 q 282 984 313 1008 q 240 920 251 960 q 230 832 229 881 q 231 736 231 783 q 230 657 231 696 q 236 578 229 618 l 253 578 q 320 633 285 608 q 389 686 356 657 q 410 714 400 696 q 436 732 419 732 q 490 721 461 732 q 542 690 518 710 q 581 646 565 671 q 597 593 597 621 q 576 516 597 549 q 528 460 554 483 q 481 425 503 438 q 460 410 460 413 l 461 406 q 540 381 513 399 q 581 334 568 363 q 598 268 594 306 q 603 185 601 231 q 624 152 611 165 q 658 139 638 139 q 678 146 671 139 q 692 160 686 153 q 704 175 697 168 q 722 182 711 182 q 701 128 722 153 q 665 83 681 104 q 656 70 663 79 q 642 50 650 61 q 628 29 635 39 q 619 15 622 19 l 614 15 q 581 26 599 15 q 551 43 563 36 q 501 94 521 63 q 474 161 481 126 q 470 223 468 185 q 469 298 472 261 q 449 362 465 335 q 393 389 433 389 q 315 372 353 389 q 242 336 278 356 q 238 334 240 336 q 236 332 236 332 l 236 185 q 244 167 236 174 q 262 157 251 161 q 283 151 272 153 q 301 150 294 150 q 340 165 325 150 q 372 197 354 179 l 376 197 l 376 178 l 249 33 q 239 18 244 26 q 225 10 233 10 q 200 18 213 10 q 174 38 188 26 q 149 60 161 49 q 124 78 136 71 q 72 103 99 93 q 17 117 46 113 m 231 440 l 231 410 l 242 399 l 267 399 q 338 402 299 399 q 410 418 376 406 q 467 456 444 431 q 490 524 490 481 q 458 594 490 568 q 385 619 426 619 q 343 613 365 619 q 300 594 321 606 q 262 567 279 582 q 236 533 244 551 q 233 513 235 532 q 231 483 232 494 l 231 440 "},"l":{"ha":532,"x_min":17,"x_max":514,"o":"m 22 124 q 19 126 22 125 q 17 131 17 128 l 17 132 q 31 144 17 136 q 64 163 46 151 q 97 192 82 175 q 111 236 111 210 l 111 817 q 133 903 111 863 q 189 972 154 943 q 267 1019 224 1001 q 351 1036 310 1036 q 412 1027 382 1036 q 464 1000 442 1018 q 500 957 486 982 q 514 899 514 932 q 504 865 514 879 q 480 841 494 850 q 448 827 465 832 q 414 822 431 822 q 332 903 332 822 q 342 939 332 925 q 369 960 353 953 q 403 971 385 968 q 440 975 422 974 l 444 981 q 405 1009 429 1003 q 356 1015 381 1015 q 285 1000 310 1015 q 251 959 261 985 q 239 899 240 933 q 236 828 238 865 l 236 749 q 240 492 236 618 q 242 236 244 365 q 244 222 243 232 q 253 208 246 213 l 350 158 q 358 156 350 157 q 369 156 367 156 q 394 163 383 156 q 413 178 404 169 q 431 193 422 186 q 453 200 440 200 q 431 160 453 190 q 381 99 408 131 q 331 42 354 67 q 303 17 307 17 q 289 24 301 17 q 260 40 276 31 q 231 56 244 49 q 214 67 218 64 q 121 104 168 92 q 22 124 74 117 "},"m":{"ha":1351,"x_min":15,"x_max":1333,"o":"m 74 133 q 87 144 74 139 q 117 157 100 150 q 149 176 133 164 q 168 206 164 188 q 174 275 174 246 q 175 344 175 304 q 176 413 175 371 q 172 496 178 456 q 147 565 165 536 q 89 594 128 594 l 67 594 q 44 579 61 592 q 22 560 26 567 l 15 560 q 17 573 15 567 q 22 583 18 579 l 158 725 l 167 725 q 187 720 181 725 q 203 707 193 715 q 242 671 225 686 q 269 640 258 656 q 289 605 281 625 q 306 556 297 585 q 308 551 306 553 q 310 549 310 550 l 314 549 l 317 549 q 426 632 375 592 q 531 718 478 672 q 545 730 542 729 q 561 731 549 731 q 630 702 597 731 q 688 640 663 674 q 728 577 713 606 q 749 549 744 549 l 751 549 q 762 558 754 551 q 778 572 769 565 q 796 585 788 579 q 807 594 804 592 q 845 622 818 603 q 903 663 872 640 q 961 703 933 685 q 1000 731 989 722 l 1008 731 q 1033 723 1021 731 q 1058 706 1046 715 q 1081 687 1069 696 q 1101 674 1092 678 q 1119 667 1107 671 q 1146 658 1132 663 q 1173 650 1160 654 q 1192 644 1186 646 l 1200 644 q 1230 652 1218 644 q 1250 668 1242 660 q 1265 684 1258 676 q 1276 692 1271 692 l 1276 668 q 1260 648 1272 663 q 1233 617 1247 633 q 1208 587 1219 601 q 1192 567 1196 572 q 1186 558 1190 564 q 1181 549 1182 551 l 1181 486 l 1181 425 q 1181 392 1181 415 q 1183 341 1182 368 q 1184 290 1183 314 q 1185 256 1185 265 q 1192 225 1186 242 q 1208 194 1199 208 q 1231 169 1218 179 q 1261 160 1244 160 q 1289 167 1279 160 q 1305 181 1299 174 q 1317 196 1311 189 q 1333 203 1322 203 q 1320 165 1333 175 q 1286 132 1307 156 q 1283 125 1286 131 q 1276 114 1279 119 q 1269 103 1272 108 q 1265 97 1267 99 q 1251 82 1261 93 q 1228 60 1240 71 q 1206 38 1217 49 q 1192 24 1196 28 l 1183 24 q 1140 42 1158 24 q 1106 85 1121 60 q 1078 135 1090 110 q 1057 176 1067 161 l 1044 543 q 1024 564 1044 553 q 976 585 1003 575 q 925 601 950 594 q 892 607 900 607 q 824 585 856 607 q 768 539 792 564 q 751 518 761 531 q 740 503 740 506 l 740 233 q 753 201 740 214 q 784 178 767 188 q 821 163 801 168 q 853 153 840 157 q 856 151 853 153 q 858 149 858 150 l 858 144 l 858 142 l 853 136 q 778 116 811 138 q 724 67 746 94 q 691 17 703 40 q 678 -6 679 -6 q 666 2 671 -6 q 657 19 661 10 q 650 38 653 29 q 643 51 647 47 q 611 85 626 72 q 580 107 596 99 q 545 121 564 115 q 501 132 526 126 l 497 136 l 497 140 l 497 142 q 531 159 514 151 q 563 177 549 167 q 588 201 578 188 q 603 239 599 215 q 605 256 604 243 q 606 282 606 268 q 606 310 606 297 q 606 326 606 322 q 608 417 606 368 q 600 510 610 467 q 563 582 590 553 q 478 611 536 611 q 429 602 453 611 q 384 578 406 593 q 344 546 363 564 q 310 510 325 528 q 307 504 308 508 q 306 499 306 500 l 306 458 l 306 419 q 306 381 306 408 q 308 321 307 353 q 309 261 308 289 q 310 222 310 233 q 336 184 317 197 q 376 163 356 171 q 414 151 397 156 q 431 140 431 147 q 417 132 431 138 q 385 120 403 126 q 349 108 367 114 q 326 97 332 101 q 320 91 325 96 q 309 80 315 86 q 297 67 303 74 q 289 58 290 61 q 280 42 285 53 q 271 19 275 31 q 262 -1 267 7 q 251 -10 257 -10 l 249 -10 q 245 -8 247 -10 q 243 -6 243 -6 q 208 55 222 33 q 178 88 194 76 q 140 107 163 100 q 78 125 117 114 q 76 128 78 126 q 74 132 74 131 l 74 133 "},"n":{"ha":950,"x_min":17,"x_max":932,"o":"m 44 144 l 44 149 q 90 163 67 154 q 134 185 114 171 q 167 218 154 199 q 181 265 181 238 l 181 278 q 180 327 181 292 q 178 402 179 363 q 176 477 176 442 q 175 526 175 513 q 146 569 164 550 q 101 589 128 589 q 79 582 90 589 q 58 566 68 575 q 39 550 47 557 q 25 543 31 543 l 22 543 l 17 549 l 17 551 q 26 572 17 558 q 40 589 36 586 l 175 724 q 176 724 175 724 q 181 725 178 725 q 203 717 193 725 q 225 701 214 708 q 284 635 265 676 q 306 549 303 594 q 311 543 307 543 q 318 543 315 543 l 326 543 q 344 558 331 547 q 361 572 357 569 q 378 584 365 575 q 407 603 392 593 q 436 621 422 613 q 457 633 450 629 q 466 639 458 635 q 482 647 474 643 q 498 656 490 651 q 508 661 506 660 q 519 669 510 663 q 538 682 528 675 q 559 696 549 689 q 575 707 569 703 q 587 715 578 708 q 599 724 596 722 q 600 724 599 724 q 603 725 601 725 q 607 724 606 725 q 610 724 608 724 q 656 688 632 706 q 705 655 679 669 q 758 631 731 640 q 815 622 786 622 l 818 622 q 824 625 819 624 q 831 628 828 626 q 838 633 832 629 q 849 642 843 638 q 861 650 856 646 q 868 657 867 654 l 881 657 l 881 639 l 835 593 q 811 575 824 583 q 788 556 799 567 q 770 533 776 546 q 767 503 764 521 l 767 397 l 767 289 q 769 250 767 274 q 781 204 772 226 q 803 165 789 182 q 840 149 817 149 q 885 162 865 149 q 919 193 904 175 l 932 193 l 932 176 q 926 170 932 176 q 914 156 921 164 q 899 139 907 147 q 886 125 892 131 q 880 119 885 124 q 869 108 875 114 q 858 98 864 103 q 851 92 853 93 q 843 83 849 89 q 831 69 838 76 q 819 55 825 61 q 811 47 814 49 q 797 24 804 36 q 774 11 789 11 q 747 19 758 11 q 722 35 735 28 q 672 84 689 56 q 647 146 654 113 q 640 215 640 179 q 639 283 639 250 q 637 330 638 296 q 635 401 636 364 q 633 473 633 439 q 632 519 632 507 q 606 547 622 533 q 569 572 589 561 q 528 588 549 582 q 489 594 507 594 q 389 566 436 594 q 310 499 342 538 q 307 405 308 456 q 306 308 306 354 q 335 201 306 239 q 435 153 365 163 l 435 136 q 388 129 413 135 q 340 113 363 124 q 298 86 317 103 q 269 47 279 69 q 267 37 269 44 q 261 21 264 29 q 256 4 258 13 q 253 -6 254 -4 q 251 -8 253 -6 q 249 -10 250 -10 l 244 -10 q 229 11 240 -10 q 199 58 218 32 q 153 106 181 83 q 90 132 126 128 q 84 131 90 132 q 69 131 78 131 q 54 134 61 132 q 44 142 47 136 l 44 144 "},"o":{"ha":644,"x_min":15,"x_max":626,"o":"m 15 319 q 29 404 15 363 q 67 483 43 446 q 122 551 90 521 q 192 603 154 582 q 204 609 194 604 q 226 619 214 614 q 247 630 238 625 q 260 636 257 635 q 272 644 264 639 q 290 654 281 649 q 306 664 299 660 q 315 669 313 668 q 327 681 319 672 q 344 699 335 689 q 363 715 354 708 q 376 722 372 722 q 386 722 383 722 q 391 721 389 722 q 396 717 393 719 q 407 710 399 714 q 493 657 453 683 q 563 597 533 631 q 610 522 593 564 q 626 422 626 479 q 589 251 626 319 q 468 128 551 183 q 401 97 436 108 q 339 61 367 85 q 326 50 335 58 q 307 33 317 42 q 288 17 297 25 q 276 6 279 8 l 269 6 q 256 11 268 6 q 226 25 243 17 q 192 42 210 33 q 164 56 174 50 q 52 166 89 96 q 15 319 15 236 m 131 383 q 145 291 131 338 q 188 208 160 244 q 256 147 215 171 q 347 124 296 124 q 453 149 418 124 q 508 242 488 174 l 508 301 q 498 408 508 354 q 463 506 488 463 q 395 576 438 549 q 289 603 353 603 q 213 584 243 603 q 164 534 182 565 q 138 464 146 503 q 131 383 131 425 "},"p":{"ha":786,"x_min":15,"x_max":768,"o":"m 186 108 l 175 119 l 172 119 q 136 117 156 119 q 101 108 117 115 q 85 97 93 104 q 71 81 78 89 q 56 67 64 72 q 36 61 47 61 q 55 114 36 90 q 99 158 74 138 q 151 196 125 178 q 192 233 176 214 l 192 264 l 192 294 q 191 338 192 307 q 189 405 190 369 q 187 472 188 440 q 186 515 186 503 q 177 544 186 529 q 156 572 168 560 q 128 592 143 585 q 99 600 113 600 q 76 595 86 600 q 57 584 67 590 q 38 573 47 578 q 15 568 28 568 q 22 589 15 578 q 98 650 63 622 q 164 718 133 678 q 169 724 167 724 q 178 725 171 725 q 181 724 178 725 q 186 724 185 724 q 253 676 224 706 q 299 606 283 646 q 302 592 300 601 q 308 573 304 582 q 319 556 313 564 q 333 549 325 549 q 339 549 340 549 q 344 556 338 550 q 398 595 368 575 q 458 636 428 615 q 517 679 489 657 q 565 724 544 701 q 567 725 565 725 q 569 725 569 725 q 583 716 581 725 q 593 701 586 707 q 665 644 632 669 q 720 589 697 618 q 756 522 743 560 q 768 428 768 483 q 740 298 768 361 q 667 189 713 235 q 638 164 654 176 q 603 139 621 151 q 569 116 586 126 q 542 97 553 106 q 524 80 539 94 q 501 58 508 65 q 496 49 500 56 q 487 35 492 42 q 476 22 482 28 q 467 17 471 17 q 452 19 454 17 q 435 31 450 22 q 415 38 429 32 q 386 49 401 43 q 358 61 371 56 q 339 68 344 67 l 333 69 q 326 69 331 69 q 322 64 322 68 l 322 -135 q 317 -137 322 -135 q 310 -140 313 -139 q 265 -160 290 -149 q 232 -197 239 -172 q 226 -222 229 -206 q 220 -256 224 -237 q 213 -290 217 -274 q 203 -315 208 -306 q 202 -316 203 -315 q 200 -317 201 -317 q 199 -316 200 -317 q 197 -315 199 -315 q 194 -209 193 -262 q 196 -103 194 -156 q 196 3 197 -50 q 186 108 194 56 m 326 222 q 347 206 332 214 q 379 193 363 199 q 411 183 396 188 q 435 176 426 179 q 453 167 440 174 q 480 154 465 161 q 507 141 494 147 q 525 132 519 135 q 531 131 526 132 q 539 131 536 131 q 575 149 561 131 q 640 253 624 201 q 656 376 656 306 q 642 455 656 417 q 605 523 629 493 q 546 571 581 553 q 468 589 511 589 q 392 565 424 589 q 333 510 361 542 q 330 504 332 508 q 326 499 328 500 q 326 465 326 489 q 324 413 325 440 q 323 362 324 386 q 322 328 322 338 l 322 317 l 322 307 q 323 289 322 301 q 324 263 324 276 q 326 238 325 250 q 326 222 326 226 "},"q":{"ha":731,"x_min":17,"x_max":711,"o":"m 497 -299 l 497 64 q 497 85 497 69 q 494 119 496 101 q 492 153 493 138 q 492 175 492 168 q 486 181 489 181 q 481 182 483 182 l 474 182 q 459 170 471 181 q 444 158 447 160 q 349 92 396 122 q 253 17 301 61 l 249 17 q 222 31 235 17 q 197 51 210 44 q 116 104 150 78 q 60 164 82 131 q 27 239 38 197 q 17 339 17 281 q 32 423 17 382 q 74 499 47 464 q 133 562 100 533 q 203 610 167 590 q 274 644 239 629 q 339 683 308 658 q 361 701 347 690 q 384 719 375 713 q 394 728 393 726 l 411 728 q 517 658 460 690 q 639 626 574 626 q 658 631 650 626 q 675 642 667 636 q 692 652 683 647 q 711 657 700 657 l 711 650 q 673 594 700 618 q 626 542 646 571 q 626 501 626 531 q 624 438 625 471 q 622 375 622 404 q 619 333 621 346 l 619 -131 q 560 -169 583 -146 q 525 -232 536 -192 q 523 -244 525 -235 q 519 -265 521 -254 q 516 -286 518 -276 q 514 -299 514 -296 q 511 -305 514 -301 q 508 -310 508 -308 l 506 -310 l 501 -310 q 499 -304 500 -308 q 497 -299 497 -300 m 135 378 q 147 297 135 338 q 183 222 160 256 q 242 168 207 189 q 324 147 278 147 q 397 160 364 147 q 464 199 431 174 q 481 215 471 204 q 492 226 492 225 l 492 497 q 481 531 492 518 q 451 553 469 544 q 431 563 446 556 q 401 579 417 571 q 370 595 385 588 q 350 606 356 603 q 319 609 331 608 q 290 610 308 610 q 214 588 244 610 q 166 531 183 565 q 142 456 149 497 q 135 378 135 415 "},"r":{"ha":667,"x_min":17,"x_max":649,"o":"m 85 133 q 83 140 83 135 q 99 154 83 149 q 136 170 115 160 q 176 197 157 181 q 203 242 196 213 l 203 351 l 203 460 q 189 544 201 508 q 131 601 176 581 l 122 601 q 93 594 108 601 q 64 579 78 588 q 40 564 50 571 q 25 557 29 557 q 17 568 17 557 q 21 581 17 578 q 33 590 25 583 q 65 623 44 600 q 108 669 86 646 q 149 709 131 692 q 176 726 168 726 q 234 701 207 726 q 282 647 261 676 q 317 592 303 617 q 339 567 332 567 l 343 568 q 423 643 381 608 q 501 719 465 678 l 507 719 q 519 710 514 719 q 533 688 525 700 q 555 667 542 676 q 589 657 568 657 q 608 664 600 657 q 621 678 615 671 q 633 693 626 686 q 649 700 639 700 q 638 644 649 672 q 610 593 628 617 q 569 555 593 569 q 515 540 544 540 q 481 549 497 540 q 449 566 464 557 q 424 583 435 575 q 406 592 413 592 q 389 583 394 592 q 376 568 383 575 q 369 558 375 565 q 358 542 364 550 q 346 527 351 535 q 339 517 340 519 q 337 493 338 510 q 335 458 336 476 q 333 422 333 439 q 332 399 332 406 l 332 372 q 334 293 332 328 q 339 207 336 258 q 351 186 342 196 q 374 170 361 176 q 399 160 386 164 q 422 157 411 157 q 474 174 454 157 q 518 214 494 190 l 531 214 l 531 197 q 503 171 522 189 q 461 132 483 153 q 420 92 439 111 q 393 67 401 74 q 387 60 392 65 q 376 47 382 54 q 366 34 371 40 q 360 26 361 28 l 343 10 l 340 10 q 327 16 335 10 q 311 31 319 22 q 296 46 303 39 q 286 56 289 53 q 191 110 239 90 q 85 133 143 129 "},"s":{"ha":701,"x_min":17,"x_max":683,"o":"m 199 94 q 149 90 171 94 q 107 77 126 86 q 70 53 88 68 q 33 15 53 38 l 17 15 l 17 26 q 27 40 17 28 q 44 60 38 53 q 97 110 68 85 q 158 156 125 136 q 226 189 190 176 q 299 201 261 201 q 356 195 326 201 q 411 174 386 189 q 425 164 415 171 q 444 149 435 157 q 463 134 454 140 q 472 128 471 128 q 511 145 496 128 q 536 187 526 163 q 549 236 546 211 q 553 278 553 261 q 546 328 553 303 q 526 376 539 354 q 492 410 513 397 q 443 424 471 424 q 428 424 433 424 q 417 422 422 424 q 406 416 413 419 q 390 406 400 413 q 364 390 382 401 q 326 365 346 378 q 290 342 307 353 q 265 326 272 331 q 224 310 242 318 q 181 303 206 303 q 83 335 121 303 q 44 426 44 368 q 63 505 44 472 q 109 562 81 538 q 174 604 138 586 q 247 640 210 622 q 318 678 283 658 q 378 726 353 699 l 383 728 q 398 717 389 728 q 417 693 407 706 q 437 669 426 681 q 457 658 447 658 l 525 658 q 530 661 526 658 q 536 665 533 664 q 547 676 539 668 q 565 692 556 683 q 581 710 574 701 q 592 722 589 718 l 607 722 q 590 685 607 707 q 551 642 574 664 q 504 602 528 621 q 468 575 481 583 q 438 565 456 567 q 407 564 421 564 q 365 569 388 564 q 326 585 342 574 q 319 592 325 586 q 307 606 314 599 q 292 619 300 614 q 281 625 285 625 q 239 610 257 625 q 208 573 221 594 q 188 526 194 551 q 181 483 181 501 q 199 406 181 435 q 269 376 217 376 q 337 393 306 376 q 399 431 368 410 q 462 468 429 451 q 533 485 494 485 q 599 470 571 485 q 645 432 626 456 q 674 376 664 408 q 683 311 683 344 q 664 237 683 267 q 615 184 644 207 q 551 144 586 161 q 485 107 515 126 q 428 61 454 88 q 378 10 401 35 l 372 10 l 293 78 q 247 94 275 93 q 199 94 219 94 "},"t":{"ha":464,"x_min":17,"x_max":447,"o":"m 28 111 q 22 124 22 115 q 34 136 22 131 q 60 147 46 142 q 90 159 75 153 q 111 175 104 165 q 133 242 132 206 q 135 311 135 278 l 135 315 q 132 329 133 318 q 131 343 131 340 l 131 581 q 126 609 128 590 q 124 631 125 628 l 118 635 l 22 647 q 18 660 19 647 q 17 681 17 672 q 18 689 17 683 q 22 694 19 694 l 131 694 l 131 843 q 157 916 131 881 q 221 978 183 951 q 301 1020 258 1004 q 378 1036 344 1036 q 370 1018 378 1024 q 351 1010 363 1013 q 329 1005 340 1007 q 310 997 318 1003 q 262 931 271 967 q 253 850 253 896 l 253 833 q 253 808 253 826 q 256 770 254 790 q 258 733 257 750 q 258 708 258 715 q 262 706 260 708 q 265 703 264 703 q 274 697 268 700 q 282 694 281 694 l 382 694 q 388 681 388 694 q 389 665 389 667 q 388 650 389 661 q 376 639 388 639 l 265 639 l 258 631 l 258 515 q 258 358 258 436 q 265 201 258 281 q 306 167 278 183 q 357 151 333 151 q 374 153 364 151 q 389 157 385 154 l 439 208 l 447 208 q 433 168 447 185 l 292 17 l 286 17 l 282 17 q 259 27 276 18 q 236 40 242 36 q 138 90 183 71 q 28 111 92 110 "},"u":{"ha":939,"x_min":15,"x_max":919,"o":"m 40 140 q 39 147 39 142 q 58 165 39 157 q 101 183 78 172 q 144 214 125 194 q 164 269 164 233 l 164 474 q 160 512 164 492 q 147 549 156 532 q 123 576 138 565 q 86 586 108 586 q 67 581 75 586 q 51 571 58 576 q 35 560 43 565 q 15 556 26 556 q 37 598 15 569 q 85 656 58 626 q 137 706 113 685 q 167 728 161 728 q 192 720 179 728 q 214 706 204 713 q 226 694 218 703 q 245 677 235 686 q 264 660 256 668 q 276 649 272 651 q 286 617 283 635 q 299 586 289 599 l 299 218 l 417 147 q 432 140 419 144 q 451 135 444 136 l 457 135 q 495 146 471 135 q 544 172 519 157 q 590 201 569 186 q 615 225 610 217 q 617 256 617 243 q 619 281 618 269 q 619 301 619 292 q 619 326 619 313 l 619 343 q 619 378 619 353 q 617 431 618 403 q 616 484 617 460 q 615 518 615 508 q 603 553 615 540 q 572 574 590 567 q 533 583 554 581 q 497 586 513 585 q 493 589 494 586 q 490 592 492 592 l 490 594 q 511 603 490 596 q 558 622 532 611 q 610 645 585 632 q 643 672 635 658 q 647 679 643 674 q 653 692 650 685 q 660 706 657 699 q 665 717 664 713 q 671 733 667 719 q 676 750 675 747 q 679 753 676 751 q 682 756 682 756 q 683 757 683 757 q 685 757 685 757 q 694 742 686 757 q 712 709 701 728 q 733 672 722 690 q 750 649 743 654 q 777 631 764 636 q 803 622 790 625 q 832 617 817 619 q 864 608 847 614 q 869 604 865 608 q 875 599 872 600 l 875 594 l 875 592 q 872 589 874 592 q 868 586 869 586 q 829 581 850 585 q 791 567 808 576 q 762 541 774 557 q 750 501 750 525 l 750 265 q 755 225 750 246 q 770 187 760 204 q 797 158 781 169 q 835 147 813 147 q 875 159 858 147 q 908 186 892 171 l 919 186 l 919 175 q 894 149 913 168 q 857 110 876 131 q 819 71 838 89 q 794 44 801 53 q 780 24 783 32 q 761 17 776 17 q 727 26 744 17 q 694 49 710 36 q 665 78 678 63 q 643 107 651 94 q 636 126 639 114 q 630 151 633 138 q 622 175 626 164 q 608 192 617 186 q 595 183 606 190 q 582 175 585 176 q 458 92 519 132 q 333 17 397 53 q 330 16 332 17 q 326 15 328 15 q 324 16 325 15 q 322 17 322 17 q 310 28 319 18 q 299 40 301 38 q 176 108 244 83 q 40 140 108 133 "},"v":{"ha":775,"x_min":17,"x_max":757,"o":"m 44 150 q 64 162 44 154 q 106 183 83 169 q 149 215 129 196 q 168 260 168 235 l 168 514 q 163 547 168 529 q 149 581 158 565 q 125 606 139 596 q 93 615 111 615 q 74 610 83 615 q 57 598 65 604 q 41 586 49 592 q 25 581 33 581 q 17 586 18 581 q 17 597 17 592 l 17 603 l 164 739 q 167 740 164 740 q 224 712 199 740 q 269 649 250 683 q 299 587 288 615 q 315 558 311 558 l 322 558 q 384 602 351 582 q 449 642 417 622 q 514 682 482 661 q 575 728 546 703 l 586 728 l 711 603 q 749 533 740 575 q 757 451 757 490 q 742 335 757 389 q 683 236 726 282 q 616 168 654 207 q 542 101 578 129 q 531 94 539 100 q 513 82 522 89 q 495 69 504 75 q 485 61 486 63 q 476 53 482 58 q 463 40 469 47 q 449 26 456 32 q 440 17 443 19 l 407 17 q 352 55 388 35 q 276 92 317 75 q 197 122 236 110 q 131 135 157 133 l 78 135 q 72 135 78 135 q 60 136 67 135 q 49 141 54 138 q 44 150 44 144 m 306 232 q 335 214 306 229 q 402 181 365 199 q 470 149 439 164 q 506 135 501 135 l 514 135 q 610 222 571 171 q 649 343 649 272 q 639 429 649 383 q 607 513 629 475 q 550 577 585 551 q 465 603 515 603 q 376 572 415 603 q 306 508 338 542 q 303 483 304 501 q 301 443 303 464 q 299 403 300 422 q 299 378 299 385 l 299 365 l 299 356 q 302 344 299 353 q 306 333 306 335 l 306 232 "},"w":{"ha":1182,"x_min":17,"x_max":1164,"o":"m 50 157 l 50 175 q 90 186 69 179 q 128 205 111 193 q 157 234 146 217 q 168 276 168 251 l 168 507 q 165 544 168 525 q 155 579 163 564 q 133 605 147 594 q 99 615 119 615 q 60 601 76 615 q 25 586 43 586 l 22 586 l 17 592 l 17 594 l 17 599 q 19 603 17 600 q 22 608 22 607 q 100 678 68 644 q 175 744 132 711 l 183 744 q 213 731 197 744 q 236 710 229 717 q 265 678 254 693 q 283 647 276 664 q 294 612 290 631 q 306 569 299 593 q 310 564 306 568 l 314 564 l 317 564 q 435 648 379 601 q 547 739 492 694 q 553 742 549 740 q 558 744 557 743 l 561 744 l 565 744 q 670 683 636 728 q 722 575 704 639 q 729 569 725 569 q 736 568 733 568 q 741 569 739 568 q 744 569 743 569 q 832 629 789 599 q 915 693 875 660 q 931 708 921 699 q 951 725 942 717 q 969 739 961 733 q 976 744 976 744 l 989 744 q 1028 712 1008 722 q 1067 682 1047 701 q 1144 569 1125 631 q 1164 431 1164 507 q 1150 352 1164 390 q 1113 278 1136 314 q 1063 213 1090 243 q 1006 157 1035 182 q 987 144 1001 154 q 956 124 972 135 q 926 103 940 113 q 908 90 913 93 q 897 79 906 88 q 877 62 888 71 q 858 44 867 53 q 847 33 849 35 q 841 30 844 32 q 835 28 838 28 q 834 27 835 28 q 832 26 833 26 l 831 28 q 753 69 790 43 q 676 111 715 94 q 632 125 664 117 q 567 142 600 133 q 510 157 535 150 q 485 168 485 164 q 501 178 485 172 q 536 196 517 185 q 573 225 556 207 q 593 269 590 243 q 597 344 596 306 q 599 418 599 382 q 596 485 599 449 q 581 553 593 522 q 546 606 569 585 q 481 626 522 626 q 437 618 457 626 q 398 597 417 610 q 362 570 379 585 q 326 542 344 556 q 313 528 321 536 q 306 518 306 519 l 306 249 q 322 209 306 222 q 358 190 339 196 q 394 180 378 183 q 411 168 411 176 q 390 154 411 164 q 340 128 368 144 q 286 92 313 113 q 249 44 260 71 q 245 37 247 43 q 242 28 243 31 q 238 17 242 25 q 232 6 233 8 l 228 6 q 219 15 224 6 q 212 35 215 24 q 205 58 208 46 q 197 74 201 69 q 167 106 182 93 q 134 128 151 119 q 96 144 117 138 q 50 157 75 150 m 728 242 q 763 219 733 235 q 826 186 792 203 q 892 157 861 169 q 933 144 924 144 q 942 146 936 144 q 949 147 947 147 q 1031 251 1006 193 q 1057 381 1057 308 q 1041 480 1057 429 q 989 564 1025 531 q 946 599 967 583 q 897 615 925 615 q 852 607 878 615 q 801 585 826 599 q 756 555 776 571 q 728 525 736 539 q 723 501 724 517 q 722 475 722 486 q 726 359 722 414 q 728 242 731 304 "},"x":{"ha":751,"x_min":17,"x_max":733,"o":"m 310 236 q 280 198 300 229 q 239 131 260 167 q 200 67 218 96 q 176 39 182 39 q 163 48 169 39 q 149 68 157 57 q 129 88 140 79 q 103 97 118 97 q 72 88 83 97 q 51 68 60 79 q 37 48 43 57 q 25 39 31 39 l 22 39 q 19 42 22 40 q 17 44 17 43 l 17 47 q 31 96 17 67 q 67 151 46 125 q 114 197 89 178 q 158 215 139 215 q 203 200 183 215 q 244 185 224 185 q 270 207 258 185 q 290 258 282 229 q 301 315 297 288 q 306 350 306 342 q 303 359 306 357 q 293 367 300 361 l 257 367 q 224 367 243 367 q 192 360 204 367 q 176 344 181 356 q 166 321 171 333 q 156 299 161 308 q 139 290 150 290 q 160 379 139 342 q 219 449 182 417 l 290 449 q 282 515 290 483 q 256 569 274 546 q 210 606 238 592 q 143 619 182 619 q 124 620 133 619 q 107 614 115 621 q 94 603 103 611 q 75 587 85 596 q 56 569 65 578 q 44 558 47 561 l 40 558 l 40 581 q 44 586 40 581 q 55 599 49 592 q 67 614 61 607 q 78 625 74 621 q 142 688 108 657 q 203 756 175 719 q 208 756 206 756 q 214 757 211 757 q 283 730 244 757 q 354 671 321 703 q 410 612 388 639 q 433 585 433 585 q 461 610 440 585 q 506 667 482 636 q 551 724 529 699 q 581 750 572 750 q 597 740 589 750 q 614 718 604 731 q 635 696 624 706 q 660 686 646 686 q 680 694 672 686 q 694 710 688 701 q 708 727 701 719 q 726 735 715 735 q 716 688 726 714 q 689 638 706 661 q 651 600 672 615 q 607 585 629 585 q 557 600 579 585 q 518 636 535 615 l 514 636 q 482 617 496 636 q 458 573 468 599 q 444 522 449 547 q 439 483 439 496 q 439 475 439 482 q 440 463 439 469 q 442 450 440 456 q 450 444 444 444 l 551 444 q 561 453 557 444 q 568 472 565 461 q 574 493 571 483 q 581 507 576 503 l 583 507 q 591 503 590 507 q 592 493 592 499 q 588 451 592 474 q 574 410 583 429 q 551 376 565 390 q 514 360 536 363 l 468 360 q 454 358 465 360 q 440 356 443 357 q 440 345 440 353 q 439 335 439 338 q 453 265 439 296 q 493 213 468 235 q 551 180 518 192 q 619 168 583 168 l 660 168 q 697 199 679 182 q 726 236 714 217 l 733 236 l 733 208 q 724 196 733 208 q 700 166 714 183 q 672 131 686 149 q 649 101 658 113 q 641 93 647 100 q 626 77 635 86 q 610 59 618 68 q 597 44 601 50 q 590 35 590 38 q 582 33 589 33 q 518 43 551 33 q 453 69 485 53 q 396 109 422 86 q 356 157 369 132 q 347 171 353 160 q 335 194 342 182 q 322 217 328 207 q 315 231 317 228 q 313 233 315 232 q 310 236 311 235 "},"y":{"ha":792,"x_min":15,"x_max":774,"o":"m 417 -169 q 429 -81 417 -121 q 463 -6 442 -42 q 513 63 485 29 q 569 135 540 97 q 572 140 569 136 q 575 147 575 144 q 628 256 607 199 q 649 375 649 313 q 639 458 649 414 q 608 540 629 503 q 553 602 586 578 q 472 626 519 626 q 385 599 425 626 q 315 536 346 571 l 315 443 q 315 353 315 394 q 322 265 315 313 q 348 224 332 233 q 382 213 364 214 q 417 213 400 213 q 444 203 433 214 q 446 202 444 203 q 447 200 447 201 q 431 185 447 193 q 396 172 415 178 q 358 160 376 165 q 333 151 339 154 q 306 126 321 144 q 278 89 292 108 q 256 54 265 69 q 242 39 246 39 q 240 40 242 39 q 236 40 239 40 q 186 124 217 89 q 101 169 156 158 q 92 169 100 169 q 74 172 83 169 q 58 177 65 174 q 50 189 50 181 q 67 199 50 196 q 108 210 85 203 q 152 233 131 218 q 181 276 174 247 l 181 367 l 181 457 q 179 505 181 476 q 170 560 178 533 q 146 607 163 588 q 99 626 129 626 q 75 620 85 626 q 56 606 65 614 q 38 591 47 597 q 15 585 28 585 q 18 602 15 596 q 28 615 21 608 q 44 633 32 619 q 70 660 57 646 q 96 688 83 675 q 114 706 108 700 q 137 742 117 726 q 178 757 157 757 q 236 729 210 757 q 281 669 263 701 q 310 608 300 636 q 322 581 321 581 q 351 596 329 581 q 400 631 374 611 q 450 672 426 651 q 485 700 474 692 q 500 712 489 703 q 522 731 511 721 q 544 749 533 740 q 558 761 554 757 l 569 761 l 660 689 q 681 676 671 686 q 693 660 690 665 q 755 556 736 610 q 774 435 774 501 q 746 296 774 357 q 675 182 718 235 q 580 81 632 129 q 481 -17 528 33 q 454 -70 464 -44 q 444 -128 444 -96 q 458 -181 444 -160 q 490 -213 472 -201 q 521 -230 507 -225 q 535 -236 535 -235 l 535 -289 q 527 -292 535 -292 q 517 -293 519 -293 q 472 -283 490 -293 q 440 -255 453 -272 q 422 -215 428 -237 q 417 -169 417 -193 "},"z":{"ha":499,"x_min":17,"x_max":481,"o":"m 17 -7 q 33 78 17 38 q 78 153 50 119 q 99 176 86 163 q 127 202 113 189 q 156 226 142 215 q 181 243 169 236 q 194 250 185 246 q 213 259 203 254 q 233 270 224 264 q 249 283 243 276 l 249 286 q 238 301 249 292 q 215 319 228 310 q 189 334 201 328 q 172 340 176 340 l 168 340 q 109 315 140 329 q 44 300 78 300 l 22 300 q 17 311 17 306 q 17 324 17 317 q 37 358 17 349 q 88 370 57 367 q 155 376 119 374 q 222 390 190 378 q 273 429 253 403 q 293 507 293 456 q 281 559 293 535 q 250 601 269 583 q 205 630 231 619 q 153 640 179 640 q 90 621 114 640 q 40 572 65 601 l 26 572 q 38 589 26 574 q 65 626 49 604 q 101 672 82 647 q 139 716 121 696 q 169 750 157 736 q 186 764 182 764 l 192 764 q 264 738 226 750 q 333 706 301 725 q 386 658 365 688 q 407 583 407 629 q 392 507 407 540 q 353 447 378 474 q 294 399 328 419 q 225 361 261 378 l 225 360 q 236 347 225 354 q 262 335 247 340 q 290 326 276 329 q 310 322 304 322 q 352 331 332 322 q 392 351 372 340 q 432 372 411 363 q 475 381 453 381 q 456 354 475 365 q 413 335 436 343 q 369 319 389 326 q 350 303 350 313 l 350 300 q 400 241 376 269 q 442 182 424 213 q 470 117 460 151 q 481 39 481 82 q 451 -101 481 -42 q 361 -214 422 -161 q 347 -226 357 -218 q 326 -240 338 -233 q 302 -253 314 -247 q 282 -258 290 -258 l 175 -258 q 156 -250 174 -258 q 131 -235 139 -242 q 42 -137 68 -200 q 17 -7 17 -75 m 74 -17 q 81 -92 74 -53 q 108 -165 89 -132 q 156 -220 126 -199 q 232 -242 186 -242 q 289 -222 267 -242 q 325 -174 311 -203 q 344 -111 339 -144 q 350 -50 350 -78 q 349 -15 350 -42 q 343 45 347 11 q 332 117 339 79 q 315 185 325 154 q 292 237 306 217 q 261 257 279 257 q 258 256 261 257 q 253 256 256 256 q 122 145 169 213 q 74 -17 74 78 "},"":{"ha":418,"x_min":17,"x_max":401,"o":"m 17 675 l 17 775 q 22 804 18 789 q 28 832 25 819 q 84 882 54 861 q 144 922 114 903 q 206 960 175 940 q 265 1007 238 981 l 267 1007 q 282 998 275 1007 q 297 978 289 989 q 316 959 306 968 q 343 950 326 950 q 365 958 358 950 q 376 974 372 965 q 385 991 381 983 q 401 999 390 999 q 374 910 401 954 q 310 843 347 867 q 294 842 307 843 q 278 842 282 842 q 217 860 240 842 q 168 906 193 878 l 165 906 q 156 899 160 906 q 151 885 153 893 q 148 869 149 878 q 147 857 147 861 q 149 499 147 678 q 157 140 150 319 q 168 119 160 129 q 185 100 176 108 q 201 84 194 92 q 208 72 208 76 l 208 67 q 156 40 185 57 q 101 -1 128 22 q 58 -51 75 -24 q 40 -108 40 -79 l 40 -361 q 33 -367 40 -365 q 25 -368 26 -368 q 21 153 25 -106 q 17 675 17 413 "},"":{"ha":869,"x_min":17,"x_max":851,"o":"m 535 -269 q 534 -252 535 -267 q 533 -233 533 -237 q 542 -165 533 -196 q 566 -106 551 -135 q 599 -51 581 -78 q 636 7 617 -24 q 706 138 678 71 q 733 283 733 206 q 719 372 733 326 q 678 456 706 418 q 613 517 651 493 q 526 542 575 542 q 491 537 511 542 q 451 523 471 532 q 416 501 432 514 q 394 474 400 489 q 392 454 393 474 q 389 424 390 435 l 389 418 q 392 374 389 396 q 394 331 394 353 q 393 292 394 307 q 389 249 392 276 q 363 223 374 238 q 343 192 353 208 l 340 192 q 333 197 340 192 q 318 210 326 203 q 301 223 310 217 q 286 232 292 229 q 270 238 278 235 q 265 256 263 240 q 265 394 267 321 q 258 531 263 468 q 255 536 257 532 q 253 542 253 540 q 256 547 253 543 q 258 553 258 551 q 262 562 260 556 q 265 569 264 568 l 265 574 q 262 624 265 599 q 258 676 258 649 q 263 767 258 726 q 281 841 268 807 q 317 906 294 875 q 376 969 340 938 q 515 1022 435 1022 q 646 980 593 1022 q 699 856 699 938 q 690 826 699 839 q 667 803 681 813 q 637 788 653 793 q 608 783 621 783 q 544 806 571 783 q 518 868 518 828 q 532 906 518 892 q 566 926 546 919 q 608 932 586 932 q 649 931 632 932 q 653 936 653 931 q 651 942 653 939 q 649 949 650 946 q 597 991 624 976 q 532 1006 571 1006 q 472 994 497 1006 q 430 965 447 983 q 403 920 413 946 q 389 864 393 894 l 389 736 q 388 631 389 685 q 394 525 388 576 q 400 519 394 519 q 403 518 400 518 q 404 518 403 518 q 406 519 406 518 q 488 557 446 539 q 568 599 531 575 q 588 615 576 603 q 613 640 600 628 q 635 663 625 653 q 649 674 646 674 q 656 668 651 674 q 665 656 660 663 q 674 642 669 649 q 682 632 679 635 q 746 575 715 604 q 800 513 776 546 q 838 442 824 481 q 851 357 851 403 q 823 215 851 288 q 750 90 794 143 q 689 26 722 58 q 626 -42 656 -7 q 578 -118 597 -78 q 558 -206 558 -158 q 572 -256 558 -242 q 603 -277 586 -271 q 635 -290 621 -283 q 649 -315 649 -296 q 644 -335 649 -328 q 626 -343 640 -343 q 570 -321 593 -343 q 535 -269 547 -299 m 17 353 q 34 432 17 394 q 78 501 51 469 q 136 561 104 533 q 197 610 168 589 q 208 615 200 611 q 219 619 217 618 q 221 621 219 619 q 224 622 222 622 l 225 619 q 232 615 228 619 l 232 611 q 222 599 232 608 q 199 578 211 590 q 174 553 186 565 q 158 531 163 540 q 138 461 142 494 q 135 390 135 428 l 135 350 q 146 315 146 336 q 151 276 146 294 q 174 226 160 251 q 209 179 189 200 q 254 144 229 158 q 308 131 279 131 q 359 133 338 131 q 399 142 381 136 q 437 159 418 149 q 478 186 456 169 l 485 186 l 485 175 q 469 159 485 174 q 444 136 454 144 q 374 78 406 103 q 315 7 343 53 q 310 1 313 1 q 306 0 308 0 l 299 0 q 169 50 222 22 q 81 118 115 78 q 32 215 47 158 q 17 353 17 272 "},"":{"ha":865,"x_min":17,"x_max":847,"o":"m 17 353 q 34 431 17 394 q 78 501 51 468 q 136 560 104 533 q 197 610 168 588 q 208 615 200 611 q 219 619 217 618 q 221 621 219 619 q 224 622 222 622 l 225 619 q 232 615 228 619 l 232 611 q 222 599 232 608 q 199 578 211 590 q 174 553 186 565 q 158 531 163 540 q 138 461 142 494 q 135 390 135 428 l 135 350 q 146 314 146 336 q 151 276 146 293 q 174 226 160 251 q 209 179 189 200 q 254 144 229 158 q 308 131 279 131 q 359 133 338 131 q 400 141 381 135 q 438 158 419 147 q 481 186 457 169 l 485 186 l 485 175 q 480 169 485 175 q 469 158 475 164 q 456 145 463 151 q 444 135 449 139 q 374 77 406 103 q 315 6 343 51 q 306 0 311 0 l 299 0 q 170 50 224 22 q 83 118 117 78 q 33 215 49 158 q 17 353 17 272 m 547 378 q 468 362 506 378 q 394 326 431 346 q 389 324 392 326 q 386 322 386 322 l 386 236 q 361 226 379 235 q 339 215 343 218 q 330 206 336 214 q 322 197 324 199 l 318 197 q 306 201 314 197 q 290 212 299 206 q 274 224 282 218 q 260 232 265 229 l 260 378 l 253 390 l 253 790 q 277 880 253 838 q 339 954 301 922 q 423 1004 376 986 q 514 1022 469 1022 q 576 1013 544 1022 q 632 987 607 1004 q 673 944 657 969 q 689 885 689 918 q 665 828 689 850 q 607 807 640 807 q 540 827 567 807 q 514 892 514 847 q 524 922 514 910 q 548 942 533 935 q 579 952 563 949 q 608 958 596 956 q 610 960 610 960 q 610 961 610 961 q 600 980 610 972 q 576 992 590 988 q 549 998 563 996 q 528 1000 536 1000 q 435 975 465 1000 q 392 910 404 950 q 382 822 381 871 q 383 726 383 774 q 383 647 383 686 q 389 569 383 610 l 407 569 q 474 624 439 599 q 542 676 510 649 q 563 706 553 688 q 589 724 572 724 q 642 712 614 724 q 695 681 671 700 q 735 636 719 661 q 750 583 750 611 q 728 506 750 539 q 682 451 707 474 q 635 417 657 429 q 614 400 614 404 l 615 394 q 693 369 665 388 q 734 323 721 351 q 751 257 747 294 q 756 175 754 219 q 776 142 764 156 q 811 128 789 128 q 831 129 822 128 q 847 142 839 131 l 847 126 q 838 99 847 107 q 818 74 829 92 q 809 60 815 69 q 796 40 803 51 q 783 19 789 29 q 774 6 776 10 l 767 6 q 734 16 751 6 q 706 33 717 26 q 654 85 675 53 q 626 151 633 117 q 622 213 621 175 q 620 288 624 251 q 601 351 617 325 q 547 378 586 378 m 383 431 l 383 400 l 394 390 q 404 389 394 389 q 419 389 415 389 q 490 392 451 389 q 563 408 529 396 q 620 446 597 421 q 643 514 643 471 q 611 585 643 560 q 536 610 579 610 q 496 603 518 610 q 453 584 474 596 q 415 557 432 572 q 389 525 397 542 q 386 503 389 522 q 383 474 383 483 l 383 431 "},"":{"ha":1074,"x_min":17,"x_max":1056,"o":"m 17 689 l 17 790 q 22 818 18 804 q 28 847 25 832 q 84 897 54 876 q 144 937 114 918 q 206 976 175 956 q 265 1022 238 996 l 268 1022 q 283 1013 276 1022 q 297 993 289 1004 q 317 973 306 982 q 344 964 328 964 q 365 972 358 964 q 376 989 372 979 q 385 1006 381 999 q 401 1014 390 1014 q 374 924 401 967 q 310 858 347 882 q 294 857 307 857 q 278 857 282 857 q 217 874 240 857 q 168 919 194 892 l 167 919 q 156 913 160 919 q 151 899 153 907 q 148 884 149 892 q 147 872 147 876 q 149 513 147 692 q 158 153 150 333 q 169 132 161 142 q 186 113 178 122 q 201 97 194 104 q 208 85 208 90 l 208 81 q 156 53 185 71 q 101 13 128 36 q 58 -37 75 -10 q 40 -94 40 -65 l 40 -350 q 33 -356 40 -354 q 25 -357 26 -357 q 21 166 25 -94 q 17 689 17 426 m 739 -269 q 738 -253 739 -267 q 736 -233 736 -239 q 745 -165 736 -196 q 769 -106 754 -135 q 802 -51 783 -78 q 840 7 821 -24 q 908 138 881 71 q 936 282 936 206 q 922 371 936 325 q 881 455 908 417 q 816 517 854 493 q 731 542 778 542 q 695 537 715 542 q 656 523 675 532 q 620 501 636 514 q 599 474 604 489 q 595 454 597 474 q 592 424 593 435 l 592 418 q 595 374 592 396 q 599 331 599 353 q 597 292 599 307 q 592 249 596 276 q 547 192 564 225 l 543 192 q 536 197 543 192 q 521 210 529 203 q 503 223 513 217 q 490 232 494 229 q 473 236 481 235 q 468 253 465 238 q 467 394 469 319 q 461 531 465 468 q 458 536 460 532 q 457 542 457 540 q 459 547 457 543 q 461 553 461 551 q 465 562 464 556 q 468 569 467 568 l 468 574 q 465 624 468 599 q 461 676 461 649 q 466 767 461 726 q 484 841 471 807 q 521 906 497 875 q 581 969 544 938 q 718 1022 638 1022 q 849 981 797 1022 q 901 856 901 939 q 892 826 901 839 q 869 803 883 813 q 840 788 856 793 q 811 783 825 783 q 748 806 774 783 q 722 868 722 828 q 736 906 722 892 q 770 926 750 919 q 813 933 790 932 q 851 932 835 933 q 857 936 857 932 q 855 942 857 939 q 851 949 853 946 q 799 991 826 976 q 733 1006 772 1006 q 632 965 664 1006 q 592 864 600 924 l 592 736 q 592 631 592 685 q 599 525 592 576 q 603 518 599 522 l 607 518 l 608 518 q 692 556 649 538 q 772 599 735 575 q 792 615 779 603 q 816 640 804 628 q 838 663 828 653 q 851 674 849 674 q 858 668 854 674 q 867 656 863 663 q 877 642 872 649 q 885 632 882 635 q 949 575 918 604 q 1003 513 979 546 q 1042 441 1028 479 q 1056 356 1056 403 q 1026 215 1056 288 q 953 90 997 143 q 893 24 926 57 q 831 -44 860 -8 q 781 -119 801 -79 q 761 -206 761 -158 q 775 -256 761 -242 q 806 -277 789 -271 q 838 -290 824 -283 q 851 -315 851 -296 q 848 -337 851 -329 q 831 -344 844 -344 q 774 -322 796 -344 q 739 -269 751 -299 m 219 353 q 237 432 219 394 q 281 501 254 469 q 339 561 307 533 q 400 610 371 589 q 410 615 401 611 q 424 619 419 618 l 425 622 q 427 621 426 622 q 428 619 428 619 q 433 615 433 619 q 434 615 433 615 q 435 611 435 614 q 425 599 435 608 q 402 578 415 590 q 376 553 389 565 q 360 531 364 540 q 342 461 344 494 q 339 390 339 428 l 339 350 q 350 315 350 336 q 356 276 350 294 q 377 226 363 251 q 412 179 392 200 q 457 144 432 158 q 511 131 482 131 q 563 133 540 131 q 603 142 585 136 q 641 159 622 149 q 682 186 660 169 l 689 186 l 689 175 q 684 169 689 175 q 673 158 679 164 q 660 145 667 151 q 649 135 653 139 q 578 78 610 103 q 518 7 546 53 q 507 0 515 0 l 501 0 q 372 50 425 22 q 284 118 318 78 q 235 215 250 158 q 219 353 219 272 "},"":{"ha":215,"x_min":25,"x_max":206,"o":"m 25 961 q 50 1024 25 997 q 99 1069 75 1050 l 100 1069 q 125 1057 110 1069 q 156 1027 140 1044 q 182 990 171 1010 q 193 958 193 971 q 185 937 193 947 q 167 914 176 926 q 150 885 158 901 q 142 850 142 869 q 151 826 142 838 q 174 805 161 815 q 196 785 186 794 q 206 765 206 775 l 206 761 q 201 759 203 761 q 199 757 200 757 l 197 757 q 169 771 186 757 q 135 802 153 785 q 103 838 118 819 q 82 864 88 856 q 42 908 58 890 q 25 961 25 926 "},"":{"ha":215,"x_min":17,"x_max":197,"o":"m 17 768 q 26 789 17 779 q 47 808 36 799 q 68 829 58 818 q 78 853 78 840 q 69 889 78 874 q 52 917 61 904 q 35 940 43 929 q 26 961 26 950 q 38 994 26 975 q 65 1031 49 1013 q 96 1061 81 1049 q 119 1074 111 1074 l 124 1074 q 147 1052 135 1064 q 171 1026 160 1040 q 190 997 182 1013 q 197 965 197 982 q 194 940 197 953 q 185 917 192 928 q 177 907 183 914 q 163 892 171 900 q 149 876 156 883 q 140 867 142 868 q 118 840 133 858 q 85 805 103 822 q 51 774 68 788 q 25 760 35 760 l 22 760 l 17 765 l 17 768 "},"":{"ha":435,"x_min":17,"x_max":417,"o":"m 235 957 q 260 1019 235 992 q 310 1067 286 1046 l 311 1067 q 337 1054 321 1067 q 368 1024 353 1042 q 394 986 383 1006 q 406 953 406 967 q 397 931 406 942 q 379 908 389 921 q 361 881 369 896 q 353 844 353 865 q 363 821 353 832 q 385 800 372 810 q 407 781 397 790 q 417 760 417 771 l 417 757 q 413 754 415 757 q 410 751 411 751 l 408 751 q 381 765 399 751 q 347 797 364 779 q 314 832 329 814 q 292 858 299 850 q 271 881 281 871 q 253 903 261 892 q 240 926 244 914 q 235 957 235 939 m 17 964 q 42 1025 17 999 q 90 1072 67 1051 q 91 1073 90 1072 q 93 1074 92 1074 q 117 1060 101 1074 q 149 1029 133 1047 q 175 992 164 1011 q 186 960 186 972 q 178 938 186 949 q 160 915 169 928 q 143 888 151 903 q 135 851 135 872 q 144 826 135 838 q 166 806 154 815 q 188 786 178 796 q 197 765 197 776 l 197 764 q 194 760 197 761 q 192 757 192 758 l 189 757 q 161 771 178 757 q 127 803 144 785 q 94 839 110 821 q 74 865 79 857 q 52 888 63 878 q 34 909 42 899 q 22 933 26 919 q 17 964 17 946 "},"":{"ha":435,"x_min":17,"x_max":417,"o":"m 17 765 q 26 785 17 775 q 47 805 36 794 q 68 826 58 815 q 78 850 78 838 q 69 885 78 869 q 52 914 61 901 q 35 937 43 926 q 26 958 26 947 q 38 990 26 971 q 65 1028 49 1010 q 96 1059 81 1046 q 119 1072 111 1072 l 124 1072 q 172 1024 147 1050 q 197 961 197 997 q 194 937 197 949 q 185 915 192 925 q 177 905 183 913 q 163 889 171 897 q 149 873 156 881 q 140 864 142 865 q 119 838 133 856 q 86 802 104 819 q 51 771 68 785 q 25 757 35 757 l 22 757 l 17 761 l 17 765 m 235 769 q 244 790 235 781 q 267 810 254 800 q 289 832 279 821 q 299 857 299 843 q 290 892 299 876 q 273 919 282 907 q 256 943 264 932 q 247 965 247 954 q 258 997 247 978 q 285 1035 269 1017 q 315 1065 300 1053 q 340 1078 331 1078 q 341 1077 340 1078 q 343 1076 342 1076 q 367 1055 354 1067 q 392 1030 381 1043 q 410 1001 403 1017 q 417 968 417 986 q 415 943 417 956 q 406 919 413 931 q 397 910 404 918 q 383 894 390 903 q 368 878 375 886 q 360 869 361 871 q 338 844 353 861 q 306 808 324 826 q 272 775 289 789 q 244 761 254 761 l 242 761 q 238 765 240 764 q 236 768 236 767 l 235 769 "},"":{"ha":650,"x_min":17,"x_max":632,"o":"m 17 665 l 17 767 q 22 794 18 779 q 28 822 25 810 q 84 872 54 851 q 144 912 114 893 q 206 951 175 931 q 265 997 238 971 l 267 997 q 282 988 275 997 q 297 969 289 979 q 317 949 306 958 q 344 940 328 940 q 365 948 358 940 q 376 965 372 956 q 385 981 381 974 q 401 989 390 989 q 374 901 401 943 q 310 833 347 858 l 278 833 q 217 850 240 833 q 168 894 193 867 l 167 894 q 151 875 154 894 q 147 847 147 856 l 147 828 q 148 790 147 817 q 149 735 149 764 q 151 678 150 706 q 151 642 151 651 l 158 642 q 222 655 189 642 q 288 684 254 668 q 354 713 321 700 q 419 726 388 726 q 483 710 449 726 q 549 669 518 694 q 599 614 579 644 q 619 553 619 583 q 587 447 619 492 q 515 373 554 403 q 442 328 475 343 q 410 311 410 313 q 422 298 410 304 q 451 285 435 292 q 484 275 468 279 q 507 269 500 271 q 599 154 565 217 q 632 14 632 92 q 609 -99 632 -42 q 547 -204 586 -157 q 456 -281 508 -251 q 343 -311 403 -311 q 251 -287 290 -311 q 181 -219 213 -262 l 181 -215 q 186 -208 181 -212 q 198 -198 192 -203 q 210 -190 204 -193 q 217 -186 215 -186 q 228 -202 219 -186 q 252 -237 236 -218 q 291 -273 268 -257 q 347 -289 314 -289 q 394 -276 374 -289 q 430 -242 414 -262 q 456 -197 446 -221 q 474 -153 467 -174 q 477 -132 476 -142 q 485 -114 478 -122 q 488 -76 486 -93 q 490 -45 489 -60 q 490 -15 490 -31 q 490 17 490 -1 q 465 166 490 93 q 372 282 439 239 q 361 285 364 285 q 351 286 358 286 l 343 286 q 283 264 311 276 q 222 251 254 251 q 210 252 219 251 q 197 253 200 253 q 192 262 193 258 q 192 269 192 265 q 211 306 192 293 q 256 323 231 318 q 308 327 282 328 q 350 326 335 326 q 390 347 369 335 q 428 376 410 360 q 462 410 447 392 q 485 450 476 429 l 485 494 q 452 602 485 563 q 347 642 419 642 q 303 638 332 642 q 243 627 274 633 q 186 611 213 621 q 151 592 160 601 l 151 453 l 151 315 q 152 278 151 304 q 154 222 153 251 q 157 165 156 192 q 158 128 158 139 q 169 108 161 118 q 186 90 178 99 q 201 74 194 81 q 208 61 208 67 l 208 56 q 156 30 185 47 q 101 -10 128 13 q 58 -61 75 -33 q 40 -118 40 -89 l 40 -374 q 33 -378 40 -376 q 25 -381 26 -381 q 21 142 25 -118 q 17 665 17 403 "},"B":{"ha":1442,"x_min":15,"x_max":1424,"o":"m 124 -44 q 140 35 124 -3 q 182 107 156 74 q 244 165 208 140 q 317 206 279 190 q 384 224 349 217 q 451 243 419 231 q 474 244 457 243 q 497 244 492 244 q 608 231 556 244 q 711 186 660 218 q 742 163 726 178 q 778 147 758 147 q 785 148 781 147 q 790 149 789 149 q 814 165 797 153 q 849 190 831 176 q 885 215 868 203 q 908 233 901 228 q 952 254 933 250 q 1000 267 971 258 q 1003 269 1001 267 q 1006 272 1006 272 l 1006 526 q 1001 538 1006 533 q 989 543 996 543 q 960 538 974 543 q 932 532 946 532 q 905 537 913 532 q 897 560 897 542 q 897 568 897 563 q 899 576 897 575 q 924 585 908 583 q 954 590 939 588 q 982 594 969 592 q 1000 606 994 597 q 1001 631 1000 613 q 1003 670 1001 650 q 1005 709 1004 690 q 1006 735 1006 728 l 1006 756 l 1006 775 q 1003 808 1004 785 q 1002 857 1003 831 q 1001 906 1001 883 q 1000 939 1000 929 q 993 943 996 943 q 992 944 993 943 q 990 944 992 944 q 954 927 979 944 q 904 887 929 910 q 860 842 879 864 q 840 810 840 819 q 847 758 840 782 q 853 706 853 733 q 842 601 853 653 q 807 503 831 550 q 802 495 807 501 q 792 482 797 489 q 782 468 788 475 q 774 458 776 461 q 696 381 731 411 q 625 332 661 350 q 544 307 589 314 q 436 300 500 300 q 376 313 411 300 q 309 346 342 325 q 254 393 276 367 q 232 447 232 419 l 232 536 q 244 561 232 550 q 272 580 256 572 q 306 591 289 588 q 333 594 324 594 q 400 568 369 594 q 431 506 431 542 q 426 479 431 493 q 413 453 421 465 q 392 433 404 442 q 367 425 381 425 l 278 425 q 298 376 278 396 q 347 342 318 356 q 406 323 375 329 q 460 317 438 317 q 626 360 565 317 q 717 503 686 404 l 717 581 q 703 697 717 640 q 661 797 690 754 q 585 867 632 840 q 469 893 538 893 q 326 881 397 893 q 183 869 254 869 q 126 885 156 869 q 72 926 96 901 q 31 979 47 950 q 15 1035 15 1008 l 22 1035 q 66 995 44 1007 q 124 983 88 983 q 158 983 139 983 q 192 994 179 983 q 342 1032 267 1017 q 494 1047 418 1047 q 651 1024 575 1047 q 778 933 726 1000 q 788 919 781 931 q 802 896 794 908 q 816 873 810 883 q 824 860 822 863 q 829 853 826 854 q 835 853 832 853 q 860 865 843 853 q 894 892 876 876 q 928 922 913 907 q 953 943 944 936 q 1061 999 1006 979 q 1175 1040 1117 1018 q 1213 1056 1194 1047 q 1256 1064 1232 1064 q 1251 1049 1256 1054 q 1240 1039 1246 1044 q 1230 1027 1235 1033 q 1225 1008 1225 1021 q 1238 976 1225 993 q 1269 942 1251 960 q 1306 908 1288 925 q 1332 876 1324 892 q 1347 831 1344 856 q 1350 783 1350 807 q 1336 717 1350 746 q 1299 665 1322 688 q 1249 624 1276 642 q 1192 589 1221 606 q 1179 582 1189 586 q 1168 576 1169 578 l 1164 572 q 1181 561 1168 561 q 1201 560 1193 561 q 1294 524 1253 551 q 1365 457 1336 496 q 1408 371 1393 418 q 1424 275 1424 324 q 1394 162 1424 215 q 1317 69 1364 108 q 1213 6 1271 29 q 1099 -17 1154 -17 q 1024 -8 1061 -17 q 958 17 988 0 q 906 63 928 35 q 875 132 883 92 q 875 139 875 133 q 874 151 875 144 q 870 163 872 157 q 864 169 868 168 l 861 169 l 858 169 q 792 124 822 149 q 728 75 761 100 q 713 57 721 69 q 697 32 706 44 q 679 10 689 19 q 658 0 669 0 q 656 1 657 0 q 656 1 656 1 q 588 65 619 39 q 522 107 556 92 q 447 129 488 122 q 356 136 407 136 q 274 124 314 136 q 203 88 235 111 q 153 29 172 64 q 135 -50 135 -6 q 163 -135 135 -100 q 232 -191 190 -169 q 322 -222 274 -212 q 411 -232 369 -232 q 510 -226 465 -232 q 593 -205 554 -221 q 667 -162 632 -189 q 740 -94 703 -136 l 747 -94 q 729 -134 747 -115 q 700 -164 711 -153 q 574 -245 647 -221 q 425 -269 501 -269 q 322 -256 375 -269 q 225 -213 269 -242 q 152 -143 181 -185 q 124 -44 124 -101 m 903 106 q 924 61 903 82 q 974 26 944 40 q 1034 3 1003 11 q 1085 -6 1065 -6 q 1175 15 1140 -6 q 1228 69 1210 35 q 1253 147 1247 103 q 1260 240 1260 192 q 1258 348 1260 292 q 1240 451 1256 404 q 1187 529 1224 499 q 1082 560 1150 560 q 1067 560 1076 560 q 1047 559 1057 560 q 1030 555 1038 558 q 1022 543 1022 551 l 1022 283 q 1032 264 1022 274 q 1053 243 1042 254 q 1075 217 1065 232 q 1085 182 1085 203 q 1061 121 1085 144 q 1000 97 1038 97 q 956 101 975 97 q 915 114 936 104 l 911 115 l 908 114 q 906 112 908 114 q 903 108 903 110 l 903 106 m 1022 600 q 1048 585 1031 588 q 1078 583 1065 583 q 1126 588 1100 583 q 1176 605 1153 593 q 1216 636 1200 617 q 1232 683 1232 656 q 1217 734 1232 714 q 1183 775 1201 754 q 1149 823 1164 796 q 1133 893 1133 850 q 1142 935 1133 917 q 1160 969 1150 954 q 1178 998 1169 985 q 1186 1024 1186 1011 l 1175 1024 q 1163 1020 1174 1024 q 1140 1012 1153 1017 q 1113 1002 1126 1007 q 1090 994 1099 997 q 1078 990 1088 993 q 1060 982 1069 986 q 1040 973 1050 978 q 1026 967 1031 968 l 1022 961 q 1020 933 1021 953 q 1019 892 1019 914 q 1017 851 1018 871 q 1017 825 1017 832 l 1017 803 l 1017 781 q 1017 744 1017 769 q 1019 690 1018 718 q 1020 635 1019 661 q 1022 600 1021 610 "}}}
